# 3ds Max Wavefront OBJ Exporter v0.99 - (c)2007 guruware
# File Created: 07.07.2021 16:42:59

mtllib mushroom_bulb.mtl

#
# object mushroom_bulb
#

v  3.2193 0.0000 -5.0420
v  1.9347 25.8501 -6.3644
v  6.4456 26.0292 -1.9035
v  6.4246 0.0000 -0.6302
v  -1.9670 0.0000 -3.3568
v  -3.6954 25.7083 -3.4550
v  -1.9670 0.0000 2.0964
v  -2.6806 25.8069 2.8059
v  3.2193 0.0000 3.7815
v  3.5909 26.0109 3.7734
v  -0.9230 51.8462 -7.1647
v  -5.1756 78.2069 -6.6286
v  1.5445 78.6522 -3.3658
v  4.7991 52.1816 -3.1078
v  -6.5349 51.6146 -2.9839
v  -10.3388 77.9407 -1.2717
v  -4.3108 51.8214 3.6712
v  -6.8445 78.2442 5.3358
v  2.7059 52.1833 3.6075
v  0.5205 78.7009 4.0533
v  -10.1570 105.1645 -4.0388
v  -14.7322 132.9227 0.9427
v  -7.0306 133.3918 1.8104
v  -2.7508 105.6570 -1.8747
v  -14.5138 104.9128 2.2766
v  -18.0281 132.7206 7.9085
v  -9.8289 105.2815 8.3996
v  -12.3747 133.1058 13.1543
v  -2.5313 105.7628 5.8395
v  -5.5469 133.5453 9.3814
v  -17.4598 161.5855 7.9548
v  -16.9627 191.0656 15.6673
v  -10.0369 191.3017 13.8939
v  -9.9099 161.9637 7.4582
v  -19.5606 161.4495 15.2076
v  -17.8579 190.9907 22.8202
v  -13.2932 161.7930 19.2734
v  -11.4383 191.2361 25.5391
v  -7.2994 162.1376 14.4687
v  -6.5813 191.4563 19.9959
v  -6.5686 218.8082 16.8665
v  -12.4654 218.5657 19.3368
v  -5.7484 244.2578 16.0983
v  -1.1232 244.1784 13.1952
v  -12.2613 218.3529 25.6557
v  -4.6727 244.3588 21.4598
v  -6.1660 218.4716 27.1323
v  0.6729 244.3445 21.8792
v  -2.6383 218.7492 21.6518
v  2.8611 244.2295 16.7383
v  -17.2796 145.6070 2.0566
v  -17.3638 149.5180 3.3557
v  -7.6154 150.0858 3.4172
v  -6.6697 146.2002 2.5104
v  -20.6585 144.8354 11.6880
v  -21.0710 148.8290 12.5551
v  -12.8819 145.0596 17.6637
v  -12.8685 148.9282 19.0260
v  -4.3894 149.8663 12.7980
v  -4.4336 145.8057 12.4860
v  0.6092 269.2033 6.9050
v  3.8132 268.8786 4.1009
v  2.1887 269.5277 10.8931
v  6.3954 269.4030 10.5483
v  7.3911 269.0000 6.3363
v  -20.1106 150.2247 -0.6645
v  -21.4619 157.4648 1.1331
v  -5.3224 158.5099 0.6913
v  -4.8880 151.1933 -0.7439
v  -3.3505 147.2421 -1.0817
v  -3.0516 140.8737 -2.3620
v  -19.1161 140.0119 -3.5547
v  -20.2284 146.3358 -2.0385
v  -26.5499 148.2058 13.7951
v  -26.1222 155.4386 16.1950
v  -25.4968 138.0023 10.9777
v  -25.1529 144.2453 13.1383
v  -12.8119 147.9375 23.6725
v  -12.9726 155.2938 25.1849
v  -13.1189 137.5493 21.4000
v  -13.1807 143.9832 22.6835
v  -0.1233 157.0469 15.7431
v  0.8692 149.9723 14.0677
v  0.8091 139.5324 13.2232
v  -0.0685 145.6787 14.6205
v  -4.7817 276.4490 3.4573
v  3.9090 275.5682 -4.1487
v  -0.4973 277.3288 14.2749
v  10.9132 276.9906 13.3395
v  13.6140 275.8973 1.9148
v  -25.5793 284.3583 -3.7058
v  2.8186 281.4801 -28.5594
v  -11.5797 287.2330 31.6420
v  25.7055 286.1281 28.5856
v  34.5307 282.5555 -8.7462
v  -39.4734 310.1927 -9.9149
v  2.3873 305.9499 -46.5509
v  -18.8369 314.4302 42.1905
v  36.1243 312.8015 37.6852
v  49.1333 307.5352 -17.3447
v  -32.6341 338.6321 -11.0210
v  3.6152 334.9580 -42.7459
v  -14.7639 342.3015 34.0998
v  32.8298 340.8911 30.1984
v  44.0950 336.3308 -17.4548
v  -11.9248 352.3571 -7.3787
v  5.4727 350.5938 -22.6047
v  -3.3482 354.1182 14.2765
v  19.4939 353.4413 12.4041
v  24.9005 351.2526 -10.4665
v  6.1701 352.3744 -2.7016
# 111 vertices

vn 0.3316 -0.0318 -0.9429
vn 0.1623 -0.0268 -0.9864
vn 0.9868 0.0231 -0.1606
vn 0.9998 0.0001 0.0183
vn -0.7994 -0.0560 -0.5981
vn -0.8869 -0.0750 -0.4558
vn -0.8098 -0.0385 0.5855
vn -0.6998 -0.0535 0.7124
vn 0.3041 -0.0040 0.9526
vn 0.4647 0.0075 0.8855
vn -0.0025 -0.0049 -1.0000
vn -0.1726 0.0275 -0.9846
vn 0.8684 0.1321 -0.4780
vn 0.9428 0.0780 -0.3240
vn -0.9451 -0.1066 -0.3088
vn -0.9796 -0.1300 -0.1532
vn -0.5741 -0.0852 0.8143
vn -0.4321 -0.1243 0.8932
vn 0.6035 0.0311 0.7967
vn 0.7258 0.0430 0.6866
vn -0.3415 0.0680 -0.9374
vn -0.4357 -0.3549 -0.8271
vn 0.6555 -0.2773 -0.7024
vn 0.7677 0.1773 -0.6158
vn -0.9904 -0.1379 0.0082
vn -0.7766 -0.6147 0.1383
vn -0.2786 -0.1638 0.9463
vn -0.0593 -0.6804 0.7304
vn 0.8287 0.0385 0.5584
vn 0.7870 -0.5025 0.3579
vn -0.4835 0.6910 -0.5374
vn -0.7644 0.1872 -0.6170
vn 0.3759 0.1325 -0.9171
vn 0.3221 0.7319 -0.6005
vn -0.8297 0.4693 0.3022
vn -0.8588 0.0153 0.5121
vn 0.0188 0.3172 0.9482
vn 0.1915 -0.1479 0.9703
vn 0.8282 0.5139 0.2237
vn 0.9871 -0.1039 0.1215
vn 0.2315 -0.0606 -0.9709
vn -0.8505 0.1907 -0.4902
vn -0.9145 0.1582 -0.3725
vn 0.0723 -0.2701 -0.9601
vn -0.7368 0.1853 0.6502
vn -0.5944 0.3609 0.7187
vn 0.3476 -0.0045 0.9376
vn 0.5173 0.1463 0.8432
vn 0.9843 -0.1761 -0.0108
vn 0.9611 -0.2292 -0.1542
vn -0.2254 0.9487 -0.2218
vn -0.3597 -0.7249 -0.5875
vn 0.4376 -0.6777 -0.5910
vn 0.1521 0.9710 -0.1844
vn -0.5928 0.7865 0.1730
vn -0.3592 -0.9295 0.0837
vn -0.0961 0.6648 0.7409
vn 0.0671 -0.9698 0.2343
vn 0.4851 -0.8702 0.0861
vn 0.4730 0.8412 0.2619
vn -0.9227 -0.3227 -0.2109
vn -0.0707 -0.6253 -0.7772
vn -0.5110 -0.0439 0.8584
vn 0.6401 -0.2645 0.7213
vn 0.7707 -0.5780 -0.2683
vn -0.3845 -0.4985 -0.7770
vn -0.6032 0.4742 -0.6413
vn 0.4847 0.5682 -0.6649
vn 0.4911 -0.4358 -0.7543
vn 0.4790 0.7256 -0.4941
vn 0.6193 -0.1907 -0.7617
vn -0.4515 -0.2420 -0.8588
vn -0.5221 0.6610 -0.5389
vn -0.7759 -0.6264 0.0746
vn -0.8715 0.3003 0.3878
vn -0.9024 -0.4133 0.1217
vn -0.7800 0.5122 0.3596
vn 0.0283 -0.7373 0.6750
vn 0.0072 0.2165 0.9763
vn -0.0554 -0.5421 0.8385
vn -0.0654 0.4379 0.8966
vn 0.8390 0.4182 0.3482
vn 0.8277 -0.5454 0.1323
vn 0.8923 -0.3411 0.2957
vn 0.6842 0.5967 0.4192
vn -0.5093 -0.8596 -0.0415
vn -0.0584 -0.9280 -0.3681
vn -0.3029 -0.7945 0.5263
vn 0.3231 -0.8233 0.4668
vn 0.4172 -0.9037 -0.0964
vn -0.7045 -0.7023 -0.1017
vn -0.0746 -0.7765 -0.6257
vn -0.3916 -0.6381 0.6630
vn 0.4483 -0.6643 0.5982
vn 0.6331 -0.7485 -0.1973
vn -0.9658 -0.1336 -0.2222
vn -0.0831 -0.2287 -0.9699
vn -0.5247 -0.0457 0.8501
vn 0.6426 -0.0831 0.7617
vn 0.9108 -0.1958 -0.3634
vn -0.8239 0.5094 -0.2483
vn -0.0574 0.4361 -0.8980
vn -0.4390 0.5899 0.6777
vn 0.5729 0.5563 0.6019
vn 0.8071 0.4601 -0.3699
vn -0.3502 0.9205 -0.1733
vn -0.0124 0.8884 -0.4588
vn -0.1812 0.9556 0.2321
vn 0.2711 0.9419 0.1984
vn 0.3730 0.9003 -0.2241
vn 0.0223 0.9957 -0.0899
# 111 vertex normals

vt 0.5519 0.5682 0.0000
vt 0.5353 0.6083 0.0000
vt 0.5912 0.6085 0.0000
vt 0.6071 0.5682 0.0000
vt 0.5730 0.5682 0.0000
vt 0.5717 0.6080 0.0000
vt 0.6413 0.5682 0.0000
vt 0.6502 0.6082 0.0000
vt 0.6624 0.5682 0.0000
vt 0.6623 0.6085 0.0000
vt 0.5253 0.6485 0.0000
vt 0.5320 0.6894 0.0000
vt 0.5729 0.6901 0.0000
vt 0.5761 0.6491 0.0000
vt 0.5777 0.6482 0.0000
vt 0.5991 0.6890 0.0000
vt 0.6610 0.6485 0.0000
vt 0.6819 0.6894 0.0000
vt 0.6602 0.6491 0.0000
vt 0.6658 0.6902 0.0000
vt 0.5644 0.7312 0.0000
vt 0.6269 0.7742 0.0000
vt 0.6377 0.7749 0.0000
vt 0.5916 0.7319 0.0000
vt 0.6436 0.7308 0.0000
vt 0.7141 0.7739 0.0000
vt 0.7203 0.7313 0.0000
vt 0.7799 0.7745 0.0000
vt 0.6882 0.7321 0.0000
vt 0.7326 0.7751 0.0000
vt 0.7147 0.8186 0.0000
vt 0.8114 0.8643 0.0000
vt 0.7891 0.8646 0.0000
vt 0.7085 0.8192 0.0000
vt 0.8056 0.8184 0.0000
vt 0.9010 0.8642 0.0000
vt 0.8565 0.8189 0.0000
vt 0.9351 0.8645 0.0000
vt 0.7963 0.8195 0.0000
vt 0.8656 0.8649 0.0000
vt 0.8264 0.9073 0.0000
vt 0.8573 0.9069 0.0000
vt 0.8168 0.9467 0.0000
vt 0.7804 0.9466 0.0000
vt 0.9365 0.9066 0.0000
vt 0.8839 0.9469 0.0000
vt 0.9550 0.9067 0.0000
vt 0.8892 0.9468 0.0000
vt 0.8863 0.9072 0.0000
vt 0.8248 0.9467 0.0000
vt 0.6408 0.7938 0.0000
vt 0.6571 0.7999 0.0000
vt 0.6579 0.8008 0.0000
vt 0.6465 0.7948 0.0000
vt 0.7615 0.7926 0.0000
vt 0.7724 0.7988 0.0000
vt 0.8364 0.7930 0.0000
vt 0.8534 0.7990 0.0000
vt 0.7754 0.8004 0.0000
vt 0.7715 0.7941 0.0000
vt 0.7016 0.9854 0.0000
vt 0.6664 0.9849 0.0000
vt 0.7515 0.9859 0.0000
vt 0.7472 0.9857 0.0000
vt 0.6944 0.9850 0.0000
vt 0.6067 0.8010 0.0000
vt 0.6292 0.8122 0.0000
vt 0.6237 0.8138 0.0000
vt 0.6057 0.8025 0.0000
vt 0.6015 0.7964 0.0000
vt 0.5854 0.7865 0.0000
vt 0.5705 0.7852 0.0000
vt 0.5895 0.7950 0.0000
vt 0.7879 0.7979 0.0000
vt 0.8180 0.8091 0.0000
vt 0.7526 0.7821 0.0000
vt 0.7797 0.7917 0.0000
vt 0.9117 0.7974 0.0000
vt 0.9306 0.8088 0.0000
vt 0.8832 0.7813 0.0000
vt 0.8993 0.7913 0.0000
vt 0.8123 0.8116 0.0000
vt 0.7913 0.8006 0.0000
vt 0.7807 0.7844 0.0000
vt 0.7982 0.7939 0.0000
vt 0.6584 0.9966 0.0000
vt 0.5631 0.9952 0.0000
vt 0.7939 0.9980 0.0000
vt 0.7822 0.9974 0.0000
vt 0.6390 0.9957 0.0000
vt 0.7404 0.6253 0.0000
vt 0.6639 0.5660 0.0000
vt 0.7007 0.4191 0.0000
vt 0.9460 0.4959 0.0000
vt 0.5863 0.5344 0.0000
vt 0.5775 0.4206 0.0000
vt 0.5159 0.5766 0.0000
vt 0.4777 0.4418 0.0000
vt 0.4418 0.6381 0.0000
vt 0.3483 0.4890 0.0000
vt 0.3837 0.7256 0.0000
vt 0.1282 0.6478 0.0000
vt 0.7011 0.3147 0.0000
vt 0.9995 0.2398 0.0000
vt 0.5638 0.3475 0.0000
vt 0.4603 0.3687 0.0000
vt 0.3138 0.3799 0.0000
vt 0.0005 0.4036 0.0000
vt 0.6604 0.2300 0.0000
vt 0.8682 0.0320 0.0000
vt 0.5483 0.2871 0.0000
vt 0.4495 0.3045 0.0000
vt 0.3263 0.2880 0.0000
vt 0.0692 0.1633 0.0000
vt 0.5954 0.1658 0.0000
vt 0.6403 0.0005 0.0000
vt 0.5236 0.2163 0.0000
vt 0.4529 0.2332 0.0000
vt 0.3681 0.2099 0.0000
vt 0.2790 0.0668 0.0000
vt 0.4705 0.0981 0.0000
# 121 texture coords

o mushroom_bulb
g mushroom_bulb
usemtl Material__2
s 8
f 1/1/1 2/2/2 3/3/3 4/4/4 
f 5/5/5 6/6/6 2/2/2 1/1/1 
f 7/7/7 8/8/8 6/6/6 5/5/5 
f 9/9/9 10/10/10 8/8/8 7/7/7 
f 4/4/4 3/3/3 10/10/10 9/9/9 
f 11/11/11 12/12/12 13/13/13 14/14/14 
f 15/15/15 16/16/16 12/12/12 11/11/11 
f 17/17/17 18/18/18 16/16/16 15/15/15 
f 17/17/17 19/19/19 20/20/20 18/18/18 
f 19/19/19 14/14/14 13/13/13 20/20/20 
f 21/21/21 22/22/22 23/23/23 24/24/24 
f 25/25/25 26/26/26 22/22/22 21/21/21 
f 27/27/27 28/28/28 26/26/26 25/25/25 
f 27/27/27 29/29/29 30/30/30 28/28/28 
f 29/29/29 24/24/24 23/23/23 30/30/30 
f 31/31/31 32/32/32 33/33/33 34/34/34 
f 35/35/35 36/36/36 32/32/32 31/31/31 
f 37/37/37 38/38/38 36/36/36 35/35/35 
f 37/37/37 39/39/39 40/40/40 38/38/38 
f 39/39/39 34/34/34 33/33/33 40/40/40 
f 41/41/41 42/42/42 43/43/43 44/44/44 
f 42/42/42 45/45/45 46/46/46 43/43/43 
f 47/47/47 48/48/48 46/46/46 45/45/45 
f 49/49/49 50/50/50 48/48/48 47/47/47 
f 49/49/49 41/41/41 44/44/44 50/50/50 
f 2/2/2 11/11/11 14/14/14 3/3/3 
f 6/6/6 15/15/15 11/11/11 2/2/2 
f 8/8/8 17/17/17 15/15/15 6/6/6 
f 19/19/19 17/17/17 8/8/8 10/10/10 
f 14/14/14 19/19/19 10/10/10 3/3/3 
f 12/12/12 21/21/21 24/24/24 13/13/13 
f 16/16/16 25/25/25 21/21/21 12/12/12 
f 18/18/18 27/27/27 25/25/25 16/16/16 
f 29/29/29 27/27/27 18/18/18 20/20/20 
f 24/24/24 29/29/29 20/20/20 13/13/13 
f 51/51/51 52/52/52 53/53/53 54/54/54 
f 55/55/55 56/56/56 52/52/52 51/51/51 
f 57/57/57 58/58/58 56/56/56 55/55/55 
f 59/59/59 58/58/58 57/57/57 60/60/60 
f 53/53/53 59/59/59 60/60/60 54/54/54 
f 42/42/42 41/41/41 33/33/33 32/32/32 
f 36/36/36 45/45/45 42/42/42 32/32/32 
f 38/38/38 47/47/47 45/45/45 36/36/36 
f 40/40/40 49/49/49 47/47/47 38/38/38 
f 41/41/41 49/49/49 40/40/40 33/33/33 
f 61/61/61 62/62/62 44/44/44 43/43/43 
f 63/63/63 61/61/61 43/43/43 46/46/46 
f 48/48/48 64/64/64 63/63/63 46/46/46 
f 50/50/50 65/65/65 64/64/64 48/48/48 
f 44/44/44 62/62/62 65/65/65 50/50/50 
f 66/66/66 67/67/67 68/68/68 69/69/69 
f 70/70/70 71/71/71 72/72/72 73/73/73 
f 74/74/74 75/75/75 67/67/67 66/66/66 
f 73/73/73 72/72/72 76/76/76 77/77/77 
f 78/78/78 79/79/79 75/75/75 74/74/74 
f 77/77/77 76/76/76 80/80/80 81/81/81 
f 82/82/82 79/79/79 78/78/78 83/83/83 
f 80/80/80 84/84/84 85/85/85 81/81/81 
f 68/68/68 82/82/82 83/83/83 69/69/69 
f 84/84/84 71/71/71 70/70/70 85/85/85 
s off
f 34/34/34 68/68/68 67/67/67 31/31/31 
f 34/34/34 39/39/39 82/82/82 68/68/68 
f 39/39/39 37/37/37 79/79/79 82/82/82 
f 35/35/35 75/75/75 79/79/79 37/37/37 
f 31/31/31 67/67/67 75/75/75 35/35/35 
f 53/53/53 52/52/52 66/66/66 69/69/69 
f 56/56/56 74/74/74 66/66/66 52/52/52 
f 56/56/56 58/58/58 78/78/78 74/74/74 
f 59/59/59 83/83/83 78/78/78 58/58/58 
f 53/53/53 69/69/69 83/83/83 59/59/59 
f 22/22/22 72/72/72 71/71/71 23/23/23 
f 26/26/26 76/76/76 72/72/72 22/22/22 
f 28/28/28 80/80/80 76/76/76 26/26/26 
f 28/28/28 30/30/30 84/84/84 80/80/80 
f 30/30/30 23/23/23 71/71/71 84/84/84 
f 54/54/54 70/70/70 73/73/73 51/51/51 
f 60/60/60 85/85/85 70/70/70 54/54/54 
f 57/57/57 81/81/81 85/85/85 60/60/60 
f 57/57/57 55/55/55 77/77/77 81/81/81 
f 51/51/51 73/73/73 77/77/77 55/55/55 
f 62/62/62 61/61/61 86/86/86 87/87/87 
f 61/61/61 63/63/63 88/88/88 86/86/86 
f 64/64/64 89/89/89 88/88/88 63/63/63 
f 65/65/65 90/90/90 89/89/89 64/64/64 
f 62/62/62 87/87/87 90/90/90 65/65/65 
f 87/91/87 86/92/86 91/93/91 92/94/92 
f 86/92/86 88/95/88 93/96/93 91/93/91 
f 89/97/89 94/98/94 93/96/93 88/95/88 
f 90/99/90 95/100/95 94/98/94 89/97/89 
f 87/101/87 92/102/92 95/100/95 90/99/90 
f 92/94/92 91/93/91 96/103/96 97/104/97 
f 93/96/93 98/105/98 96/103/96 91/93/91 
f 94/98/94 99/106/99 98/105/98 93/96/93 
f 95/100/95 100/107/100 99/106/99 94/98/94 
f 92/102/92 97/108/97 100/107/100 95/100/95 
f 96/103/96 101/109/101 102/110/102 97/104/97 
f 98/105/98 103/111/103 101/109/101 96/103/96 
f 99/106/99 104/112/104 103/111/103 98/105/98 
f 100/107/100 105/113/105 104/112/104 99/106/99 
f 100/107/100 97/108/97 102/114/102 105/113/105 
f 101/109/101 106/115/106 107/116/107 102/110/102 
f 101/109/101 103/111/103 108/117/108 106/115/106 
f 104/112/104 109/118/109 108/117/108 103/111/103 
f 105/113/105 110/119/110 109/118/109 104/112/104 
f 105/113/105 102/114/102 107/120/107 110/119/110 
f 106/115/106 108/117/108 111/121/111 
f 108/117/108 109/118/109 111/121/111 
f 109/118/109 110/119/110 111/121/111 
f 110/119/110 107/120/107 111/121/111 
f 107/116/107 106/115/106 111/121/111 
# 105 polygons - 5 triangles

