# 3ds Max Wavefront OBJ Exporter v0.99 - (c)2007 guruware
# File Created: 01.03.2021 03:14:32

mtllib mushroom_planes.mtl

#
# object Plane001
#

v  -32.4338 -3.1030 -1.7811
v  -16.6632 -0.9833 3.5319
v  -19.5976 36.1050 -3.8037
v  -37.7353 36.3290 -11.6985
v  -0.0000 -0.2639 5.3351
v  -0.0000 36.0284 -1.1050
v  16.6632 -0.9833 3.5319
v  19.5976 36.1050 -3.8037
v  32.4338 -3.1030 -1.7811
v  37.7353 36.3290 -11.6985
v  -22.4978 73.4102 4.1377
v  -42.7731 77.7997 -5.2756
v  0.0000 71.8973 7.3823
v  22.4978 73.4102 4.1377
v  42.7731 77.7997 -5.2756
v  -25.3586 104.8791 26.3611
v  -47.5118 114.7188 17.6173
v  -0.0000 101.4550 29.4039
v  25.3586 104.8791 26.3611
v  47.5118 114.7188 17.6173
v  -28.1750 125.2633 59.5599
v  -51.9184 140.6525 54.4853
v  -0.0000 119.8498 61.3450
v  28.1750 125.2633 59.5599
v  51.9184 140.6525 54.4853
v  -17.9613 36.2490 -9.5744
v  -15.3070 -1.9914 -2.2252
v  -30.3270 -4.0781 -7.3138
v  -35.2804 36.5524 -17.1687
v  -0.0196 36.1757 -7.1032
v  -0.0193 -1.3343 -0.5686
v  17.9250 36.2463 -9.5641
v  15.2692 -2.0726 -2.2013
v  35.3811 36.5162 -17.2141
v  30.4171 -4.2248 -7.3196
v  -20.6152 75.7977 -1.0349
v  -39.9750 80.0889 -10.0641
v  -0.0220 74.4103 1.9339
v  20.5749 75.7915 -1.0230
v  40.0825 80.0792 -10.1299
v  -23.2318 109.0567 22.6161
v  -44.3827 118.5678 14.2418
v  -0.0242 105.9221 25.3984
v  23.1880 109.0448 22.6280
v  44.4945 118.5943 14.1711
v  -25.8449 130.0181 56.7381
v  -48.5974 144.9178 51.8819
v  -0.0239 125.0361 58.3281
v  25.7895 130.0541 56.8475
v  48.6930 145.0348 51.9571
v  -51.8871 138.7617 71.3203
v  -28.1438 123.3726 76.3948
v  -25.8136 131.3074 68.2509
v  -48.5662 146.2071 63.3947
v  0.0313 117.9591 78.1800
v  0.0074 126.3253 69.8409
v  28.2063 123.3726 76.3948
v  25.8208 131.3434 68.3602
v  51.9497 138.7617 71.3203
v  48.7243 146.3241 63.4699
v  -24.7139 -5.9355 -24.2484
v  -2.5339 -1.8561 -20.8897
v  -7.5068 68.6325 -29.3937
v  -33.4177 70.2090 -35.6229
v  20.0136 -0.4925 -22.3971
v  19.1360 67.5562 -30.3997
v  41.7175 -1.8194 -28.6924
v  44.5255 67.0377 -38.5658
v  61.4181 -5.7090 -39.4357
v  66.7701 67.0980 -53.2834
v  -7.5172 138.8873 -16.4598
v  -36.2514 149.9901 -23.9308
v  22.9702 133.8953 -17.5048
v  52.1733 135.1933 -26.9723
v  77.2184 142.4869 -43.9113
v  -3.5542 195.3049 16.0069
v  -33.8559 217.7968 10.4798
v  30.4188 185.6953 13.8328
v  63.6669 189.4776 4.1818
v  92.0406 205.7665 -11.6559
v  2.3286 227.5527 62.5509
v  -28.3931 259.9583 63.0145
v  39.4642 213.8662 57.8144
v  76.9693 220.0544 49.4311
v  109.0573 244.3831 38.8753
v  -6.6752 69.1332 -37.4329
v  -2.0795 -3.7721 -28.8503
v  -23.2083 -7.8231 -32.0850
v  -31.4260 70.8225 -43.4521
v  17.7163 68.1344 -38.3531
v  18.6066 -2.5014 -30.2309
v  40.9666 67.6543 -45.8168
v  38.5257 -3.8546 -35.9773
v  62.3653 67.8130 -60.0485
v  57.4476 -7.8143 -46.3141
v  -6.0367 143.7905 -23.6111
v  -33.4594 154.6896 -30.7833
v  21.8626 139.1343 -24.5717
v  48.6040 140.2706 -33.2175
v  72.7067 147.4211 -49.5666
v  -1.1612 203.3862 10.9194
v  -30.0356 225.2427 5.6524
v  29.9085 194.4442 8.9159
v  60.3557 197.7993 0.1148
v  87.6851 213.6391 -15.1348
v  5.3288 236.3575 58.7654
v  -24.0159 267.8341 59.2920
v  39.3169 223.6196 54.3429
v  73.7379 229.2526 46.8976
v  104.7738 252.9542 36.7988
v  -24.8760 253.0621 85.0647
v  5.9258 221.1328 84.6404
v  8.0802 236.5142 74.1301
v  -21.2797 267.7483 74.6608
v  43.0913 207.6894 79.9161
v  42.0726 223.8570 69.7060
v  80.5773 213.8608 71.5163
v  76.4895 229.4139 62.2622
v  112.5983 237.9305 60.9157
v  107.5113 252.8923 52.1670
v  -47.9266 -4.3192 -32.6214
v  -35.8774 -1.3624 -21.1447
v  -35.6768 50.3364 -28.5182
v  -48.7833 50.9951 -43.3287
v  -21.5373 -0.3650 -12.4686
v  -19.0542 50.1123 -17.7935
v  -5.6734 -1.3624 -7.0604
v  -0.1538 50.3364 -11.9536
v  10.8634 -4.3192 -5.2072
v  19.6163 50.9951 -11.4334
v  -42.4073 101.5896 -20.9469
v  -56.9353 108.5393 -37.7670
v  -23.3457 99.2169 -8.5903
v  -1.6275 101.5896 -1.9309
v  20.5959 108.5393 -1.6136
v  -55.3791 142.2229 0.1020
v  -72.1672 156.7339 -16.3149
v  -33.5507 137.2192 13.2944
v  -9.4138 142.2229 21.5360
v  13.9535 156.7339 23.8438
v  -72.7198 164.7494 30.6248
v  -92.8213 185.7545 17.5511
v  -47.7041 157.3976 43.6464
v  -21.6493 164.7494 54.4394
v  1.2868 185.7545 61.4345
v  -31.7581 50.7899 -33.0501
v  -32.2157 -2.7730 -25.7881
v  -43.6802 -5.7038 -36.7426
v  -44.2508 51.5503 -47.2399
v  -16.5403 50.5792 -23.2311
v  -19.0600 -1.8553 -17.8267
v  0.7616 50.7857 -17.8745
v  -4.5144 -2.8861 -12.8443
v  19.8100 51.5012 -17.4193
v  11.3748 -5.9090 -11.0758
v  -38.5850 105.3622 -24.6893
v  -52.4473 112.1909 -40.7709
v  -21.1350 103.1696 -13.3833
v  -1.2590 105.3524 -7.2712
v  20.1375 112.1838 -6.9972
v  -52.0363 148.3641 -2.0344
v  -68.0745 162.4570 -17.6877
v  -32.0527 143.7563 10.0245
v  -9.9702 148.3463 17.5931
v  12.5042 162.5032 19.8121
v  -69.6341 171.4193 29.5211
v  -88.9326 191.8129 17.0699
v  -46.6788 164.6374 41.3910
v  -22.8849 171.4494 51.4447
v  -0.7950 191.9537 58.2669
v  -99.7638 180.4536 32.5133
v  -79.6836 159.7673 45.6327
v  -74.4983 171.2889 40.0264
v  -93.7962 191.4817 27.5739
v  -54.6751 152.5279 58.6697
v  -51.5430 164.5743 51.8964
v  -28.6130 159.7673 69.4473
v  -27.7491 171.3184 61.9500
v  -5.6556 180.4536 76.3966
v  -5.6586 191.6207 68.7709
# 180 vertices

vn -0.8880 -0.0037 0.4599
vn -0.2231 0.1721 0.9595
vn -0.2751 -0.0281 0.9610
vn -0.9533 -0.1206 0.2768
vn 0.0000 0.1747 0.9846
vn 0.0000 -0.0284 0.9996
vn 0.2231 0.1721 0.9595
vn 0.2751 -0.0281 0.9610
vn 0.8870 -0.0031 0.4618
vn 0.9505 -0.1194 0.2869
vn -0.3166 -0.4018 0.8592
vn -0.9701 -0.1889 0.1524
vn -0.0000 -0.4226 0.9063
vn 0.3166 -0.4018 0.8592
vn 0.9677 -0.1922 0.1632
vn -0.3577 -0.6989 0.6193
vn -0.9827 -0.1829 0.0279
vn 0.0000 -0.7475 0.6643
vn 0.3577 -0.6989 0.6193
vn 0.9809 -0.1908 0.0370
vn -0.4059 -0.8961 0.1796
vn -0.9998 -0.0178 -0.0005
vn -0.0001 -0.9799 0.1993
vn 0.4056 -0.8964 0.1789
vn 0.9995 -0.0329 -0.0034
vn 0.2766 0.0292 -0.9605
vn 0.2250 -0.1688 -0.9596
vn -0.4024 -0.2618 -0.8772
vn -0.3295 -0.0624 -0.9421
vn 0.0003 0.0298 -0.9996
vn 0.0001 -0.1716 -0.9852
vn -0.2762 0.0293 -0.9607
vn -0.2248 -0.1688 -0.9597
vn 0.3376 -0.0638 -0.9391
vn 0.4055 -0.2621 -0.8757
vn 0.3182 0.4012 -0.8589
vn -0.2739 0.3243 -0.9054
vn 0.0003 0.4224 -0.9064
vn -0.3178 0.4014 -0.8590
vn 0.2830 0.3219 -0.9035
vn 0.3592 0.6973 -0.6202
vn -0.2171 0.6657 -0.7139
vn 0.0004 0.7462 -0.6657
vn -0.3588 0.6976 -0.6202
vn 0.2272 0.6633 -0.7131
vn 0.4049 0.8688 -0.2851
vn -0.1888 0.9128 -0.3621
vn 0.0002 0.9495 -0.3139
vn -0.4044 0.8694 -0.2838
vn 0.1967 0.9118 -0.3605
vn -0.6870 -0.0295 0.7260
vn -0.2712 -0.4378 0.8572
vn 0.3069 0.8764 0.3712
vn -0.2377 0.9465 0.2182
vn 0.0002 -0.5019 0.8649
vn -0.0016 0.9314 0.3641
vn 0.2728 -0.4417 0.8547
vn -0.3063 0.8738 0.3777
vn 0.6881 -0.0357 0.7247
vn 0.2481 0.9432 0.2212
vn -0.8397 -0.0149 0.5428
vn -0.0581 0.1155 0.9916
vn -0.1049 -0.0340 0.9939
vn -0.8878 -0.0753 0.4539
vn 0.1717 0.1172 0.9781
vn 0.1716 -0.0401 0.9843
vn 0.3917 0.1149 0.9129
vn 0.4351 -0.0439 0.8993
vn 0.9707 -0.0259 0.2389
vn 0.9852 -0.1084 0.1328
vn -0.1946 -0.3276 0.9246
vn -0.9347 -0.1350 0.3289
vn 0.1394 -0.3628 0.9214
vn 0.4577 -0.3587 0.8135
vn 0.9784 -0.2065 0.0086
vn -0.3464 -0.6061 0.7160
vn -0.9771 -0.1187 0.1765
vn 0.0655 -0.6965 0.7146
vn 0.4653 -0.6670 0.5819
vn 0.9626 -0.2337 -0.1372
vn -0.5597 -0.8005 0.2143
vn -0.9860 0.0780 0.1475
vn -0.0717 -0.9849 0.1578
vn 0.4355 -0.8991 0.0439
vn 0.9775 -0.0862 -0.1924
vn 0.1065 0.0348 -0.9937
vn 0.0600 -0.1130 -0.9918
vn -0.5570 -0.1755 -0.8118
vn -0.4977 -0.0200 -0.8671
vn -0.1712 0.0413 -0.9844
vn -0.1715 -0.1147 -0.9785
vn -0.4360 0.0449 -0.8988
vn -0.3932 -0.1122 -0.9126
vn 0.1711 -0.0334 -0.9847
vn 0.2397 -0.1885 -0.9524
vn 0.1972 0.3271 -0.9242
vn -0.4108 0.3085 -0.8579
vn -0.1381 0.3629 -0.9215
vn -0.4583 0.3585 -0.8133
vn 0.1259 0.2971 -0.9465
vn 0.3505 0.6042 -0.7156
vn -0.2834 0.6510 -0.7042
vn -0.0626 0.6959 -0.7154
vn -0.4650 0.6667 -0.5824
vn 0.1218 0.6409 -0.7579
vn 0.5278 0.7792 -0.3381
vn -0.1544 0.9435 -0.2933
vn 0.0456 0.9519 -0.3029
vn -0.4492 0.8764 -0.1735
vn 0.1930 0.9200 -0.3411
vn -0.5600 -0.0660 0.8259
vn -0.2579 -0.5275 0.8095
vn 0.5336 0.7302 0.4266
vn -0.0879 0.9168 0.3896
vn 0.0692 -0.6613 0.7469
vn 0.1742 0.8488 0.4991
vn 0.4186 -0.5928 0.6880
vn -0.1980 0.8010 0.5650
vn 0.8000 -0.1779 0.5731
vn 0.3559 0.8826 0.3073
vn -0.9993 -0.0213 -0.0303
vn -0.6155 0.1136 0.7799
vn -0.6546 -0.0422 0.7548
vn -0.9859 -0.0935 -0.1385
vn -0.4198 0.1156 0.9002
vn -0.4222 -0.0435 0.9055
vn -0.2018 0.1136 0.9728
vn -0.1574 -0.0422 0.9866
vn 0.6646 -0.0211 0.7469
vn 0.7329 -0.0927 0.6740
vn -0.6711 -0.3503 0.6533
vn -0.9491 -0.1713 -0.2643
vn -0.3925 -0.3707 0.8417
vn -0.0691 -0.3503 0.9341
vn 0.8061 -0.1737 0.5658
vn -0.6458 -0.6475 0.4045
vn -0.8964 -0.1727 -0.4083
vn -0.2980 -0.7091 0.6390
vn 0.1052 -0.6475 0.7548
vn 0.8839 -0.1792 0.4320
vn -0.5020 -0.8561 -0.1228
vn -0.8980 0.0036 -0.4400
vn -0.0530 -0.9921 0.1133
vn 0.4169 -0.8564 0.3047
vn 0.9160 -0.0097 0.4011
vn 0.6557 0.0431 -0.7538
vn 0.6170 -0.1109 -0.7791
vn 0.0125 -0.1802 -0.9835
vn 0.0943 -0.0224 -0.9953
vn 0.4225 0.0447 -0.9053
vn 0.4200 -0.1130 -0.9005
vn 0.1563 0.0432 -0.9868
vn 0.2003 -0.1109 -0.9734
vn 0.7081 -0.0237 -0.7058
vn 0.7451 -0.1804 -0.6421
vn 0.6726 0.3500 -0.6520
vn 0.1433 0.3122 -0.9391
vn 0.3928 0.3708 -0.8415
vn 0.0676 0.3502 -0.9342
vn 0.6344 0.3101 -0.7081
vn 0.6477 0.6466 -0.4030
vn 0.1258 0.6604 -0.7403
vn 0.2984 0.7090 -0.6389
vn -0.1071 0.6469 -0.7551
vn 0.4941 0.6584 -0.5677
vn 0.5483 0.8363 0.0034
vn -0.0334 0.9413 -0.3359
vn 0.1148 0.9626 -0.2456
vn -0.3552 0.8370 -0.4161
vn 0.2840 0.9406 -0.1861
vn -0.9283 -0.1314 0.3478
vn -0.6267 -0.5717 0.5296
vn 0.1148 0.7642 0.6346
vn -0.3628 0.8972 0.2516
vn -0.3122 -0.6735 0.6700
vn -0.2276 0.8452 0.4836
vn -0.0001 -0.5747 0.8184
vn -0.5615 0.7607 0.3257
vn 0.3329 -0.1370 0.9330
vn 0.0478 0.8939 0.4456
# 180 vertex normals

vt 0.3465 0.7126 0.0000
vt 0.2943 0.6970 0.0000
vt 0.3180 0.5663 0.0000
vt 0.3863 0.5771 0.0000
vt 0.2450 0.6897 0.0000
vt 0.2484 0.5601 0.0000
vt 0.1953 0.6934 0.0000
vt 0.1788 0.5614 0.0000
vt 0.1422 0.7053 0.0000
vt 0.1101 0.5675 0.0000
vt 0.3364 0.4310 0.0000
vt 0.4164 0.4368 0.0000
vt 0.2543 0.4268 0.0000
vt 0.1720 0.4249 0.0000
vt 0.0916 0.4249 0.0000
vt 0.3534 0.2930 0.0000
vt 0.4452 0.2920 0.0000
vt 0.2592 0.2919 0.0000
vt 0.1651 0.2861 0.0000
vt 0.0737 0.2783 0.0000
vt 0.3655 0.1548 0.0000
vt 0.4657 0.1385 0.0000
vt 0.2641 0.1602 0.0000
vt 0.1633 0.1473 0.0000
vt 0.0645 0.1236 0.0000
vt 0.6984 0.5453 0.0000
vt 0.7130 0.6804 0.0000
vt 0.6603 0.6891 0.0000
vt 0.6326 0.5489 0.0000
vt 0.7617 0.5431 0.0000
vt 0.7617 0.6769 0.0000
vt 0.8251 0.5450 0.0000
vt 0.8104 0.6805 0.0000
vt 0.8914 0.5485 0.0000
vt 0.8636 0.6893 0.0000
vt 0.6877 0.4032 0.0000
vt 0.6120 0.4050 0.0000
vt 0.7613 0.4020 0.0000
vt 0.8348 0.4028 0.0000
vt 0.9111 0.4041 0.0000
vt 0.6763 0.2593 0.0000
vt 0.5901 0.2594 0.0000
vt 0.7606 0.2594 0.0000
vt 0.8450 0.2586 0.0000
vt 0.9319 0.2581 0.0000
vt 0.6657 0.1180 0.0000
vt 0.5689 0.1100 0.0000
vt 0.7600 0.1224 0.0000
vt 0.8543 0.1168 0.0000
vt 0.9515 0.1079 0.0000
vt 0.4062 0.5834 0.0000
vt 0.3654 0.7202 0.0000
vt 0.1229 0.7120 0.0000
vt 0.0897 0.5725 0.0000
vt 0.4368 0.4408 0.0000
vt 0.0711 0.4275 0.0000
vt 0.4661 0.2936 0.0000
vt 0.0528 0.2785 0.0000
vt 0.5771 0.0390 0.0000
vt 0.6719 0.0366 0.0000
vt 0.6675 0.0766 0.0000
vt 0.5711 0.0757 0.0000
vt 0.4866 0.1402 0.0000
vt 0.7597 0.0393 0.0000
vt 0.7599 0.0800 0.0000
vt 0.8476 0.0356 0.0000
vt 0.8522 0.0754 0.0000
vt 0.0435 0.1234 0.0000
vt 0.9424 0.0369 0.0000
vt 0.9492 0.0735 0.0000
vt 0.3529 0.0974 0.0000
vt 0.4458 0.0841 0.0000
vt 0.2661 0.1016 0.0000
vt 0.1799 0.0909 0.0000
vt 0.0883 0.0708 0.0000
vt 0.0532 0.0860 0.0000
vt 0.4797 0.1021 0.0000
# 77 texture coords

o Plane001
g Plane001
usemtl wire_213154229
s 1
f 1/1/1 2/2/2 3/3/3 4/4/4 
f 2/2/2 5/5/5 6/6/6 3/3/3 
f 5/5/5 7/7/7 8/8/8 6/6/6 
f 7/7/7 9/9/9 10/10/10 8/8/8 
f 4/4/4 3/3/3 11/11/11 12/12/12 
f 3/3/3 6/6/6 13/13/13 11/11/11 
f 6/6/6 8/8/8 14/14/14 13/13/13 
f 8/8/8 10/10/10 15/15/15 14/14/14 
f 12/12/12 11/11/11 16/16/16 17/17/17 
f 11/11/11 13/13/13 18/18/18 16/16/16 
f 13/13/13 14/14/14 19/19/19 18/18/18 
f 14/14/14 15/15/15 20/20/20 19/19/19 
f 17/17/17 16/16/16 21/21/21 22/22/22 
f 16/16/16 18/18/18 23/23/23 21/21/21 
f 18/18/18 19/19/19 24/24/24 23/23/23 
f 19/19/19 20/20/20 25/25/25 24/24/24 
f 26/26/26 27/27/27 28/28/28 29/29/29 
f 30/30/30 31/31/31 27/27/27 26/26/26 
f 32/32/32 33/33/33 31/31/31 30/30/30 
f 34/34/34 35/35/35 33/33/33 32/32/32 
f 36/36/36 26/26/26 29/29/29 37/37/37 
f 38/38/38 30/30/30 26/26/26 36/36/36 
f 39/39/39 32/32/32 30/30/30 38/38/38 
f 40/40/40 34/34/34 32/32/32 39/39/39 
f 41/41/41 36/36/36 37/37/37 42/42/42 
f 43/43/43 38/38/38 36/36/36 41/41/41 
f 44/44/44 39/39/39 38/38/38 43/43/43 
f 45/45/45 40/40/40 39/39/39 44/44/44 
f 46/46/46 41/41/41 42/42/42 47/47/47 
f 48/48/48 43/43/43 41/41/41 46/46/46 
f 49/49/49 44/44/44 43/43/43 48/48/48 
f 50/50/50 45/45/45 44/44/44 49/49/49 
s 4
f 1/1/1 4/4/4 29/51/29 28/52/28 
f 10/10/10 9/9/9 35/53/35 34/54/34 
f 4/4/4 12/12/12 37/55/37 29/51/29 
f 15/15/15 10/10/10 34/54/34 40/56/40 
f 12/12/12 17/17/17 42/57/42 37/55/37 
f 20/20/20 15/15/15 40/56/40 45/58/45 
s 2
f 51/59/51 52/60/52 53/61/53 54/62/54 
s 4
f 17/17/17 22/22/22 47/63/47 42/57/42 
s 2
f 52/60/52 55/64/55 56/65/56 53/61/53 
f 55/64/55 57/66/57 58/67/58 56/65/56 
s 4
f 25/25/25 20/20/20 45/58/45 50/68/50 
s 2
f 57/66/57 59/69/59 60/70/60 58/67/58 
s off
f 22/22/22 21/21/21 52/71/52 51/72/51 
f 21/21/21 23/23/23 55/73/55 52/71/52 
f 23/23/23 24/24/24 57/74/57 55/73/55 
f 24/24/24 25/25/25 59/75/59 57/74/57 
f 25/25/25 50/68/50 60/76/60 59/75/59 
f 50/50/50 49/49/49 58/67/58 60/70/60 
f 49/49/49 48/48/48 56/65/56 58/67/58 
f 48/48/48 46/46/46 53/61/53 56/65/56 
f 46/46/46 47/47/47 54/62/54 53/61/53 
f 47/63/47 22/22/22 51/72/51 54/77/54 
s 1
f 61/1/61 62/2/62 63/3/63 64/4/64 
f 62/2/62 65/5/65 66/6/66 63/3/63 
f 65/5/65 67/7/67 68/8/68 66/6/66 
f 67/7/67 69/9/69 70/10/70 68/8/68 
f 64/4/64 63/3/63 71/11/71 72/12/72 
f 63/3/63 66/6/66 73/13/73 71/11/71 
f 66/6/66 68/8/68 74/14/74 73/13/73 
f 68/8/68 70/10/70 75/15/75 74/14/74 
f 72/12/72 71/11/71 76/16/76 77/17/77 
f 71/11/71 73/13/73 78/18/78 76/16/76 
f 73/13/73 74/14/74 79/19/79 78/18/78 
f 74/14/74 75/15/75 80/20/80 79/19/79 
f 77/17/77 76/16/76 81/21/81 82/22/82 
f 76/16/76 78/18/78 83/23/83 81/21/81 
f 78/18/78 79/19/79 84/24/84 83/23/83 
f 79/19/79 80/20/80 85/25/85 84/24/84 
f 86/26/86 87/27/87 88/28/88 89/29/89 
f 90/30/90 91/31/91 87/27/87 86/26/86 
f 92/32/92 93/33/93 91/31/91 90/30/90 
f 94/34/94 95/35/95 93/33/93 92/32/92 
f 96/36/96 86/26/86 89/29/89 97/37/97 
f 98/38/98 90/30/90 86/26/86 96/36/96 
f 99/39/99 92/32/92 90/30/90 98/38/98 
f 100/40/100 94/34/94 92/32/92 99/39/99 
f 101/41/101 96/36/96 97/37/97 102/42/102 
f 103/43/103 98/38/98 96/36/96 101/41/101 
f 104/44/104 99/39/99 98/38/98 103/43/103 
f 105/45/105 100/40/100 99/39/99 104/44/104 
f 106/46/106 101/41/101 102/42/102 107/47/107 
f 108/48/108 103/43/103 101/41/101 106/46/106 
f 109/49/109 104/44/104 103/43/103 108/48/108 
f 110/50/110 105/45/105 104/44/104 109/49/109 
s 4
f 61/1/61 64/4/64 89/51/89 88/52/88 
f 70/10/70 69/9/69 95/53/95 94/54/94 
f 64/4/64 72/12/72 97/55/97 89/51/89 
f 75/15/75 70/10/70 94/54/94 100/56/100 
f 72/12/72 77/17/77 102/57/102 97/55/97 
f 80/20/80 75/15/75 100/56/100 105/58/105 
s 2
f 111/59/111 112/60/112 113/61/113 114/62/114 
s 4
f 77/17/77 82/22/82 107/63/107 102/57/102 
s 2
f 112/60/112 115/64/115 116/65/116 113/61/113 
f 115/64/115 117/66/117 118/67/118 116/65/116 
s 4
f 85/25/85 80/20/80 105/58/105 110/68/110 
s 2
f 117/66/117 119/69/119 120/70/120 118/67/118 
s off
f 82/22/82 81/21/81 112/71/112 111/72/111 
f 81/21/81 83/23/83 115/73/115 112/71/112 
f 83/23/83 84/24/84 117/74/117 115/73/115 
f 84/24/84 85/25/85 119/75/119 117/74/117 
f 85/25/85 110/68/110 120/76/120 119/75/119 
f 110/50/110 109/49/109 118/67/118 120/70/120 
f 109/49/109 108/48/108 116/65/116 118/67/118 
f 108/48/108 106/46/106 113/61/113 116/65/116 
f 106/46/106 107/47/107 114/62/114 113/61/113 
f 107/63/107 82/22/82 111/72/111 114/77/114 
s 1
f 121/1/121 122/2/122 123/3/123 124/4/124 
f 122/2/122 125/5/125 126/6/126 123/3/123 
f 125/5/125 127/7/127 128/8/128 126/6/126 
f 127/7/127 129/9/129 130/10/130 128/8/128 
f 124/4/124 123/3/123 131/11/131 132/12/132 
f 123/3/123 126/6/126 133/13/133 131/11/131 
f 126/6/126 128/8/128 134/14/134 133/13/133 
f 128/8/128 130/10/130 135/15/135 134/14/134 
f 132/12/132 131/11/131 136/16/136 137/17/137 
f 131/11/131 133/13/133 138/18/138 136/16/136 
f 133/13/133 134/14/134 139/19/139 138/18/138 
f 134/14/134 135/15/135 140/20/140 139/19/139 
f 137/17/137 136/16/136 141/21/141 142/22/142 
f 136/16/136 138/18/138 143/23/143 141/21/141 
f 138/18/138 139/19/139 144/24/144 143/23/143 
f 139/19/139 140/20/140 145/25/145 144/24/144 
f 146/26/146 147/27/147 148/28/148 149/29/149 
f 150/30/150 151/31/151 147/27/147 146/26/146 
f 152/32/152 153/33/153 151/31/151 150/30/150 
f 154/34/154 155/35/155 153/33/153 152/32/152 
f 156/36/156 146/26/146 149/29/149 157/37/157 
f 158/38/158 150/30/150 146/26/146 156/36/156 
f 159/39/159 152/32/152 150/30/150 158/38/158 
f 160/40/160 154/34/154 152/32/152 159/39/159 
f 161/41/161 156/36/156 157/37/157 162/42/162 
f 163/43/163 158/38/158 156/36/156 161/41/161 
f 164/44/164 159/39/159 158/38/158 163/43/163 
f 165/45/165 160/40/160 159/39/159 164/44/164 
f 166/46/166 161/41/161 162/42/162 167/47/167 
f 168/48/168 163/43/163 161/41/161 166/46/166 
f 169/49/169 164/44/164 163/43/163 168/48/168 
f 170/50/170 165/45/165 164/44/164 169/49/169 
s 4
f 121/1/121 124/4/124 149/51/149 148/52/148 
f 130/10/130 129/9/129 155/53/155 154/54/154 
f 124/4/124 132/12/132 157/55/157 149/51/149 
f 135/15/135 130/10/130 154/54/154 160/56/160 
f 132/12/132 137/17/137 162/57/162 157/55/157 
f 140/20/140 135/15/135 160/56/160 165/58/165 
s 2
f 171/59/171 172/60/172 173/61/173 174/62/174 
s 4
f 137/17/137 142/22/142 167/63/167 162/57/162 
s 2
f 172/60/172 175/64/175 176/65/176 173/61/173 
f 175/64/175 177/66/177 178/67/178 176/65/176 
s 4
f 145/25/145 140/20/140 165/58/165 170/68/170 
s 2
f 177/66/177 179/69/179 180/70/180 178/67/178 
s off
f 142/22/142 141/21/141 172/71/172 171/72/171 
f 141/21/141 143/23/143 175/73/175 172/71/172 
f 143/23/143 144/24/144 177/74/177 175/73/175 
f 144/24/144 145/25/145 179/75/179 177/74/177 
f 145/25/145 170/68/170 180/76/180 179/75/179 
f 170/50/170 169/49/169 178/67/178 180/70/180 
f 169/49/169 168/48/168 176/65/176 178/67/178 
f 168/48/168 166/46/166 173/61/173 176/65/176 
f 166/46/166 167/47/167 174/62/174 173/61/173 
f 167/63/167 142/22/142 171/72/171 174/77/174 
# 162 polygons

