# 3ds Max Wavefront OBJ Exporter v0.99 - (c)2007 guruware
# File Created: 01.03.2021 03:15:13

mtllib mushroom_plane.mtl

#
# object mushroom_plane
#

v  -32.4338 -3.1030 -1.7811
v  -16.6632 -0.9833 3.5319
v  -19.5976 36.1050 -3.8037
v  -37.7353 36.3290 -11.6985
v  -0.0000 -0.2639 5.3351
v  -0.0000 36.0284 -1.1050
v  16.6632 -0.9833 3.5319
v  19.5976 36.1050 -3.8037
v  32.4338 -3.1030 -1.7811
v  37.7353 36.3290 -11.6985
v  -22.4978 73.4102 4.1377
v  -42.7731 77.7997 -5.2756
v  0.0000 71.8973 7.3823
v  22.4978 73.4102 4.1377
v  42.7731 77.7997 -5.2756
v  -25.3586 104.8791 26.3611
v  -47.5118 114.7188 17.6173
v  -0.0000 101.4550 29.4039
v  25.3586 104.8791 26.3611
v  47.5118 114.7188 17.6173
v  -28.1750 125.2633 59.5599
v  -51.9184 140.6525 54.4853
v  -0.0000 119.8498 61.3450
v  28.1750 125.2633 59.5599
v  51.9184 140.6525 54.4853
v  -17.9613 36.2490 -9.5744
v  -15.3070 -1.9914 -2.2252
v  -30.3270 -4.0781 -7.3138
v  -35.2804 36.5524 -17.1687
v  -0.0196 36.1757 -7.1032
v  -0.0193 -1.3343 -0.5686
v  17.9250 36.2463 -9.5641
v  15.2692 -2.0726 -2.2013
v  35.3811 36.5162 -17.2141
v  30.4171 -4.2248 -7.3196
v  -20.6152 75.7977 -1.0349
v  -39.9750 80.0889 -10.0641
v  -0.0220 74.4103 1.9339
v  20.5749 75.7915 -1.0230
v  40.0825 80.0792 -10.1299
v  -23.2318 109.0567 22.6161
v  -44.3827 118.5678 14.2418
v  -0.0242 105.9221 25.3984
v  23.1880 109.0448 22.6280
v  44.4945 118.5943 14.1711
v  -25.8449 130.0181 56.7381
v  -48.5974 144.9178 51.8819
v  -0.0239 125.0361 58.3281
v  25.7895 130.0541 56.8475
v  48.6930 145.0348 51.9571
v  -51.8871 138.7617 71.3203
v  -28.1438 123.3726 76.3948
v  -25.8136 131.3074 68.2509
v  -48.5662 146.2071 63.3947
v  0.0313 117.9591 78.1800
v  0.0074 126.3253 69.8409
v  28.2063 123.3726 76.3948
v  25.8208 131.3434 68.3602
v  51.9497 138.7617 71.3203
v  48.7243 146.3241 63.4699
# 60 vertices

vn -0.8880 -0.0037 0.4599
vn -0.2231 0.1721 0.9595
vn -0.2751 -0.0281 0.9610
vn -0.9533 -0.1206 0.2768
vn 0.0000 0.1747 0.9846
vn 0.0000 -0.0284 0.9996
vn 0.2231 0.1721 0.9595
vn 0.2751 -0.0281 0.9610
vn 0.8870 -0.0031 0.4618
vn 0.9505 -0.1194 0.2869
vn -0.3166 -0.4018 0.8592
vn -0.9701 -0.1889 0.1524
vn -0.0000 -0.4226 0.9063
vn 0.3166 -0.4018 0.8592
vn 0.9677 -0.1922 0.1632
vn -0.3577 -0.6989 0.6193
vn -0.9827 -0.1829 0.0279
vn 0.0000 -0.7475 0.6643
vn 0.3577 -0.6989 0.6193
vn 0.9809 -0.1908 0.0370
vn -0.4059 -0.8961 0.1796
vn -0.9998 -0.0178 -0.0005
vn -0.0001 -0.9799 0.1993
vn 0.4056 -0.8964 0.1789
vn 0.9995 -0.0329 -0.0034
vn 0.2766 0.0292 -0.9605
vn 0.2250 -0.1688 -0.9596
vn -0.4024 -0.2618 -0.8772
vn -0.3295 -0.0624 -0.9421
vn 0.0003 0.0298 -0.9996
vn 0.0001 -0.1716 -0.9852
vn -0.2762 0.0293 -0.9607
vn -0.2248 -0.1688 -0.9597
vn 0.3376 -0.0638 -0.9391
vn 0.4055 -0.2621 -0.8757
vn 0.3182 0.4012 -0.8589
vn -0.2739 0.3243 -0.9054
vn 0.0003 0.4224 -0.9064
vn -0.3178 0.4014 -0.8590
vn 0.2830 0.3219 -0.9035
vn 0.3592 0.6973 -0.6202
vn -0.2171 0.6657 -0.7139
vn 0.0004 0.7462 -0.6657
vn -0.3588 0.6976 -0.6202
vn 0.2272 0.6633 -0.7131
vn 0.4049 0.8688 -0.2851
vn -0.1888 0.9128 -0.3621
vn 0.0002 0.9495 -0.3139
vn -0.4044 0.8694 -0.2838
vn 0.1967 0.9118 -0.3605
vn -0.6870 -0.0295 0.7260
vn -0.2712 -0.4378 0.8572
vn 0.3069 0.8764 0.3712
vn -0.2377 0.9465 0.2182
vn 0.0002 -0.5019 0.8649
vn -0.0016 0.9314 0.3641
vn 0.2728 -0.4417 0.8547
vn -0.3063 0.8738 0.3777
vn 0.6881 -0.0357 0.7247
vn 0.2481 0.9432 0.2212
# 60 vertex normals

vt 0.3465 0.7126 0.0000
vt 0.2943 0.6970 0.0000
vt 0.3180 0.5663 0.0000
vt 0.3863 0.5771 0.0000
vt 0.2450 0.6897 0.0000
vt 0.2484 0.5601 0.0000
vt 0.1953 0.6934 0.0000
vt 0.1788 0.5614 0.0000
vt 0.1422 0.7053 0.0000
vt 0.1101 0.5675 0.0000
vt 0.3364 0.4310 0.0000
vt 0.4164 0.4368 0.0000
vt 0.2543 0.4268 0.0000
vt 0.1720 0.4249 0.0000
vt 0.0916 0.4249 0.0000
vt 0.3534 0.2930 0.0000
vt 0.4452 0.2920 0.0000
vt 0.2592 0.2919 0.0000
vt 0.1651 0.2861 0.0000
vt 0.0737 0.2783 0.0000
vt 0.3655 0.1548 0.0000
vt 0.4657 0.1385 0.0000
vt 0.2641 0.1602 0.0000
vt 0.1633 0.1473 0.0000
vt 0.0645 0.1236 0.0000
vt 0.6984 0.5453 0.0000
vt 0.7130 0.6804 0.0000
vt 0.6603 0.6891 0.0000
vt 0.6326 0.5489 0.0000
vt 0.7617 0.5431 0.0000
vt 0.7617 0.6769 0.0000
vt 0.8251 0.5450 0.0000
vt 0.8104 0.6805 0.0000
vt 0.8914 0.5485 0.0000
vt 0.8636 0.6893 0.0000
vt 0.6877 0.4032 0.0000
vt 0.6120 0.4050 0.0000
vt 0.7613 0.4020 0.0000
vt 0.8348 0.4028 0.0000
vt 0.9111 0.4041 0.0000
vt 0.6763 0.2593 0.0000
vt 0.5901 0.2594 0.0000
vt 0.7606 0.2594 0.0000
vt 0.8450 0.2586 0.0000
vt 0.9319 0.2581 0.0000
vt 0.6657 0.1180 0.0000
vt 0.5689 0.1100 0.0000
vt 0.7600 0.1224 0.0000
vt 0.8543 0.1168 0.0000
vt 0.9515 0.1079 0.0000
vt 0.4062 0.5834 0.0000
vt 0.3654 0.7202 0.0000
vt 0.1229 0.7120 0.0000
vt 0.0897 0.5725 0.0000
vt 0.4368 0.4408 0.0000
vt 0.0711 0.4275 0.0000
vt 0.4661 0.2936 0.0000
vt 0.0528 0.2785 0.0000
vt 0.5771 0.0390 0.0000
vt 0.6719 0.0366 0.0000
vt 0.6675 0.0766 0.0000
vt 0.5711 0.0757 0.0000
vt 0.4866 0.1402 0.0000
vt 0.7597 0.0393 0.0000
vt 0.7599 0.0800 0.0000
vt 0.8476 0.0356 0.0000
vt 0.8522 0.0754 0.0000
vt 0.0435 0.1234 0.0000
vt 0.9424 0.0369 0.0000
vt 0.9492 0.0735 0.0000
vt 0.3529 0.0974 0.0000
vt 0.4458 0.0841 0.0000
vt 0.2661 0.1016 0.0000
vt 0.1799 0.0909 0.0000
vt 0.0883 0.0708 0.0000
vt 0.0532 0.0860 0.0000
vt 0.4797 0.1021 0.0000
# 77 texture coords

o mushroom_plane
g mushroom_plane
usemtl wire_213154229
s 1
f 1/1/1 2/2/2 3/3/3 4/4/4 
f 2/2/2 5/5/5 6/6/6 3/3/3 
f 5/5/5 7/7/7 8/8/8 6/6/6 
f 7/7/7 9/9/9 10/10/10 8/8/8 
f 4/4/4 3/3/3 11/11/11 12/12/12 
f 3/3/3 6/6/6 13/13/13 11/11/11 
f 6/6/6 8/8/8 14/14/14 13/13/13 
f 8/8/8 10/10/10 15/15/15 14/14/14 
f 12/12/12 11/11/11 16/16/16 17/17/17 
f 11/11/11 13/13/13 18/18/18 16/16/16 
f 13/13/13 14/14/14 19/19/19 18/18/18 
f 14/14/14 15/15/15 20/20/20 19/19/19 
f 17/17/17 16/16/16 21/21/21 22/22/22 
f 16/16/16 18/18/18 23/23/23 21/21/21 
f 18/18/18 19/19/19 24/24/24 23/23/23 
f 19/19/19 20/20/20 25/25/25 24/24/24 
f 26/26/26 27/27/27 28/28/28 29/29/29 
f 30/30/30 31/31/31 27/27/27 26/26/26 
f 32/32/32 33/33/33 31/31/31 30/30/30 
f 34/34/34 35/35/35 33/33/33 32/32/32 
f 36/36/36 26/26/26 29/29/29 37/37/37 
f 38/38/38 30/30/30 26/26/26 36/36/36 
f 39/39/39 32/32/32 30/30/30 38/38/38 
f 40/40/40 34/34/34 32/32/32 39/39/39 
f 41/41/41 36/36/36 37/37/37 42/42/42 
f 43/43/43 38/38/38 36/36/36 41/41/41 
f 44/44/44 39/39/39 38/38/38 43/43/43 
f 45/45/45 40/40/40 39/39/39 44/44/44 
f 46/46/46 41/41/41 42/42/42 47/47/47 
f 48/48/48 43/43/43 41/41/41 46/46/46 
f 49/49/49 44/44/44 43/43/43 48/48/48 
f 50/50/50 45/45/45 44/44/44 49/49/49 
s 4
f 1/1/1 4/4/4 29/51/29 28/52/28 
f 10/10/10 9/9/9 35/53/35 34/54/34 
f 4/4/4 12/12/12 37/55/37 29/51/29 
f 15/15/15 10/10/10 34/54/34 40/56/40 
f 12/12/12 17/17/17 42/57/42 37/55/37 
f 20/20/20 15/15/15 40/56/40 45/58/45 
s 2
f 51/59/51 52/60/52 53/61/53 54/62/54 
s 4
f 17/17/17 22/22/22 47/63/47 42/57/42 
s 2
f 52/60/52 55/64/55 56/65/56 53/61/53 
f 55/64/55 57/66/57 58/67/58 56/65/56 
s 4
f 25/25/25 20/20/20 45/58/45 50/68/50 
s 2
f 57/66/57 59/69/59 60/70/60 58/67/58 
s off
f 22/22/22 21/21/21 52/71/52 51/72/51 
f 21/21/21 23/23/23 55/73/55 52/71/52 
f 23/23/23 24/24/24 57/74/57 55/73/55 
f 24/24/24 25/25/25 59/75/59 57/74/57 
f 25/25/25 50/68/50 60/76/60 59/75/59 
f 50/50/50 49/49/49 58/67/58 60/70/60 
f 49/49/49 48/48/48 56/65/56 58/67/58 
f 48/48/48 46/46/46 53/61/53 56/65/56 
f 46/46/46 47/47/47 54/62/54 53/61/53 
f 47/63/47 22/22/22 51/72/51 54/77/54 
# 54 polygons

