# 3ds Max Wavefront OBJ Exporter v0.99 - (c)2007 guruware
# File Created: 01.03.2021 02:36:23

mtllib mushroom_bulb.mtl

#
# object mushroom_bulb
#

v  6.4246 0.0000 -0.6302
v  3.2193 0.0000 -5.0420
v  1.9347 25.8501 -6.3644
v  6.4456 26.0292 -1.9035
v  -1.9670 0.0000 -3.3568
v  -3.6954 25.7083 -3.4550
v  -1.9670 0.0000 2.0964
v  -2.6806 25.8069 2.8059
v  3.2193 0.0000 3.7815
v  3.5909 26.0109 3.7734
v  4.7991 52.1816 -3.1078
v  -0.9230 51.8462 -7.1647
v  -5.1756 78.2069 -6.6286
v  1.5445 78.6522 -3.3658
v  -6.5349 51.6146 -2.9839
v  -10.3388 77.9407 -1.2717
v  -4.3108 51.8214 3.6712
v  -6.8445 78.2442 5.3358
v  2.7059 52.1833 3.6075
v  0.5205 78.7009 4.0533
v  -2.7508 105.6570 -1.8747
v  -10.1570 105.1645 -4.0388
v  -14.7322 132.9227 0.9427
v  -7.0306 133.3918 1.8104
v  -14.5138 104.9128 2.2766
v  -18.0281 132.7206 7.9085
v  -9.8289 105.2815 8.3996
v  -12.3747 133.1058 13.1543
v  -2.5313 105.7628 5.8395
v  -5.5469 133.5453 9.3814
v  -9.9099 161.9637 7.4582
v  -17.4598 161.5855 7.9548
v  -16.9627 191.0656 15.6673
v  -10.0369 191.3017 13.8939
v  -19.5606 161.4495 15.2076
v  -17.8579 190.9907 22.8202
v  -13.2932 161.7930 19.2734
v  -11.4383 191.2361 25.5391
v  -7.2994 162.1376 14.4687
v  -6.5813 191.4563 19.9959
v  -6.5686 218.8082 16.8665
v  -12.4654 218.5657 19.3368
v  -5.7484 244.2578 16.0983
v  -1.1232 244.1784 13.1952
v  -12.2613 218.3529 25.6557
v  -4.6727 244.3588 21.4598
v  -6.1660 218.4716 27.1323
v  0.6729 244.3445 21.8792
v  -2.6383 218.7492 21.6518
v  2.8611 244.2295 16.7383
v  -17.2796 145.6070 2.0566
v  -17.3638 149.5180 3.3557
v  -7.6154 150.0858 3.4172
v  -6.6697 146.2002 2.5104
v  -20.6585 144.8354 11.6880
v  -21.0710 148.8290 12.5551
v  -12.8819 145.0596 17.6637
v  -12.8685 148.9282 19.0260
v  -4.4336 145.8057 12.4860
v  -4.3894 149.8663 12.7980
v  0.6092 269.2033 6.9050
v  3.8132 268.8786 4.1009
v  2.1887 269.5277 10.8931
v  6.3954 269.4030 10.5483
v  7.3911 269.0000 6.3363
v  -20.1106 150.2247 -0.6645
v  -21.4619 157.4648 1.1331
v  -5.3224 158.5099 0.6913
v  -4.8880 151.1933 -0.7439
v  -3.3505 147.2421 -1.0817
v  -3.0516 140.8737 -2.3620
v  -19.1161 140.0119 -3.5547
v  -20.2284 146.3358 -2.0385
v  -26.5499 148.2058 13.7951
v  -26.1222 155.4386 16.1950
v  -25.4968 138.0023 10.9777
v  -25.1529 144.2453 13.1383
v  -12.8119 147.9375 23.6725
v  -12.9726 155.2938 25.1849
v  -13.1189 137.5493 21.4000
v  -13.1807 143.9832 22.6835
v  0.8692 149.9723 14.0677
v  -0.1233 157.0469 15.7431
v  0.8091 139.5324 13.2232
v  -0.0685 145.6787 14.6205
v  -4.7817 276.4490 3.4573
v  3.9090 275.5682 -4.1487
v  -0.4973 277.3288 14.2749
v  10.9132 276.9906 13.3395
v  13.6140 275.8973 1.9148
v  -25.5793 284.3583 -3.7058
v  2.8186 281.4801 -28.5594
v  -11.5797 287.2330 31.6420
v  25.7055 286.1281 28.5856
v  34.5307 282.5555 -8.7462
v  -39.4734 310.1927 -9.9149
v  2.3873 305.9499 -46.5509
v  -18.8369 314.4302 42.1905
v  36.1243 312.8015 37.6852
v  49.1333 307.5352 -17.3447
v  -32.6341 338.6321 -11.0210
v  3.6152 334.9580 -42.7459
v  -14.7639 342.3015 34.0998
v  32.8298 340.8911 30.1984
v  44.0950 336.3308 -17.4548
v  -11.9248 352.3571 -7.3787
v  5.4727 350.5938 -22.6047
v  -3.3482 354.1182 14.2765
v  19.4939 353.4413 12.4041
v  24.9005 351.2526 -10.4665
v  6.1701 352.3744 -2.7016
# 111 vertices

vn 0.9998 0.0001 0.0183
vn 0.3316 -0.0318 -0.9429
vn 0.1623 -0.0268 -0.9864
vn 0.9868 0.0231 -0.1606
vn -0.7994 -0.0560 -0.5981
vn -0.8869 -0.0750 -0.4558
vn -0.8098 -0.0385 0.5855
vn -0.6998 -0.0535 0.7124
vn 0.3041 -0.0040 0.9526
vn 0.4647 0.0075 0.8855
vn 0.9428 0.0780 -0.3240
vn -0.0025 -0.0049 -1.0000
vn -0.1726 0.0275 -0.9846
vn 0.8684 0.1321 -0.4780
vn -0.9451 -0.1066 -0.3088
vn -0.9796 -0.1300 -0.1532
vn -0.5741 -0.0852 0.8143
vn -0.4321 -0.1243 0.8932
vn 0.6035 0.0311 0.7967
vn 0.7258 0.0430 0.6866
vn 0.7677 0.1773 -0.6158
vn -0.3415 0.0680 -0.9374
vn -0.4357 -0.3549 -0.8271
vn 0.6555 -0.2773 -0.7024
vn -0.9904 -0.1379 0.0082
vn -0.7766 -0.6147 0.1383
vn -0.2786 -0.1638 0.9463
vn -0.0593 -0.6804 0.7304
vn 0.8287 0.0385 0.5584
vn 0.7870 -0.5025 0.3579
vn 0.3221 0.7319 -0.6005
vn -0.4835 0.6910 -0.5374
vn -0.7644 0.1872 -0.6170
vn 0.3759 0.1325 -0.9171
vn -0.8297 0.4693 0.3022
vn -0.8588 0.0153 0.5121
vn 0.0188 0.3172 0.9482
vn 0.1915 -0.1479 0.9703
vn 0.8282 0.5139 0.2237
vn 0.9871 -0.1039 0.1215
vn 0.2315 -0.0606 -0.9709
vn -0.8505 0.1907 -0.4902
vn -0.9145 0.1582 -0.3725
vn 0.0723 -0.2701 -0.9601
vn -0.7368 0.1853 0.6502
vn -0.5944 0.3609 0.7187
vn 0.3476 -0.0045 0.9376
vn 0.5173 0.1463 0.8432
vn 0.9843 -0.1761 -0.0108
vn 0.9611 -0.2292 -0.1542
vn -0.2254 0.9487 -0.2218
vn -0.3597 -0.7249 -0.5875
vn 0.4376 -0.6777 -0.5910
vn 0.1521 0.9710 -0.1844
vn -0.5928 0.7865 0.1730
vn -0.3592 -0.9295 0.0837
vn -0.0961 0.6648 0.7409
vn 0.0671 -0.9698 0.2343
vn 0.4730 0.8412 0.2619
vn 0.4851 -0.8702 0.0861
vn -0.9227 -0.3227 -0.2109
vn -0.0707 -0.6253 -0.7772
vn -0.5110 -0.0439 0.8584
vn 0.6401 -0.2645 0.7213
vn 0.7707 -0.5780 -0.2683
vn -0.3845 -0.4985 -0.7770
vn -0.6032 0.4742 -0.6413
vn 0.4847 0.5682 -0.6649
vn 0.4911 -0.4358 -0.7543
vn 0.4790 0.7256 -0.4941
vn 0.6193 -0.1907 -0.7617
vn -0.4515 -0.2420 -0.8588
vn -0.5221 0.6610 -0.5389
vn -0.7759 -0.6264 0.0746
vn -0.8715 0.3003 0.3878
vn -0.9024 -0.4133 0.1217
vn -0.7800 0.5122 0.3596
vn 0.0283 -0.7373 0.6750
vn 0.0072 0.2165 0.9763
vn -0.0554 -0.5421 0.8385
vn -0.0654 0.4379 0.8966
vn 0.8277 -0.5454 0.1323
vn 0.8390 0.4182 0.3482
vn 0.8923 -0.3411 0.2957
vn 0.6842 0.5967 0.4192
vn -0.5093 -0.8596 -0.0415
vn -0.0584 -0.9280 -0.3681
vn -0.3029 -0.7945 0.5263
vn 0.3231 -0.8233 0.4668
vn 0.4172 -0.9037 -0.0964
vn -0.7045 -0.7023 -0.1017
vn -0.0746 -0.7765 -0.6257
vn -0.3916 -0.6381 0.6630
vn 0.4483 -0.6643 0.5982
vn 0.6331 -0.7485 -0.1973
vn -0.9658 -0.1336 -0.2222
vn -0.0831 -0.2287 -0.9699
vn -0.5247 -0.0457 0.8501
vn 0.6426 -0.0831 0.7617
vn 0.9108 -0.1958 -0.3634
vn -0.8239 0.5094 -0.2483
vn -0.0574 0.4361 -0.8980
vn -0.4390 0.5899 0.6777
vn 0.5729 0.5563 0.6019
vn 0.8071 0.4601 -0.3699
vn -0.3502 0.9205 -0.1733
vn -0.0124 0.8884 -0.4588
vn -0.1812 0.9556 0.2321
vn 0.2711 0.9419 0.1984
vn 0.3730 0.9003 -0.2241
vn 0.0223 0.9957 -0.0899
# 111 vertex normals

vt 0.6044 0.8471 0.0000
vt 0.6009 0.8701 0.0000
vt 0.4905 0.8615 0.0000
vt 0.4938 0.8346 0.0000
vt 0.5983 0.8933 0.0000
vt 0.4878 0.8886 0.0000
vt 0.5974 0.9165 0.0000
vt 0.4866 0.9159 0.0000
vt 0.5977 0.9397 0.0000
vt 0.4867 0.9432 0.0000
vt 0.5983 0.9630 0.0000
vt 0.4873 0.9703 0.0000
vt 0.3825 0.8258 0.0000
vt 0.3791 0.8555 0.0000
vt 0.2665 0.8515 0.0000
vt 0.2696 0.8200 0.0000
vt 0.3756 0.8852 0.0000
vt 0.2615 0.8827 0.0000
vt 0.3739 0.9153 0.0000
vt 0.2591 0.9145 0.0000
vt 0.3746 0.9455 0.0000
vt 0.2605 0.9465 0.0000
vt 0.3757 0.9755 0.0000
vt 0.2625 0.9783 0.0000
vt 0.1542 0.8167 0.0000
vt 0.1514 0.8492 0.0000
vt 0.0317 0.8478 0.0000
vt 0.0348 0.8149 0.0000
vt 0.1452 0.8807 0.0000
vt 0.0248 0.8797 0.0000
vt 0.1416 0.9131 0.0000
vt 0.0214 0.9117 0.0000
vt 0.1437 0.9461 0.0000
vt 0.0244 0.9443 0.0000
vt 0.1469 0.9786 0.0000
vt 0.0278 0.9764 0.0000
vt 0.4517 0.7467 0.0000
vt 0.4495 0.7158 0.0000
vt 0.5714 0.7135 0.0000
vt 0.5741 0.7417 0.0000
vt 0.4558 0.6856 0.0000
vt 0.5758 0.6864 0.0000
vt 0.4632 0.6551 0.0000
vt 0.5821 0.6604 0.0000
vt 0.4633 0.6242 0.0000
vt 0.5838 0.6310 0.0000
vt 0.4587 0.5940 0.0000
vt 0.5810 0.6029 0.0000
vt 0.6862 0.7359 0.0000
vt 0.6802 0.7117 0.0000
vt 0.7859 0.7110 0.0000
vt 0.7918 0.7323 0.0000
vt 0.6795 0.6871 0.0000
vt 0.7829 0.6902 0.0000
vt 0.6857 0.6644 0.0000
vt 0.7884 0.6701 0.0000
vt 0.6925 0.6404 0.0000
vt 0.7969 0.6499 0.0000
vt 0.6933 0.6160 0.0000
vt 0.7987 0.6281 0.0000
vt 0.8599 0.8931 0.0000
vt 0.8595 0.8743 0.0000
vt 0.9076 0.8754 0.0000
vt 0.9109 0.8938 0.0000
vt 0.8040 0.8866 0.0000
vt 0.8040 0.8702 0.0000
vt 0.7473 0.8836 0.0000
vt 0.7463 0.8673 0.0000
vt 0.6913 0.8876 0.0000
vt 0.6895 0.8691 0.0000
vt 0.6415 0.8926 0.0000
vt 0.6414 0.8744 0.0000
vt 0.9247 0.7249 0.0000
vt 0.9176 0.7456 0.0000
vt 0.9326 0.7000 0.0000
vt 0.9336 0.6737 0.0000
vt 0.9345 0.6488 0.0000
vt 0.9262 0.6282 0.0000
vt 0.8646 0.8570 0.0000
vt 0.8598 0.8272 0.0000
vt 0.9225 0.8117 0.0000
vt 0.9261 0.8531 0.0000
vt 0.9307 0.9159 0.0000
vt 0.9260 0.9535 0.0000
vt 0.8635 0.9365 0.0000
vt 0.8623 0.9108 0.0000
vt 0.8066 0.8528 0.0000
vt 0.8017 0.8229 0.0000
vt 0.8061 0.9276 0.0000
vt 0.8028 0.9011 0.0000
vt 0.7455 0.8513 0.0000
vt 0.7449 0.8199 0.0000
vt 0.7488 0.9252 0.0000
vt 0.7470 0.8991 0.0000
vt 0.6831 0.8510 0.0000
vt 0.6861 0.8229 0.0000
vt 0.6894 0.9290 0.0000
vt 0.6897 0.9041 0.0000
vt 0.6195 0.8538 0.0000
vt 0.6230 0.8117 0.0000
vt 0.6298 0.9530 0.0000
vt 0.6252 0.9161 0.0000
vt 0.8509 0.7931 0.0000
vt 0.8898 0.7828 0.0000
vt 0.6541 0.7810 0.0000
vt 0.6933 0.7888 0.0000
vt 0.7454 0.7867 0.0000
vt 0.7996 0.7896 0.0000
vt 0.8930 0.9860 0.0000
vt 0.8546 0.9732 0.0000
vt 0.8048 0.9649 0.0000
vt 0.7512 0.9614 0.0000
vt 0.7002 0.9656 0.0000
vt 0.6646 0.9831 0.0000
vt 0.9689 0.7487 0.0000
vt 0.9365 0.7892 0.0000
vt 0.9783 0.7111 0.0000
vt 0.9841 0.6773 0.0000
vt 0.9858 0.6309 0.0000
vt 0.9545 0.5849 0.0000
vt 0.6818 0.5797 0.0000
vt 0.6122 0.5257 0.0000
vt 0.6457 0.3919 0.0000
vt 0.8691 0.4619 0.0000
vt 0.5415 0.4969 0.0000
vt 0.5335 0.3933 0.0000
vt 0.4774 0.5354 0.0000
vt 0.4426 0.4126 0.0000
vt 0.4099 0.5914 0.0000
vt 0.3247 0.4556 0.0000
vt 0.3570 0.6711 0.0000
vt 0.1243 0.6002 0.0000
vt 0.6460 0.2968 0.0000
vt 0.9178 0.2286 0.0000
vt 0.5210 0.3267 0.0000
vt 0.4267 0.3460 0.0000
vt 0.2933 0.3562 0.0000
vt 0.0080 0.3778 0.0000
vt 0.6090 0.2197 0.0000
vt 0.7982 0.0394 0.0000
vt 0.5069 0.2717 0.0000
vt 0.4169 0.2876 0.0000
vt 0.3047 0.2725 0.0000
vt 0.0706 0.1590 0.0000
vt 0.5498 0.1612 0.0000
vt 0.5907 0.0107 0.0000
vt 0.4844 0.2072 0.0000
vt 0.4200 0.2226 0.0000
vt 0.3428 0.2014 0.0000
vt 0.2616 0.0711 0.0000
vt 0.4360 0.0996 0.0000
# 151 texture coords

o mushroom_bulb
g mushroom_bulb
usemtl wire_087225198
s 8
f 1/1/1 2/2/2 3/3/3 4/4/4 
f 2/2/2 5/5/5 6/6/6 3/3/3 
f 5/5/5 7/7/7 8/8/8 6/6/6 
f 7/7/7 9/9/9 10/10/10 8/8/8 
f 9/9/9 1/11/1 4/12/4 10/10/10 
f 11/13/11 12/14/12 13/15/13 14/16/14 
f 12/14/12 15/17/15 16/18/16 13/15/13 
f 15/17/15 17/19/17 18/20/18 16/18/16 
f 17/19/17 19/21/19 20/22/20 18/20/18 
f 19/21/19 11/23/11 14/24/14 20/22/20 
f 21/25/21 22/26/22 23/27/23 24/28/24 
f 22/26/22 25/29/25 26/30/26 23/27/23 
f 25/29/25 27/31/27 28/32/28 26/30/26 
f 27/31/27 29/33/29 30/34/30 28/32/28 
f 29/33/29 21/35/21 24/36/24 30/34/30 
f 31/37/31 32/38/32 33/39/33 34/40/34 
f 32/38/32 35/41/35 36/42/36 33/39/33 
f 35/41/35 37/43/37 38/44/38 36/42/36 
f 37/43/37 39/45/39 40/46/40 38/44/38 
f 39/45/39 31/47/31 34/48/34 40/46/40 
f 41/49/41 42/50/42 43/51/43 44/52/44 
f 42/50/42 45/53/45 46/54/46 43/51/43 
f 45/53/45 47/55/47 48/56/48 46/54/46 
f 47/55/47 49/57/49 50/58/50 48/56/48 
f 49/57/49 41/59/41 44/60/44 50/58/50 
f 3/3/3 12/14/12 11/13/11 4/4/4 
f 6/6/6 15/17/15 12/14/12 3/3/3 
f 8/8/8 17/19/17 15/17/15 6/6/6 
f 10/10/10 19/21/19 17/19/17 8/8/8 
f 4/12/4 11/23/11 19/21/19 10/10/10 
f 13/15/13 22/26/22 21/25/21 14/16/14 
f 16/18/16 25/29/25 22/26/22 13/15/13 
f 18/20/18 27/31/27 25/29/25 16/18/16 
f 20/22/20 29/33/29 27/31/27 18/20/18 
f 14/24/14 21/35/21 29/33/29 20/22/20 
f 51/61/51 52/62/52 53/63/53 54/64/54 
f 55/65/55 56/66/56 52/62/52 51/61/51 
f 57/67/57 58/68/58 56/66/56 55/65/55 
f 59/69/59 60/70/60 58/68/58 57/67/57 
f 54/71/54 53/72/53 60/70/60 59/69/59 
f 33/39/33 42/50/42 41/49/41 34/40/34 
f 36/42/36 45/53/45 42/50/42 33/39/33 
f 38/44/38 47/55/47 45/53/45 36/42/36 
f 40/46/40 49/57/49 47/55/47 38/44/38 
f 34/48/34 41/59/41 49/57/49 40/46/40 
f 43/51/43 61/73/61 62/74/62 44/52/44 
f 46/54/46 63/75/63 61/73/61 43/51/43 
f 48/56/48 64/76/64 63/75/63 46/54/46 
f 50/58/50 65/77/65 64/76/64 48/56/48 
f 44/60/44 62/78/62 65/77/65 50/58/50 
f 66/79/66 67/80/67 68/81/68 69/82/69 
f 70/83/70 71/84/71 72/85/72 73/86/73 
f 74/87/74 75/88/75 67/80/67 66/79/66 
f 73/86/73 72/85/72 76/89/76 77/90/77 
f 78/91/78 79/92/79 75/88/75 74/87/74 
f 77/90/77 76/89/76 80/93/80 81/94/81 
f 82/95/82 83/96/83 79/92/79 78/91/78 
f 81/94/81 80/93/80 84/97/84 85/98/85 
f 69/99/69 68/100/68 83/96/83 82/95/82 
f 85/98/85 84/97/84 71/101/71 70/102/70 
s off
f 32/103/32 31/104/31 68/81/68 67/80/67 
f 31/105/31 39/106/39 83/96/83 68/100/68 
f 39/106/39 37/107/37 79/92/79 83/96/83 
f 37/107/37 35/108/35 75/88/75 79/92/79 
f 35/108/35 32/103/32 67/80/67 75/88/75 
f 53/63/53 52/62/52 66/79/66 69/82/69 
f 52/62/52 56/66/56 74/87/74 66/79/66 
f 56/66/56 58/68/58 78/91/78 74/87/74 
f 58/68/58 60/70/60 82/95/82 78/91/78 
f 60/70/60 53/72/53 69/99/69 82/95/82 
f 24/109/24 23/110/23 72/85/72 71/84/71 
f 23/110/23 26/111/26 76/89/76 72/85/72 
f 26/111/26 28/112/28 80/93/80 76/89/76 
f 28/112/28 30/113/30 84/97/84 80/93/80 
f 30/113/30 24/114/24 71/101/71 84/97/84 
f 51/61/51 54/64/54 70/83/70 73/86/73 
f 54/71/54 59/69/59 85/98/85 70/102/70 
f 59/69/59 57/67/57 81/94/81 85/98/85 
f 57/67/57 55/65/55 77/90/77 81/94/81 
f 55/65/55 51/61/51 73/86/73 77/90/77 
f 62/74/62 61/73/61 86/115/86 87/116/87 
f 61/73/61 63/75/63 88/117/88 86/115/86 
f 63/75/63 64/76/64 89/118/89 88/117/88 
f 64/76/64 65/77/65 90/119/90 89/118/89 
f 65/77/65 62/78/62 87/120/87 90/119/90 
f 87/121/87 86/122/86 91/123/91 92/124/92 
f 86/122/86 88/125/88 93/126/93 91/123/91 
f 88/125/88 89/127/89 94/128/94 93/126/93 
f 89/127/89 90/129/90 95/130/95 94/128/94 
f 90/129/90 87/131/87 92/132/92 95/130/95 
f 92/124/92 91/123/91 96/133/96 97/134/97 
f 91/123/91 93/126/93 98/135/98 96/133/96 
f 93/126/93 94/128/94 99/136/99 98/135/98 
f 94/128/94 95/130/95 100/137/100 99/136/99 
f 95/130/95 92/132/92 97/138/97 100/137/100 
f 97/134/97 96/133/96 101/139/101 102/140/102 
f 96/133/96 98/135/98 103/141/103 101/139/101 
f 98/135/98 99/136/99 104/142/104 103/141/103 
f 99/136/99 100/137/100 105/143/105 104/142/104 
f 100/137/100 97/138/97 102/144/102 105/143/105 
f 102/140/102 101/139/101 106/145/106 107/146/107 
f 101/139/101 103/141/103 108/147/108 106/145/106 
f 103/141/103 104/142/104 109/148/109 108/147/108 
f 104/142/104 105/143/105 110/149/110 109/148/109 
f 105/143/105 102/144/102 107/150/107 110/149/110 
f 106/145/106 108/147/108 111/151/111 
f 108/147/108 109/148/109 111/151/111 
f 109/148/109 110/149/110 111/151/111 
f 110/149/110 107/150/107 111/151/111 
f 107/146/107 106/145/106 111/151/111 
# 105 polygons - 5 triangles

#
# object ground_grass
#

v  3.4352 -0.5606 -5.7216
v  5.2834 -1.9605 9.5135
v  13.8429 7.6839 9.3613
v  11.9947 9.0838 -5.8738
v  22.4023 17.3284 9.2092
v  20.5542 18.7283 -6.0260
v  1.5870 0.8393 -20.9567
v  10.1465 10.4837 -21.1089
v  18.7060 20.1282 -21.2611
v  -1.2052 3.6486 -3.5703
v  7.9296 4.3931 8.8186
v  17.1837 9.8283 1.6686
v  8.0490 9.0838 -10.7204
v  26.4379 15.2635 -5.4814
v  17.3031 14.5191 -17.8704
v  -10.3400 2.9042 -15.9593
v  -1.0858 8.3394 -23.1093
v  8.1684 13.7746 -30.2593
v  1.8851 3.6486 -4.2346
v  -3.0238 4.3931 10.3541
v  8.1411 9.8283 13.8336
v  13.0500 9.0838 -0.7551
v  19.3060 15.2635 17.3131
v  24.2149 14.5191 2.7244
v  6.7940 2.9042 -18.8234
v  17.9589 8.3394 -15.3439
v  29.1238 13.7746 -11.8644
v  -1.5342 -0.5606 -5.6930
v  12.0058 -1.9605 1.5315
v  16.7906 7.6839 -5.5673
v  3.2507 9.0838 -12.7918
v  21.5755 17.3284 -12.6661
v  8.0355 18.7283 -19.8906
v  -15.0741 0.8393 -12.9176
v  -10.2893 10.4837 -20.0164
v  -5.5044 20.1282 -27.1152
v  -2.1951 -0.8666 -4.5136
v  11.3448 -2.2665 2.7109
v  14.5153 9.6968 -0.9129
v  0.9753 11.0967 -8.1374
v  17.6857 21.6601 -4.5367
v  4.1458 23.0600 -11.7612
v  -15.7351 0.5333 -11.7381
v  -12.5646 12.4966 -15.3619
v  -9.3942 24.4599 -18.9858
v  -0.1565 -0.5606 4.3259
v  -5.8848 -1.9605 -9.9117
v  -14.1132 7.6839 -7.5494
v  -8.3849 9.0838 6.6882
v  -22.3417 17.3284 -5.1871
v  -16.6133 18.7283 9.0506
v  5.5719 0.8393 18.5635
v  -2.6566 10.4837 20.9259
v  -10.8850 20.1282 23.2882
v  1.1080 -0.8666 3.8473
v  -4.6204 -2.2665 -10.3904
v  -9.3784 9.6968 -9.6523
v  -3.6501 11.0967 4.5853
v  -14.1365 21.6601 -8.9142
v  -8.4081 23.0600 5.3234
v  6.8363 0.5333 18.0849
v  2.0783 12.4966 18.8230
v  -2.6798 24.4599 19.5610
v  0.6578 3.6486 2.4734
v  2.9588 4.3931 -12.7461
v  -8.6407 9.8283 -14.2340
v  -10.9418 9.0838 0.9856
v  -20.2403 15.2635 -15.7218
v  -22.5413 14.5191 -0.5022
v  -1.6433 2.9042 17.6930
v  -13.2428 8.3394 16.2052
v  -24.8423 13.7746 14.7173
v  -3.9816 -0.5606 1.1536
v  4.3955 -1.9605 -11.7052
v  -2.2592 7.6839 -17.0906
v  -10.6364 9.0838 -4.2318
v  -8.9139 17.3284 -22.4759
v  -17.2911 18.7283 -9.6172
v  -12.3588 0.8393 14.0123
v  -19.0135 10.4837 8.6269
v  -25.6683 20.1282 3.2416
v  -3.5770 -0.5606 -3.7994
v  11.7612 -1.9605 -4.3127
v  12.3557 7.6839 -12.8529
v  -2.9826 9.0838 -12.3396
v  12.9501 17.3284 -21.3930
v  -2.3881 18.7283 -20.8797
v  -18.9152 0.8393 -3.2861
v  -18.3208 10.4837 -11.8262
v  -17.7263 20.1282 -20.3664
v  -2.7696 3.1361 -0.0145
v  10.6280 5.5146 -7.2485
v  4.3552 6.8034 -18.4421
v  -9.0424 4.4249 -11.2080
v  -1.9176 8.0922 -29.6356
v  -15.3152 5.7137 -22.4015
v  -16.1672 0.7576 7.2196
v  -22.4400 2.0464 -3.9739
v  -28.7128 3.3352 -15.1674
v  7.0428 -2.2953 -1.7588
v  -4.1038 -4.5011 8.6514
v  -3.6362 7.9958 11.8001
v  7.5104 10.2016 1.3899
v  -3.1686 20.4926 14.9488
v  7.9780 22.6984 4.5386
v  18.1894 -0.0894 -12.1690
v  18.6570 12.4074 -9.0203
v  19.1246 24.9043 -5.8716
v  7.8622 -1.7724 -0.7706
v  -3.2844 -3.9782 9.6396
v  0.1965 6.8780 15.6671
v  11.3431 9.0838 5.2569
v  3.6774 17.7342 21.6945
v  14.8240 19.9401 11.2843
v  19.0088 0.4335 -11.1807
v  22.4897 11.2897 -5.1533
v  25.9706 22.1459 0.8742
v  4.7925 -1.7724 4.7989
v  -10.1284 -3.9782 1.6391
v  -13.0693 6.8780 7.9477
v  1.8517 9.0838 11.1074
v  -16.0101 17.7342 14.2563
v  -1.0892 19.9401 17.4160
v  19.7135 0.4335 7.9586
v  16.7726 11.2897 14.2672
v  13.8317 22.1459 20.5757
# 126 vertices

vn -0.7383 0.6576 0.1500
vn -0.3656 0.9056 0.2152
vn -0.3860 0.9056 -0.1761
vn -0.3006 0.6576 0.6908
vn -0.4094 0.3622 0.8374
vn 0.6743 0.6576 -0.3360
vn 0.8519 0.3622 -0.3784
vn 0.4107 0.9056 0.1064
vn 0.6620 0.6576 0.3597
vn 0.0851 0.6576 0.7486
vn -0.0871 0.9829 0.1620
vn -0.6896 0.2011 -0.6957
vn -0.6356 0.5204 -0.5703
vn 0.1026 0.5204 -0.8477
# 14 vertex normals

vt 0.2632 0.4397 0.0000
vt 0.2632 0.3829 0.0000
vt 0.3108 0.3829 0.0000
vt 0.3108 0.4397 0.0000
vt 0.3584 0.3829 0.0000
vt 0.3584 0.4397 0.0000
vt 0.2632 0.4966 0.0000
vt 0.3108 0.4966 0.0000
vt 0.3584 0.4966 0.0000
# 9 texture coords

o ground_grass
g ground_grass
usemtl wire_087225198
s 1
f 112/152/112 113/153/112 114/154/112 115/155/112 
f 115/155/112 114/154/112 116/156/112 117/157/112 
f 118/158/112 112/152/112 115/155/112 119/159/112 
f 119/159/112 115/155/112 117/157/112 120/160/112 
f 121/152/113 122/153/113 123/154/113 124/155/113 
f 124/155/113 123/154/113 125/156/113 126/157/113 
f 127/158/113 121/152/113 124/155/113 128/159/113 
f 128/159/113 124/155/113 126/157/113 129/160/113 
f 130/152/114 131/153/114 132/154/114 133/155/114 
f 133/155/114 132/154/114 134/156/114 135/157/114 
f 136/158/114 130/152/114 133/155/114 137/159/114 
f 137/159/114 133/155/114 135/157/114 138/160/114 
f 139/152/115 140/153/115 141/154/115 142/155/115 
f 142/155/115 141/154/115 143/156/115 144/157/115 
f 145/158/115 139/152/115 142/155/115 146/159/115 
f 146/159/115 142/155/115 144/157/115 147/160/115 
f 148/152/116 149/153/116 150/154/116 151/155/116 
f 151/155/116 150/154/116 152/156/116 153/157/116 
f 154/158/116 148/152/116 151/155/116 155/159/116 
f 155/159/116 151/155/116 153/157/116 156/160/116 
f 157/152/117 158/153/117 159/154/117 160/155/117 
f 160/155/117 159/154/117 161/156/117 162/157/117 
f 163/158/117 157/152/117 160/155/117 164/159/117 
f 164/159/117 160/155/117 162/157/117 165/160/117 
f 166/152/118 167/153/118 168/154/118 169/155/118 
f 169/155/118 168/154/118 170/156/118 171/157/118 
f 172/158/118 166/152/118 169/155/118 173/159/118 
f 173/159/118 169/155/118 171/157/118 174/160/118 
f 175/152/119 176/153/119 177/154/119 178/155/119 
f 178/155/119 177/154/119 179/156/119 180/157/119 
f 181/158/119 175/152/119 178/155/119 182/159/119 
f 182/159/119 178/155/119 180/157/119 183/160/119 
f 184/152/120 185/153/120 186/154/120 187/155/120 
f 187/155/120 186/154/120 188/156/120 189/157/120 
f 190/158/120 184/152/120 187/155/120 191/159/120 
f 191/159/120 187/155/120 189/157/120 192/160/120 
f 193/152/121 194/153/121 195/154/121 196/155/121 
f 196/155/121 195/154/121 197/156/121 198/157/121 
f 199/158/121 193/152/121 196/155/121 200/159/121 
f 200/159/121 196/155/121 198/157/121 201/160/121 
f 202/152/122 203/153/122 204/154/122 205/155/122 
f 205/155/122 204/154/122 206/156/122 207/157/122 
f 208/158/122 202/152/122 205/155/122 209/159/122 
f 209/159/122 205/155/122 207/157/122 210/160/122 
f 211/152/123 212/153/123 213/154/123 214/155/123 
f 214/155/123 213/154/123 215/156/123 216/157/123 
f 217/158/123 211/152/123 214/155/123 218/159/123 
f 218/159/123 214/155/123 216/157/123 219/160/123 
f 220/152/124 221/153/124 222/154/124 223/155/124 
f 223/155/124 222/154/124 224/156/124 225/157/124 
f 226/158/124 220/152/124 223/155/124 227/159/124 
f 227/159/124 223/155/124 225/157/124 228/160/124 
f 229/152/125 230/153/125 231/154/125 232/155/125 
f 232/155/125 231/154/125 233/156/125 234/157/125 
f 235/158/125 229/152/125 232/155/125 236/159/125 
f 236/159/125 232/155/125 234/157/125 237/160/125 
# 56 polygons

