# 3ds Max Wavefront OBJ Exporter v0.99 - (c)2007 guruware
# File Created: 04.03.2021 19:00:08

mtllib bushling_thornWhip.mtl

#
# object bushling_thornWhip
#

v  5.5817 -1.8932 -2.0843
v  3.8097 -1.8995 -4.5126
v  5.5578 0.3212 -5.8650
v  7.3469 0.3651 -3.4779
v  1.2660 0.0000 -3.8964
v  -3.3145 0.0000 -2.4081
v  -3.5496 7.6675 -2.3648
v  1.0090 6.2026 -3.8397
v  -11.9468 -1.9417 -1.4196
v  -11.9468 -1.9417 1.4196
v  -12.8579 0.1901 1.4096
v  -12.8579 0.1901 -1.4096
v  -3.3145 0.0000 2.4081
v  1.2660 0.0000 3.8964
v  1.0090 6.2026 3.8397
v  -3.5496 7.6675 2.3648
v  3.2752 0.0523 4.2768
v  5.0459 0.0598 1.8476
v  6.3343 2.7805 2.8947
v  4.5545 2.7275 5.2885
v  -4.1355 98.0462 -0.0000
v  -6.2663 98.5766 -2.9950
v  -0.7876 121.7793 -2.7828
v  1.0774 120.6731 -0.0000
v  -9.6993 99.4349 -1.8462
v  -3.7766 123.5690 -1.7098
v  -9.6993 99.4349 1.8462
v  -3.7766 123.5690 1.7098
v  -6.2663 98.5766 2.9950
v  -0.7876 121.7793 2.7828
v  0.5702 12.3891 -3.2219
v  -0.9733 24.9041 -2.8225
v  1.0660 25.1875 0.0000
v  2.9055 12.5551 0.0000
v  -3.2075 12.0748 -1.9930
v  -4.2627 24.3662 -1.7474
v  -3.2075 12.0748 1.9930
v  -4.2627 24.3662 1.7474
v  0.5702 12.3891 3.2219
v  -0.9733 24.9041 2.8225
v  -7.1441 38.2395 -1.8288
v  -9.2350 46.6811 -2.1154
v  -5.0753 45.4645 -3.4359
v  -3.7289 39.1009 -2.9511
v  -22.7789 40.9447 0.7894
v  -23.3009 42.8377 0.7765
v  -23.3009 42.8377 -0.7765
v  -22.7789 40.9447 -0.7894
v  -3.7289 39.1009 2.9511
v  -5.0753 45.4645 3.4359
v  -9.2350 46.6811 2.1154
v  -7.1441 38.2395 1.8288
v  -13.6939 44.9771 -1.3474
v  -13.6939 44.9771 1.3474
v  -12.7882 40.9368 -1.3698
v  -12.7882 40.9368 1.3698
v  -18.6206 44.8770 -1.3474
v  -18.6206 44.8770 1.3474
v  -17.7150 41.5920 -1.3698
v  -17.7150 41.5920 1.3698
v  -2.8661 48.3958 -0.0000
v  -1.8707 48.4625 -0.0000
v  -1.8176 46.5684 -2.2265
v  -1.8176 46.5684 2.2265
v  -0.9886 43.1217 2.2580
v  -1.6142 39.5954 -0.0000
v  0.6295 43.5001 -0.0000
v  -0.9886 43.1217 -2.2580
v  5.8549 139.1747 -2.1249
v  7.2790 138.3300 -0.0000
v  3.5725 140.5413 -1.3056
v  3.5725 140.5413 1.3056
v  5.8549 139.1747 2.1249
v  11.8366 149.7875 -1.2384
v  12.6665 149.2953 -0.0000
v  10.5065 150.5839 -0.7608
v  10.5065 150.5839 0.7608
v  11.8366 149.7875 1.2384
v  3.7955 6.3000 -0.0000
v  4.0970 0.0000 -0.0000
v  -7.3208 -0.8381 1.8474
v  -7.3208 -0.8381 -1.8474
v  -8.8634 2.7711 1.8304
v  -8.8634 2.7711 -1.8304
v  0.2942 48.7787 -0.0000
v  2.4004 49.0570 -1.2329
v  2.4004 49.0570 1.2329
v  2.8274 47.2821 1.2438
v  1.1413 44.3984 -0.0000
v  2.8274 47.2821 -1.2438
v  -8.5412 75.6481 -3.4764
v  -6.3171 75.8839 -0.0000
v  -12.7414 75.3773 -2.1404
v  -12.7414 75.3773 2.1404
v  -8.5412 75.6481 3.4764
v  2.4086 0.8729 0.0000
v  0.7443 0.8729 -2.2907
v  0.7443 0.8729 2.2907
v  -1.9486 0.8729 1.4157
v  -1.9486 0.8729 -1.4157
v  0.0000 0.9000 -0.0000
v  -14.1913 54.3003 2.7632
v  -9.6529 53.3579 0.4149
v  -9.0429 53.8030 2.2668
v  -9.2808 55.7502 1.8772
v  -9.8908 55.3051 0.0252
v  -10.4670 61.4406 -6.7753
v  -10.1399 62.2721 -1.6566
v  -8.3351 62.8850 -2.2622
v  -7.7295 60.9827 -2.3826
v  -9.5343 60.3698 -1.7770
v  -6.3031 65.2486 7.5338
v  -8.8627 65.0816 3.0148
v  -7.7683 63.4115 2.8993
v  -6.1659 64.4965 2.3942
v  -7.2603 66.1666 2.5097
v  -14.6126 73.7827 5.0454
v  -11.5079 73.4568 0.8916
v  -10.1963 73.9643 2.3136
v  -10.8019 75.8666 2.1932
v  -12.1135 75.3591 0.7711
v  -3.4684 72.7157 -4.0382
v  -7.5214 73.6133 -0.9129
v  -6.7372 71.9797 -0.0667
v  -7.5835 70.8425 -1.4776
v  -8.3677 72.4761 -2.3238
v  -16.2244 81.5694 0.0979
v  -11.3893 79.9500 1.0979
v  -11.1384 81.9342 1.0979
v  -11.1384 81.9342 -0.9021
v  -11.3893 79.9500 -0.9021
v  -1.2942 86.8868 -0.3781
v  -6.0787 88.1353 1.2185
v  -6.3422 86.2316 0.6650
v  -6.4157 86.7989 -1.2514
v  -6.1522 88.7027 -0.6979
v  -10.9436 92.0880 -6.3363
v  -10.6031 92.4817 -1.1663
v  -8.7810 93.0930 -1.7197
v  -8.2276 91.1914 -1.9981
v  -10.0497 90.5801 -1.4447
v  -12.5675 102.9889 -3.8481
v  -9.1455 102.2535 -0.0076
v  -8.0493 103.3127 -1.3024
v  -7.7555 101.6669 -2.4000
v  -8.8518 100.6077 -1.1053
v  1.8860 110.1767 -1.5021
v  -2.4143 112.4426 0.3346
v  -2.6992 110.5496 0.9139
v  -3.2785 110.0697 -0.9392
v  -2.9936 111.9626 -1.5185
v  -9.0019 114.7480 -3.9636
v  -5.9683 113.5810 0.0905
v  -4.9911 115.1447 -0.6839
v  -4.2167 113.9607 -2.0976
v  -5.1939 112.3970 -1.3232
v  -2.6259 125.0141 -6.1741
v  -2.4777 125.0279 -0.9801
v  -0.5982 125.5511 -1.4202
v  -0.1581 123.6400 -1.8127
v  -2.0377 123.1168 -1.3727
v  -1.9349 135.7101 -3.8817
v  0.3304 133.2508 0.0957
v  1.2226 135.0383 0.1899
v  2.4258 134.5172 -1.3203
v  1.5336 132.7298 -1.4146
v  6.4350 129.5961 4.1086
v  2.8251 129.6922 0.3723
v  3.6120 131.5223 0.1945
v  2.5477 132.1333 1.7737
v  1.7609 130.3032 1.9516
v  1.2520 142.9402 2.5806
v  4.7542 139.3068 1.3425
v  5.8906 140.9526 1.3425
v  5.1856 141.4394 -0.4647
v  4.0493 139.7935 -0.4647
v  -9.9575 94.3069 6.5359
v  -9.0635 92.7990 1.6443
v  -7.2414 93.4103 2.1977
v  -7.7949 95.3120 1.9193
v  -9.6170 94.7007 1.3658
v  -10.4734 107.9419 4.1402
v  -6.6283 105.6503 1.5013
v  -5.7497 107.3595 2.0552
v  -6.7025 108.3255 0.5858
v  -7.5811 106.6163 0.0320
v  -5.1568 118.2395 5.5889
v  -3.8385 116.4623 0.8874
v  -2.0664 117.0851 1.5743
v  -2.5643 118.9742 1.1460
v  -4.3364 118.3513 0.4591
v  15.5611 155.9919 -0.0602
# 192 vertices

vn 0.5160 -0.7811 0.3515
vn -0.0447 -0.9015 -0.4304
vn 0.3571 -0.0052 -0.9341
vn 0.9894 0.1314 -0.0616
vn -0.3461 -0.7419 -0.5743
vn 0.1961 -0.7293 -0.6555
vn -0.6888 0.1457 -0.7102
vn 0.1299 0.2472 -0.9602
vn -0.2531 -0.7908 -0.5573
vn -0.2531 -0.7908 0.5573
vn -0.8273 0.0882 0.5548
vn -0.8273 0.0882 -0.5548
vn 0.1961 -0.7293 0.6555
vn -0.1353 -0.7997 0.5850
vn 0.0968 0.2592 0.9610
vn -0.6888 0.1457 0.7102
vn 0.3058 -0.7200 0.6230
vn 0.7803 -0.6250 -0.0234
vn 0.9588 0.2718 0.0832
vn 0.3439 0.1398 0.9286
vn 0.9999 0.0143 -0.0000
vn 0.2856 0.0157 -0.9582
vn 0.2815 -0.0190 -0.9594
vn 0.9948 -0.1017 -0.0000
vn -0.8166 0.0123 -0.5770
vn -0.8039 0.1317 -0.5800
vn -0.8166 0.0123 0.5770
vn -0.8039 0.1317 0.5800
vn 0.2856 0.0157 0.9582
vn 0.2815 -0.0190 0.9594
vn 0.2939 0.1466 -0.9445
vn 0.3019 0.1154 -0.9463
vn 0.9432 0.3322 0.0000
vn 0.9500 0.3121 -0.0000
vn -0.7982 -0.1097 -0.5923
vn -0.7635 -0.2480 -0.5963
vn -0.7982 -0.1097 0.5923
vn -0.7635 -0.2480 0.5963
vn 0.2939 0.1466 0.9445
vn 0.3019 0.1154 0.9463
vn -0.5172 -0.4642 -0.7190
vn -0.6126 0.0465 -0.7891
vn 0.0485 0.0566 -0.9972
vn 0.2602 -0.0536 -0.9641
vn -0.3522 -0.7584 0.5485
vn -0.8121 0.2090 0.5448
vn -0.8121 0.2090 -0.5448
vn -0.3522 -0.7584 -0.5485
vn 0.2602 -0.0536 0.9641
vn 0.0485 0.0566 0.9972
vn -0.6126 0.0465 0.7891
vn -0.5172 -0.4642 0.7190
vn -0.3049 0.6162 -0.7261
vn -0.3049 0.6162 0.7261
vn -0.1185 -0.6771 -0.7263
vn -0.1185 -0.6771 0.7263
vn -0.3114 0.6672 -0.6766
vn -0.3114 0.6672 0.6766
vn 0.0767 -0.6616 -0.7460
vn 0.0767 -0.6616 0.7460
vn 0.5155 0.8569 0.0000
vn -0.2781 0.9606 0.0000
vn 0.0081 0.4480 -0.8940
vn 0.0081 0.4480 0.8940
vn 0.5465 -0.1338 0.8267
vn 0.9984 -0.0564 -0.0000
vn 0.9412 -0.3379 0.0000
vn 0.5465 -0.1338 -0.8267
vn 0.2807 -0.0244 -0.9595
vn 0.9760 -0.2176 0.0000
vn -0.7640 0.2830 -0.5798
vn -0.7640 0.2830 0.5798
vn 0.2807 -0.0244 0.9595
vn 0.3118 0.0029 -0.9501
vn 0.9667 -0.2559 0.0014
vn -0.6941 0.4241 -0.5817
vn -0.6910 0.4273 0.5830
vn 0.3136 0.0101 0.9495
vn 0.8248 0.5648 -0.0268
vn 0.5572 -0.7942 0.2424
vn 0.1999 -0.6915 0.6941
vn 0.1999 -0.6915 -0.6941
vn -0.5553 0.4220 0.7166
vn -0.5553 0.4220 -0.7166
vn -0.3104 0.9506 -0.0000
vn 0.3171 0.7794 -0.5404
vn 0.3171 0.7794 0.5404
vn 0.8301 0.0330 0.5566
vn 0.9409 -0.3388 0.0000
vn 0.8301 0.0330 -0.5566
vn 0.2934 0.0665 -0.9537
vn 0.9831 0.1831 -0.0000
vn -0.8094 -0.1389 -0.5706
vn -0.8094 -0.1389 0.5706
vn 0.2934 0.0665 0.9537
vn -0.1547 -0.9880 -0.0000
vn 0.0657 -0.9491 0.3080
vn 0.0657 -0.9491 -0.3080
vn 0.4223 -0.8862 -0.1904
vn 0.4223 -0.8862 0.1904
vn 0.1736 -0.9848 -0.0000
vn -0.9217 -0.2140 0.3234
vn -0.2342 -0.8818 -0.4095
vn 0.1220 -0.5114 0.8506
vn -0.2675 0.7652 0.5855
vn -0.6237 0.3949 -0.6746
vn -0.2953 -0.0900 -0.9511
vn -0.9641 0.2651 -0.0119
vn 0.1728 0.8891 -0.4239
vn 0.8034 -0.3141 -0.5059
vn -0.3336 -0.9380 -0.0938
vn 0.2226 0.1326 0.9659
vn -0.8775 0.0728 0.4740
vn 0.0531 -0.9170 0.3954
vn 0.9987 -0.0006 0.0517
vn 0.0680 0.9891 0.1303
vn -0.6505 -0.2932 0.7006
vn -0.2712 -0.9289 -0.2521
vn 0.5477 -0.4338 0.7154
vn -0.0829 0.7693 0.6335
vn -0.9018 0.2742 -0.3341
vn 0.7875 0.2379 -0.5686
vn 0.0714 0.9967 0.0373
vn 0.7899 -0.0053 0.6132
vn 0.3572 -0.8672 -0.3468
vn -0.3613 0.1348 -0.9227
vn -0.9988 -0.0487 -0.0000
vn -0.2387 -0.6929 0.6804
vn -0.3050 0.6663 0.6804
vn -0.3050 0.6663 -0.6804
vn -0.2387 -0.6929 -0.6804
vn 0.9957 0.0577 -0.0723
vn 0.3049 0.4834 0.8206
vn 0.3533 -0.8234 0.4440
vn 0.2371 -0.4519 -0.8600
vn 0.1887 0.8548 -0.4834
vn -0.3097 -0.0036 -0.9508
vn -0.9564 0.2910 0.0242
vn 0.1923 0.9159 -0.3523
vn 0.7878 -0.2929 -0.5418
vn -0.3609 -0.9178 -0.1652
vn -0.8466 0.0596 -0.5289
vn -0.7308 0.1307 0.6700
vn -0.1214 0.9699 -0.2110
vn 0.2699 -0.0982 -0.9579
vn -0.3395 -0.9375 -0.0769
vn 0.9696 -0.0483 -0.2400
vn 0.4133 0.8329 0.3680
vn 0.4460 -0.4691 0.7622
vn 0.1145 -0.8592 -0.4987
vn 0.0818 0.4429 -0.8928
vn -0.8039 0.0567 -0.5920
vn -0.7832 -0.2153 0.5833
vn -0.3132 0.9480 0.0563
vn 0.3456 0.2461 -0.9055
vn -0.1244 -0.9172 -0.3786
vn -0.2812 0.0885 -0.9555
vn -0.9357 0.3521 0.0232
vn 0.2619 0.9247 -0.2762
vn 0.7826 -0.3039 -0.5433
vn -0.4150 -0.8765 -0.2439
vn -0.7160 0.2446 -0.6539
vn -0.8221 -0.4815 0.3038
vn -0.4354 0.8216 0.3679
vn 0.4324 0.6147 -0.6597
vn 0.0457 -0.6885 -0.7238
vn 0.7840 -0.1291 0.6071
vn 0.4505 -0.8366 -0.3115
vn 0.7616 0.4826 -0.4326
vn -0.0238 0.7664 0.6420
vn -0.3348 -0.5529 0.7630
vn -0.8214 0.3765 0.4283
vn -0.2421 -0.6375 0.7314
vn 0.3249 0.5996 0.7314
vn -0.2050 0.8424 -0.4983
vn -0.7720 -0.3946 -0.4983
vn -0.3097 -0.0036 0.9508
vn -0.3609 -0.9178 0.1652
vn 0.7878 -0.2929 0.5418
vn 0.1923 0.9159 0.3523
vn -0.9564 0.2910 -0.0242
vn -0.7832 0.0557 0.6193
vn -0.0302 -0.8767 0.4800
vn 0.3566 0.3723 0.8569
vn -0.3961 0.9070 -0.1429
vn -0.7829 -0.3420 -0.5197
vn -0.4032 0.0347 0.9144
vn -0.3882 -0.9074 0.1609
vn 0.7256 -0.2807 0.6283
vn 0.1687 0.9263 0.3368
vn -0.9451 0.2996 -0.1305
vn 0.4106 0.9118 -0.0081
# 192 vertex normals

vt 0.7500 0.0000 1.0000
vt 0.9500 0.0000 1.0000
vt 0.9500 0.0500 1.0000
vt 0.7500 0.0500 1.0000
vt -0.0500 0.0000 1.0000
vt 0.1500 0.0000 1.0000
vt 0.1500 0.0500 1.0000
vt -0.0500 0.0500 1.0000
vt 0.3500 0.0000 1.0000
vt 0.3500 0.0500 1.0000
vt 0.5500 0.0000 1.0000
vt 0.5500 0.0500 1.0000
vt 0.7500 0.8000 1.0000
vt 0.9500 0.8000 1.0000
vt 0.9500 1.0000 1.0000
vt 0.7500 1.0000 1.0000
vt -0.0500 0.8000 1.0000
vt 0.1500 0.8000 1.0000
vt 0.1500 1.0000 1.0000
vt -0.0500 1.0000 1.0000
vt 0.3500 0.8000 1.0000
vt 0.3500 1.0000 1.0000
vt 0.5500 0.8000 1.0000
vt 0.5500 1.0000 1.0000
vt 0.9500 0.1000 1.0000
vt 0.9500 0.2000 1.0000
vt 0.7500 0.2000 1.0000
vt 0.7500 0.1000 1.0000
vt 0.1500 0.1000 1.0000
vt 0.1500 0.2000 1.0000
vt -0.0500 0.2000 1.0000
vt -0.0500 0.1000 1.0000
vt 0.3500 0.1000 1.0000
vt 0.3500 0.2000 1.0000
vt 0.5500 0.1000 1.0000
vt 0.5500 0.2000 1.0000
vt 0.1500 0.3500 1.0000
vt 0.1500 0.4000 1.0000
vt -0.0500 0.4000 1.0000
vt -0.0500 0.3500 1.0000
vt 0.3500 0.3500 1.0000
vt 0.3500 0.4000 1.0000
vt 0.5500 0.3500 1.0000
vt 0.5500 0.4000 1.0000
vt 0.9500 0.4000 1.0000
vt 0.7500 0.4000 1.0000
vt 0.7500 0.3500 1.0000
vt 0.9500 0.3500 1.0000
vt 0.5281 1.0000 -0.3820
vt 0.0674 1.0000 -1.2361
vt 0.5101 0.0000 -0.3820
vt 0.2248 0.0000 1.0000
vt 0.5000 1.0000 0.0000
vt 0.0000 0.0000 0.0000
vt 1.0000 0.0000 0.0000
vt 0.5147 1.0000 0.0210
# 56 texture coords

o bushling_thornWhip
g bushling_thornWhip
usemtl wire_028089177
s 8
f 1/1/1 2/2/2 3/3/3 4/4/4 
f 5/5/5 6/6/6 7/7/7 8/8/8 
f 9/6/9 10/9/10 11/10/11 12/7/12 
f 13/9/13 14/11/14 15/12/15 16/10/16 
f 17/11/17 18/1/18 19/4/19 20/12/20 
f 21/13/21 22/14/22 23/15/23 24/16/24 
f 22/17/22 25/18/25 26/19/26 23/20/23 
f 25/18/25 27/21/27 28/22/28 26/19/26 
f 27/21/27 29/23/29 30/24/30 28/22/28 
f 29/23/29 21/13/21 24/16/24 30/24/30 
f 31/25/31 32/26/32 33/27/33 34/28/34 
f 35/29/35 36/30/36 32/31/32 31/32/31 
f 37/33/37 38/34/38 36/30/36 35/29/35 
f 39/35/39 40/36/40 38/34/38 37/33/37 
f 34/28/34 33/27/33 40/36/40 39/35/39 
f 41/37/41 42/38/42 43/39/43 44/40/44 
f 45/41/45 46/42/46 47/38/47 48/37/48 
f 49/43/49 50/44/50 51/42/51 52/41/52 
s off
f 51/42/51 42/38/42 53/38/53 54/42/54 
f 42/38/42 41/37/41 55/37/55 53/38/53 
f 41/37/41 52/41/52 56/41/56 55/37/55 
f 52/41/52 51/42/51 54/42/54 56/41/56 
f 54/42/54 53/38/53 57/38/57 58/42/58 
f 53/38/53 55/37/55 59/37/59 57/38/57 
f 55/37/55 56/41/56 60/41/60 59/37/59 
f 56/41/56 54/42/54 58/42/58 60/41/60 
f 58/42/58 57/38/57 47/38/47 46/42/46 
f 57/38/57 59/37/59 48/37/48 47/38/47 
f 59/37/59 60/41/60 45/41/45 48/37/48 
f 60/41/60 58/42/58 46/42/46 45/41/45 
f 43/45/43 61/46/61 62/46/62 63/45/63 
f 61/46/61 50/44/50 64/44/64 62/46/62 
f 50/44/50 49/43/49 65/43/65 64/44/64 
f 49/43/49 66/47/66 67/47/67 65/43/65 
f 66/47/66 44/48/44 68/48/68 67/47/67 
f 44/48/44 43/45/43 63/45/63 68/48/68 
f 24/16/24 23/15/23 69/15/69 70/16/70 
f 23/15/23 26/49/26 71/49/71 69/15/69 
f 26/49/26 28/50/28 72/50/72 71/49/71 
f 28/50/28 30/24/30 73/24/73 72/50/72 
f 30/24/30 24/16/24 70/16/70 73/24/73 
f 70/16/70 69/15/69 74/15/74 75/16/75 
f 69/15/69 71/49/71 76/49/76 74/15/74 
f 71/49/71 72/50/72 77/50/77 76/49/76 
f 72/50/72 73/24/73 78/24/78 77/50/77 
f 73/24/73 70/16/70 75/16/75 78/24/78 
s 8
f 8/3/8 31/25/31 34/28/34 79/4/79 
f 7/7/7 35/29/35 31/32/31 8/8/8 
f 16/10/16 37/33/37 35/29/35 7/7/7 
f 15/12/15 39/35/39 37/33/37 16/10/16 
f 79/4/79 34/28/34 39/35/39 15/12/15 
s off
f 80/1/80 5/2/5 2/2/2 1/1/1 
f 5/2/5 8/3/8 3/3/3 2/2/2 
f 8/3/8 79/4/79 4/4/4 3/3/3 
f 79/4/79 80/1/80 1/1/1 4/4/4 
f 6/6/6 13/9/13 81/9/81 82/6/82 
f 13/9/13 16/10/16 83/10/83 81/9/81 
f 16/10/16 7/7/7 84/7/84 83/10/83 
f 7/7/7 6/6/6 82/6/82 84/7/84 
f 14/11/14 80/1/80 18/1/18 17/11/17 
f 80/1/80 79/4/79 19/4/19 18/1/18 
f 79/4/79 15/12/15 20/12/20 19/4/19 
f 15/12/15 14/11/14 17/11/17 20/12/20 
f 82/6/82 81/9/81 10/9/10 9/6/9 
f 81/9/81 83/10/83 11/10/11 10/9/10 
f 83/10/83 84/7/84 12/7/12 11/10/11 
f 84/7/84 82/6/82 9/6/9 12/7/12 
f 62/46/62 85/46/85 86/45/86 63/45/63 
f 64/44/64 87/44/87 85/46/85 62/46/62 
f 65/43/65 88/43/88 87/44/87 64/44/64 
f 67/47/67 89/47/89 88/43/88 65/43/65 
f 68/48/68 90/48/90 89/47/89 67/47/67 
f 63/45/63 86/45/86 90/48/90 68/48/68 
f 86/45/86 85/46/85 87/44/87 
f 88/43/88 89/47/89 90/48/90 
f 86/45/86 87/44/87 88/43/88 90/48/90 
f 61/46/61 43/45/43 91/45/91 92/46/92 
f 43/39/43 42/38/42 93/38/93 91/39/91 
f 42/38/42 51/42/51 94/42/94 93/38/93 
f 51/42/51 50/44/50 95/44/95 94/42/94 
f 50/44/50 61/46/61 92/46/92 95/44/95 
s 1
f 27/21/27 25/18/25 93/38/93 94/42/94 
s 2
f 25/18/25 22/17/22 91/39/91 93/38/93 
s 1
f 22/14/22 21/13/21 92/46/92 91/45/91 
s 2
f 21/13/21 29/23/29 95/44/95 92/46/92 
s 4
f 29/23/29 27/21/27 94/42/94 95/44/95 
s 1
f 36/30/36 38/34/38 52/41/52 41/37/41 
s 2
f 38/34/38 40/36/40 49/43/49 52/41/52 
s 1
f 40/36/40 33/27/33 66/47/66 49/43/49 
s 2
f 33/27/33 32/26/32 44/48/44 66/47/66 
s 4
f 32/31/32 36/30/36 41/37/41 44/40/44 
s off
f 5/5/5 80/51/80 96/51/96 97/5/97 
f 80/51/80 14/11/14 98/11/98 96/51/96 
f 14/11/14 13/9/13 99/9/99 98/11/98 
f 13/9/13 6/6/6 100/6/100 99/9/99 
f 6/6/6 5/5/5 97/5/97 100/6/100 
s 1
f 98/11/98 99/9/99 101/52/101 
f 99/9/99 100/6/100 101/52/101 
f 100/6/100 97/5/97 101/52/101 
f 97/5/97 96/51/96 101/52/101 
f 96/51/96 98/11/98 101/52/101 
s 4
f 102/53/102 103/54/103 104/55/104 
s 2
f 102/53/102 104/54/104 105/55/105 
s 16
f 102/53/102 105/54/105 106/55/106 
s 32
f 102/53/102 106/54/106 103/55/103 
s 4
f 107/53/107 108/54/108 109/55/109 
s 2
f 107/53/107 109/54/109 110/55/110 
s 16
f 107/53/107 110/54/110 111/55/111 
s 32
f 107/53/107 111/54/111 108/55/108 
s 4
f 112/53/112 113/54/113 114/55/114 
s 2
f 112/53/112 114/54/114 115/55/115 
s 16
f 112/53/112 115/54/115 116/55/116 
s 32
f 112/53/112 116/54/116 113/55/113 
s 4
f 117/53/117 118/54/118 119/55/119 
s 2
f 117/53/117 119/54/119 120/55/120 
s 16
f 117/53/117 120/54/120 121/55/121 
s 32
f 117/53/117 121/54/121 118/55/118 
s 4
f 122/53/122 123/54/123 124/55/124 
s 2
f 122/53/122 124/54/124 125/55/125 
s 16
f 122/53/122 125/54/125 126/55/126 
s 32
f 122/53/122 126/54/126 123/55/123 
s 4
f 127/53/127 128/54/128 129/55/129 
s 2
f 127/53/127 129/54/129 130/55/130 
s 16
f 127/53/127 130/54/130 131/55/131 
s 32
f 127/53/127 131/54/131 128/55/128 
s 4
f 132/53/132 133/54/133 134/55/134 
s 2
f 132/53/132 134/54/134 135/55/135 
s 16
f 132/53/132 135/54/135 136/55/136 
s 32
f 132/53/132 136/54/136 133/55/133 
s 4
f 137/53/137 138/54/138 139/55/139 
s 2
f 137/53/137 139/54/139 140/55/140 
s 16
f 137/53/137 140/54/140 141/55/141 
s 32
f 137/53/137 141/54/141 138/55/138 
s 4
f 142/53/142 143/54/143 144/55/144 
s 2
f 142/53/142 144/54/144 145/55/145 
s 16
f 142/53/142 145/54/145 146/55/146 
s 32
f 142/53/142 146/54/146 143/55/143 
s 4
f 147/53/147 148/54/148 149/55/149 
s 2
f 147/53/147 149/54/149 150/55/150 
s 16
f 147/53/147 150/54/150 151/55/151 
s 32
f 147/53/147 151/54/151 148/55/148 
s 4
f 152/53/152 153/54/153 154/55/154 
s 2
f 152/53/152 154/54/154 155/55/155 
s 16
f 152/53/152 155/54/155 156/55/156 
s 32
f 152/53/152 156/54/156 153/55/153 
s 4
f 157/53/157 158/54/158 159/55/159 
s 2
f 157/53/157 159/54/159 160/55/160 
s 16
f 157/53/157 160/54/160 161/55/161 
s 32
f 157/53/157 161/54/161 158/55/158 
s 4
f 162/53/162 163/54/163 164/55/164 
s 2
f 162/53/162 164/54/164 165/55/165 
s 16
f 162/53/162 165/54/165 166/55/166 
s 32
f 162/53/162 166/54/166 163/55/163 
s 4
f 167/53/167 168/54/168 169/55/169 
s 2
f 167/53/167 169/54/169 170/55/170 
s 16
f 167/53/167 170/54/170 171/55/171 
s 32
f 167/53/167 171/54/171 168/55/168 
s 4
f 172/53/172 173/54/173 174/55/174 
s 2
f 172/53/172 174/54/174 175/55/175 
s 16
f 172/53/172 175/54/175 176/55/176 
s 32
f 172/53/172 176/54/176 173/55/173 
s 4
f 177/53/177 178/54/178 179/55/179 
s 2
f 177/53/177 179/54/179 180/55/180 
s 16
f 177/53/177 180/54/180 181/55/181 
s 32
f 177/53/177 181/54/181 178/55/178 
s 4
f 182/53/182 183/54/183 184/55/184 
s 2
f 182/53/182 184/54/184 185/55/185 
s 16
f 182/53/182 185/54/185 186/55/186 
s 32
f 182/53/182 186/54/186 183/55/183 
s 4
f 187/53/187 188/54/188 189/55/189 
s 2
f 187/53/187 189/54/189 190/55/190 
s 16
f 187/53/187 190/54/190 191/55/191 
s 32
f 187/53/187 191/54/191 188/55/188 
s 1
f 78/24/78 75/16/75 192/56/192 
f 75/16/75 74/15/74 192/56/192 
f 74/15/74 76/49/76 192/56/192 
f 76/49/76 77/50/77 192/56/192 
f 77/50/77 78/24/78 192/56/192 
# 94 polygons - 84 triangles

