# 3ds Max Wavefront OBJ Exporter v0.99 - (c)2007 guruware
# File Created: 02.07.2021 20:11:43

mtllib brick_single.mtl

#
# object brick_single
#

v  -9.9616 0.4397 27.6661
v  13.9207 0.4397 -25.9905
v  12.4556 0.4397 24.6734
v  9.5454 0.4397 27.6661
v  -13.0224 30.3876 24.6044
v  -9.9530 30.3876 28.0329
v  9.7144 30.3876 27.7859
v  -12.8179 30.3876 -23.9178
v  -12.7497 4.1707 30.1426
v  12.3754 5.6813 30.1129
v  12.3662 25.2779 30.1210
v  -12.7503 20.5524 30.0992
v  14.8011 5.7360 27.6648
v  14.7852 6.7552 -27.3986
v  14.8164 26.0524 -27.3966
v  14.8748 25.3764 27.6752
v  12.3690 6.6367 -29.8147
v  -12.7463 4.9393 -29.8202
v  -12.7483 25.9388 -29.8324
v  12.3679 25.9876 -29.8501
v  -15.1848 4.8837 -27.3997
v  -15.2162 4.0553 27.6762
v  -15.1687 20.6833 27.6684
v  -15.1696 25.8579 -27.3983
v  -12.5464 25.1470 29.8570
v  12.3690 30.3876 -24.2101
v  12.3690 30.3876 25.0010
v  14.2036 28.2373 -26.7868
v  -9.6619 30.3876 -27.3987
v  9.4093 30.3876 -27.3987
v  11.6710 28.8325 -29.1193
v  -12.3312 28.8344 -29.3028
v  -14.9554 25.2675 27.4021
v  -14.7491 28.2479 -26.9619
v  -12.7479 0.4397 -24.2617
v  -12.7479 0.4397 24.8693
v  -14.7479 2.2463 -26.9548
v  11.3121 0.4397 -28.3802
v  -9.2655 0.4397 -27.5407
v  -12.3041 2.7960 -29.4674
v  13.2052 4.7201 -30.1426
v  15.2162 4.7436 -27.7210
v  14.4255 3.7421 27.2124
v  11.8945 3.2720 29.6913
v  -14.5749 26.8968 28.2262
v  -13.3758 26.9121 29.4441
# 46 vertices

vn -0.1443 -0.8670 0.4770
vn 0.6092 -0.7653 -0.2079
vn 0.4879 -0.8600 0.1499
vn 0.1371 -0.8773 0.4600
vn -0.5659 0.8175 0.1069
vn -0.1302 0.8079 0.5747
vn 0.1900 0.8181 0.5428
vn -0.4036 0.9110 -0.0848
vn -0.3769 -0.3309 0.8651
vn 0.3970 -0.1143 0.9107
vn 0.3776 0.2602 0.8887
vn -0.3879 0.0318 0.9211
vn 0.9126 -0.1265 0.3887
vn 0.9191 0.1271 -0.3730
vn 0.9046 0.1705 -0.3907
vn 0.8751 0.2764 0.3973
vn 0.3328 0.1460 -0.9316
vn -0.3875 -0.1127 -0.9149
vn -0.3893 0.1082 -0.9147
vn 0.3881 0.1528 -0.9089
vn -0.9136 -0.1052 -0.3928
vn -0.8545 -0.3468 0.3868
vn -0.9215 0.0337 0.3869
vn -0.9163 0.1134 -0.3840
vn -0.3216 0.1099 0.9405
vn 0.4193 0.9026 -0.0974
vn 0.5343 0.8282 0.1694
vn 0.7911 0.5375 -0.2921
vn -0.0800 0.9398 -0.3321
vn 0.0910 0.9296 -0.3570
vn 0.3420 0.6110 -0.7139
vn -0.3571 0.5925 -0.7221
vn -0.9467 0.1104 0.3025
vn -0.8145 0.4956 -0.3016
vn -0.3569 -0.9300 -0.0883
vn -0.4710 -0.8710 0.1399
vn -0.7408 -0.5695 -0.3563
vn 0.1672 -0.7987 -0.5781
vn -0.1059 -0.9052 -0.4116
vn -0.3117 -0.4848 -0.8172
vn 0.4690 -0.0741 -0.8801
vn 0.9296 -0.0708 -0.3616
vn 0.8401 -0.4309 0.3295
vn 0.3684 -0.4806 0.7958
vn -0.8532 0.3071 0.4215
vn -0.4333 0.3057 0.8478
# 46 vertex normals

vt 0.5186 0.0614 0.5637
vt 0.9636 0.0614 0.6420
vt 0.7336 0.0614 0.5883
vt 0.7056 0.0614 0.5630
vt 0.4895 0.9210 0.5921
vt 0.5196 0.9210 0.5686
vt 0.7065 0.9210 0.5679
vt 0.2587 0.9210 0.5823
vt 0.5065 0.1685 0.6534
vt 0.7180 0.2118 0.6531
vt 0.7179 0.7743 0.6530
vt 0.5064 0.6387 0.6528
vt 0.7378 0.2134 0.6796
vt 0.9631 0.2427 0.6792
vt 0.9630 0.7965 0.6800
vt 0.7381 0.7771 0.6815
vt 0.0300 0.2393 0.6526
vt 0.2417 0.1905 0.6526
vt 0.2416 0.7933 0.6528
vt 0.0301 0.7947 0.6530
vt 0.2614 0.1889 0.6797
vt 0.4865 0.1652 0.6806
vt 0.4867 0.6424 0.6793
vt 0.2614 0.7910 0.6793
vt 0.5070 0.7706 0.6454
vt 0.9671 0.9210 0.5840
vt 0.7321 0.9210 0.5901
vt 0.9644 0.8593 0.6580
vt 0.2272 0.9210 0.5580
vt 0.0435 0.9210 0.5604
vt 0.0325 0.8763 0.6288
vt 0.2404 0.8764 0.6371
vt 0.4871 0.7740 0.6711
vt 0.2604 0.8596 0.6641
vt 0.2572 0.0614 0.5846
vt 0.4920 0.0614 0.5886
vt 0.2604 0.1132 0.6640
vt 0.0329 0.0614 0.6117
vt 0.2239 0.0614 0.5526
vt 0.2399 0.1290 0.6387
vt 0.0260 0.1842 0.6750
vt 0.9619 0.1849 0.6935
vt 0.7371 0.1562 0.6652
vt 0.7162 0.1427 0.6374
vt 0.4913 0.8208 0.6714
vt 0.5011 0.8212 0.6583
vt 0.0091 0.1849 0.6935
vt 0.0109 0.0614 0.6420
vt 0.0104 0.2427 0.6792
vt 0.0102 0.7965 0.6800
vt 0.0144 0.9210 0.5840
vt 0.0117 0.8593 0.6580
vt 0.9963 0.9210 0.5604
# 53 texture coords

o brick_single
g brick_single
usemtl Material__25
s 1
f 1/1/1 2/2/2 3/3/3 4/4/4 
f 5/5/5 6/6/6 7/7/7 8/8/8 
f 9/9/9 10/10/10 11/11/11 12/12/12 
f 13/13/13 14/14/14 15/15/15 16/16/16 
f 17/17/17 18/18/18 19/19/19 20/20/20 
f 21/21/21 22/22/22 23/23/23 24/24/24 
f 7/7/7 6/6/6 25/25/25 11/11/11 
f 26/26/26 27/27/27 16/16/16 28/28/28 
f 29/29/29 30/30/30 31/31/31 32/32/32 
f 33/33/33 5/5/5 8/8/8 34/34/34 
f 12/12/12 11/11/11 25/25/25 
f 16/16/16 15/15/15 28/28/28 
f 20/20/20 19/19/19 32/32/32 31/31/31 
f 24/24/24 23/23/23 33/33/33 34/34/34 
f 35/35/35 36/36/36 22/22/22 37/37/37 
f 38/38/38 39/39/39 40/40/40 41/41/41 
f 3/3/3 2/2/2 42/42/42 43/43/43 
f 1/1/1 4/4/4 44/44/44 9/9/9 
f 10/10/10 9/9/9 44/44/44 
f 22/22/22 21/21/21 37/37/37 
f 45/45/45 46/46/46 6/6/6 5/5/5 
f 41/41/41 42/47/42 2/48/2 38/38/38 
f 19/19/19 18/18/18 21/21/21 24/24/24 
f 29/29/29 32/32/32 34/34/34 8/8/8 
f 32/32/32 19/19/19 24/24/24 34/34/34 
f 35/35/35 37/37/37 40/40/40 39/39/39 
f 18/18/18 40/40/40 37/37/37 21/21/21 
f 11/11/11 10/10/10 13/13/13 16/16/16 
f 7/7/7 11/11/11 16/16/16 27/27/27 
f 3/3/3 43/43/43 44/44/44 4/4/4 
f 10/10/10 44/44/44 43/43/43 13/13/13 
f 25/25/25 46/46/46 45/45/45 33/33/33 
f 9/9/9 12/12/12 23/23/23 22/22/22 
f 12/12/12 25/25/25 33/33/33 23/23/23 
f 22/22/22 36/36/36 1/1/1 9/9/9 
f 14/49/14 42/47/42 41/41/41 17/17/17 
f 15/50/15 14/49/14 17/17/17 20/20/20 
f 26/51/26 28/52/28 31/31/31 30/30/30 
f 28/52/28 15/50/15 20/20/20 31/31/31 
f 40/40/40 18/18/18 17/17/17 41/41/41 
f 42/42/42 14/14/14 13/13/13 43/43/43 
f 33/33/33 45/45/45 5/5/5 
f 6/6/6 46/46/46 25/25/25 
f 27/27/27 26/26/26 30/53/30 29/29/29 
f 7/7/7 27/27/27 29/29/29 8/8/8 
f 36/36/36 35/35/35 39/39/39 38/38/38 
f 1/1/1 36/36/36 38/38/38 2/48/2 
# 41 polygons - 6 triangles

