# 3ds Max Wavefront OBJ Exporter v0.99 - (c)2007 guruware
# File Created: 02.07.2021 20:11:20

mtllib brick_pair.mtl

#
# object brick_pair
#

v  -5.9497 0.3697 51.5824
v  17.9326 0.3697 -2.0743
v  16.4675 0.3697 48.5896
v  13.5573 0.3697 51.5824
v  -9.0105 30.3175 48.5207
v  -5.9410 30.3175 51.9491
v  13.7263 30.3175 51.7021
v  -8.8060 30.3175 -0.0015
v  -8.7378 4.1007 54.0589
v  16.3873 5.6113 54.0292
v  16.3782 25.2078 54.0373
v  -8.7383 20.4824 54.0155
v  18.8130 5.6659 51.5811
v  18.7971 6.6852 -3.4824
v  18.8283 25.9824 -3.4803
v  18.8868 25.3063 51.5915
v  16.3809 6.5666 -5.8984
v  -8.7344 4.8692 -5.9039
v  -8.7364 25.8688 -5.9161
v  16.3798 25.9175 -5.9338
v  -11.1729 4.8136 -3.4834
v  -11.2043 3.9852 51.5925
v  -11.1568 20.6132 51.5846
v  -11.1577 25.7879 -3.4820
v  -8.5345 25.0770 53.7732
v  16.3809 30.3175 -0.2939
v  16.3809 30.3175 48.9173
v  18.2155 28.1673 -2.8705
v  -5.6500 30.3175 -3.4824
v  13.4212 30.3175 -3.4824
v  15.6829 28.7624 -5.2031
v  -8.3193 28.7643 -5.3865
v  -10.9435 25.1975 51.3184
v  -10.7372 28.1778 -3.0456
v  -8.7359 0.3697 -0.3454
v  -8.7359 0.3697 48.7856
v  -10.7360 2.1762 -3.0386
v  15.3240 0.3697 -4.4639
v  -5.2536 0.3697 -3.6244
v  -8.2922 2.7260 -5.5511
v  17.2171 4.6501 -6.2263
v  19.2281 4.6736 -3.8048
v  18.4374 3.6720 51.1287
v  15.9064 3.2019 53.6075
v  -10.5630 26.8268 52.1425
v  -9.3639 26.8421 53.3604
v  -8.8149 0.3697 -7.9086
v  13.9411 0.3697 -51.1077
v  17.1075 0.3697 -13.5392
v  13.9932 0.3697 -10.8887
v  -12.6884 30.3175 -9.6978
v  -8.7694 30.3175 -7.6396
v  14.2022 30.3175 -10.8262
v  -17.1225 30.3175 -45.4950
v  -11.8362 4.1007 -5.6572
v  17.5376 5.6113 -9.5175
v  17.5278 25.2078 -9.5101
v  -11.8410 20.4824 -5.6891
v  20.1381 5.6659 -11.6925
v  14.8163 6.6852 -52.2777
v  14.8530 25.9824 -52.2810
v  20.2253 25.3063 -11.6962
v  11.7586 6.5666 -53.6894
v  -17.6073 4.8692 -49.8566
v  -17.6107 25.8688 -49.8653
v  11.7538 25.9175 -53.7154
v  -20.2253 4.8136 -47.7000
v  -14.9577 3.9852 -7.0984
v  -14.9029 20.6132 -7.1114
v  -20.2073 25.7879 -47.7012
v  -11.6260 25.0770 -5.8988
v  12.2984 30.3175 -49.5583
v  17.0379 30.3175 -13.2845
v  14.1952 28.1673 -51.7378
v  -13.7677 30.3175 -48.5429
v  8.5307 30.3175 -51.4564
v  11.0094 28.7624 -53.0703
v  -17.0720 28.7643 -49.5387
v  -14.6791 25.1975 -7.3403
v  -19.6737 28.1778 -47.4438
v  -17.0737 0.3697 -45.7592
v  -12.3419 0.3697 -9.5444
v  -19.6716 2.1762 -47.4388
v  10.6610 0.3697 -52.4706
v  -13.3179 0.3697 -48.7082
v  -17.0562 2.7260 -49.6641
v  12.7046 4.6501 -54.0589
v  15.2892 4.6736 -52.5812
v  19.6553 3.6720 -11.9687
v  16.9348 3.2019 -9.7548
v  -14.1548 26.8268 -6.7909
v  -12.6356 26.8421 -6.0764
# 92 vertices

vn -0.1443 -0.8670 0.4770
vn 0.6092 -0.7653 -0.2079
vn 0.4879 -0.8600 0.1499
vn 0.1371 -0.8773 0.4600
vn -0.5659 0.8175 0.1069
vn -0.1302 0.8079 0.5747
vn 0.1900 0.8181 0.5428
vn -0.4036 0.9110 -0.0848
vn -0.3769 -0.3309 0.8651
vn 0.3970 -0.1143 0.9107
vn 0.3776 0.2602 0.8887
vn -0.3879 0.0318 0.9211
vn 0.9126 -0.1265 0.3887
vn 0.9191 0.1271 -0.3730
vn 0.9046 0.1705 -0.3907
vn 0.8751 0.2764 0.3973
vn 0.3328 0.1460 -0.9316
vn -0.3875 -0.1127 -0.9149
vn -0.3893 0.1082 -0.9147
vn 0.3881 0.1528 -0.9089
vn -0.9136 -0.1052 -0.3928
vn -0.8545 -0.3468 0.3868
vn -0.9215 0.0337 0.3869
vn -0.9163 0.1134 -0.3840
vn -0.3216 0.1099 0.9405
vn 0.4193 0.9026 -0.0974
vn 0.5343 0.8282 0.1694
vn 0.7911 0.5375 -0.2921
vn -0.0800 0.9398 -0.3321
vn 0.0910 0.9296 -0.3570
vn 0.3420 0.6110 -0.7139
vn -0.3571 0.5925 -0.7221
vn -0.9467 0.1104 0.3025
vn -0.8145 0.4956 -0.3016
vn -0.3569 -0.9300 -0.0883
vn -0.4710 -0.8710 0.1399
vn -0.7408 -0.5695 -0.3563
vn 0.1672 -0.7987 -0.5781
vn -0.1059 -0.9052 -0.4116
vn -0.3117 -0.4848 -0.8172
vn 0.4690 -0.0741 -0.8801
vn 0.9296 -0.0708 -0.3616
vn 0.8401 -0.4309 0.3295
vn 0.3684 -0.4806 0.7958
vn -0.8532 0.3071 0.4215
vn -0.4333 0.3057 0.8478
vn -0.0241 -0.8404 0.5414
vn 0.5376 -0.7603 -0.3646
vn 0.4723 -0.8648 0.1706
vn 0.1556 -0.8498 0.5036
vn -0.5070 0.8269 0.2432
vn -0.0037 0.7857 0.6186
vn 0.2023 0.7982 0.5674
vn -0.3772 0.9214 -0.0938
vn -0.1693 -0.2996 0.9389
vn 0.4161 -0.0953 0.9043
vn 0.4051 0.2269 0.8857
vn -0.1564 0.0257 0.9874
vn 0.9224 -0.1314 0.3632
vn 0.7955 0.1379 -0.5900
vn 0.7913 0.1764 -0.5855
vn 0.8885 0.2768 0.3661
vn 0.1061 0.1125 -0.9880
vn -0.4085 -0.0931 -0.9080
vn -0.4098 0.0885 -0.9079
vn 0.1649 0.1274 -0.9781
vn -0.9231 -0.1094 -0.3686
vn -0.7483 -0.3434 0.5676
vn -0.8033 0.0349 0.5945
vn -0.9262 0.1203 -0.3572
vn -0.0977 0.0807 0.9919
vn 0.3543 0.9118 -0.2076
vn 0.5266 0.8295 0.1863
vn 0.6870 0.5529 -0.4715
vn -0.1022 0.9137 -0.3933
vn 0.0017 0.9023 -0.4310
vn 0.1756 0.5825 -0.7936
vn -0.3870 0.5799 -0.7169
vn -0.8444 0.1321 0.5192
vn -0.8145 0.5057 -0.2844
vn -0.3310 -0.9379 -0.1035
vn -0.3993 -0.8760 0.2706
vn -0.7580 -0.5593 -0.3356
vn 0.0294 -0.7819 -0.6228
vn -0.1295 -0.8757 -0.4652
vn -0.3420 -0.4321 -0.8345
vn 0.2567 -0.0648 -0.9643
vn 0.8284 -0.0667 -0.5561
vn 0.8393 -0.4436 0.3142
vn 0.4009 -0.4375 0.8049
vn -0.7476 0.3198 0.5820
vn -0.2238 0.2760 0.9347
# 92 vertex normals

vt 0.5186 0.0614 0.5637
vt 0.9636 0.0614 0.6420
vt 0.7336 0.0614 0.5883
vt 0.7056 0.0614 0.5630
vt 0.4895 0.9210 0.5921
vt 0.5196 0.9210 0.5686
vt 0.7065 0.9210 0.5679
vt 0.2587 0.9210 0.5823
vt 0.5065 0.1685 0.6534
vt 0.7180 0.2118 0.6531
vt 0.7179 0.7743 0.6530
vt 0.5064 0.6387 0.6528
vt 0.7378 0.2134 0.6796
vt 0.9631 0.2427 0.6792
vt 0.9630 0.7965 0.6800
vt 0.7381 0.7771 0.6815
vt 0.0300 0.2393 0.6526
vt 0.2417 0.1905 0.6526
vt 0.2416 0.7933 0.6528
vt 0.0301 0.7947 0.6530
vt 0.2614 0.1889 0.6797
vt 0.4865 0.1652 0.6806
vt 0.4867 0.6424 0.6793
vt 0.2614 0.7910 0.6793
vt 0.5070 0.7706 0.6454
vt 0.9671 0.9210 0.5840
vt 0.7321 0.9210 0.5901
vt 0.9644 0.8593 0.6580
vt 0.2272 0.9210 0.5580
vt 0.0435 0.9210 0.5604
vt 0.0325 0.8763 0.6288
vt 0.2404 0.8764 0.6371
vt 0.4871 0.7740 0.6711
vt 0.2604 0.8596 0.6641
vt 0.2572 0.0614 0.5846
vt 0.4920 0.0614 0.5886
vt 0.2604 0.1132 0.6640
vt 0.0329 0.0614 0.6117
vt 0.2239 0.0614 0.5526
vt 0.2399 0.1290 0.6387
vt 0.0260 0.1842 0.6750
vt 0.9619 0.1849 0.6935
vt 0.7371 0.1562 0.6652
vt 0.7162 0.1427 0.6374
vt 0.4913 0.8208 0.6714
vt 0.5011 0.8212 0.6583
vt 0.0091 0.1849 0.6935
vt 0.0109 0.0614 0.6420
vt 0.0104 0.2427 0.6792
vt 0.0102 0.7965 0.6800
vt 0.0144 0.9210 0.5840
vt 0.0117 0.8593 0.6580
vt 0.9963 0.9210 0.5604
# 53 texture coords

o brick_pair
g brick_pair
usemtl Material__25
s 1
f 1/1/1 2/2/2 3/3/3 4/4/4 
f 5/5/5 6/6/6 7/7/7 8/8/8 
f 9/9/9 10/10/10 11/11/11 12/12/12 
f 13/13/13 14/14/14 15/15/15 16/16/16 
f 17/17/17 18/18/18 19/19/19 20/20/20 
f 21/21/21 22/22/22 23/23/23 24/24/24 
f 7/7/7 6/6/6 25/25/25 11/11/11 
f 26/26/26 27/27/27 16/16/16 28/28/28 
f 29/29/29 30/30/30 31/31/31 32/32/32 
f 33/33/33 5/5/5 8/8/8 34/34/34 
f 12/12/12 11/11/11 25/25/25 
f 16/16/16 15/15/15 28/28/28 
f 20/20/20 19/19/19 32/32/32 31/31/31 
f 24/24/24 23/23/23 33/33/33 34/34/34 
f 35/35/35 36/36/36 22/22/22 37/37/37 
f 38/38/38 39/39/39 40/40/40 41/41/41 
f 3/3/3 2/2/2 42/42/42 43/43/43 
f 1/1/1 4/4/4 44/44/44 9/9/9 
f 10/10/10 9/9/9 44/44/44 
f 22/22/22 21/21/21 37/37/37 
f 45/45/45 46/46/46 6/6/6 5/5/5 
f 41/41/41 42/47/42 2/48/2 38/38/38 
f 19/19/19 18/18/18 21/21/21 24/24/24 
f 29/29/29 32/32/32 34/34/34 8/8/8 
f 32/32/32 19/19/19 24/24/24 34/34/34 
f 35/35/35 37/37/37 40/40/40 39/39/39 
f 18/18/18 40/40/40 37/37/37 21/21/21 
f 11/11/11 10/10/10 13/13/13 16/16/16 
f 7/7/7 11/11/11 16/16/16 27/27/27 
f 3/3/3 43/43/43 44/44/44 4/4/4 
f 10/10/10 44/44/44 43/43/43 13/13/13 
f 25/25/25 46/46/46 45/45/45 33/33/33 
f 9/9/9 12/12/12 23/23/23 22/22/22 
f 12/12/12 25/25/25 33/33/33 23/23/23 
f 22/22/22 36/36/36 1/1/1 9/9/9 
f 14/49/14 42/47/42 41/41/41 17/17/17 
f 15/50/15 14/49/14 17/17/17 20/20/20 
f 26/51/26 28/52/28 31/31/31 30/30/30 
f 28/52/28 15/50/15 20/20/20 31/31/31 
f 40/40/40 18/18/18 17/17/17 41/41/41 
f 42/42/42 14/14/14 13/13/13 43/43/43 
f 33/33/33 45/45/45 5/5/5 
f 6/6/6 46/46/46 25/25/25 
f 27/27/27 26/26/26 30/53/30 29/29/29 
f 7/7/7 27/27/27 29/29/29 8/8/8 
f 36/36/36 35/35/35 39/39/39 38/38/38 
f 1/1/1 36/36/36 38/38/38 2/48/2 
f 47/1/47 48/2/48 49/3/49 50/4/50 
f 51/5/51 52/6/52 53/7/53 54/8/54 
f 55/9/55 56/10/56 57/11/57 58/12/58 
f 59/13/59 60/14/60 61/15/61 62/16/62 
f 63/17/63 64/18/64 65/19/65 66/20/66 
f 67/21/67 68/22/68 69/23/69 70/24/70 
f 53/7/53 52/6/52 71/25/71 57/11/57 
f 72/26/72 73/27/73 62/16/62 74/28/74 
f 75/29/75 76/30/76 77/31/77 78/32/78 
f 79/33/79 51/5/51 54/8/54 80/34/80 
f 58/12/58 57/11/57 71/25/71 
f 62/16/62 61/15/61 74/28/74 
f 66/20/66 65/19/65 78/32/78 77/31/77 
f 70/24/70 69/23/69 79/33/79 80/34/80 
f 81/35/81 82/36/82 68/22/68 83/37/83 
f 84/38/84 85/39/85 86/40/86 87/41/87 
f 49/3/49 48/2/48 88/42/88 89/43/89 
f 47/1/47 50/4/50 90/44/90 55/9/55 
f 56/10/56 55/9/55 90/44/90 
f 68/22/68 67/21/67 83/37/83 
f 91/45/91 92/46/92 52/6/52 51/5/51 
f 87/41/87 88/47/88 48/48/48 84/38/84 
f 65/19/65 64/18/64 67/21/67 70/24/70 
f 75/29/75 78/32/78 80/34/80 54/8/54 
f 78/32/78 65/19/65 70/24/70 80/34/80 
f 81/35/81 83/37/83 86/40/86 85/39/85 
f 64/18/64 86/40/86 83/37/83 67/21/67 
f 57/11/57 56/10/56 59/13/59 62/16/62 
f 53/7/53 57/11/57 62/16/62 73/27/73 
f 49/3/49 89/43/89 90/44/90 50/4/50 
f 56/10/56 90/44/90 89/43/89 59/13/59 
f 71/25/71 92/46/92 91/45/91 79/33/79 
f 55/9/55 58/12/58 69/23/69 68/22/68 
f 58/12/58 71/25/71 79/33/79 69/23/69 
f 68/22/68 82/36/82 47/1/47 55/9/55 
f 60/49/60 88/47/88 87/41/87 63/17/63 
f 61/50/61 60/49/60 63/17/63 66/20/66 
f 72/51/72 74/52/74 77/31/77 76/30/76 
f 74/52/74 61/50/61 66/20/66 77/31/77 
f 86/40/86 64/18/64 63/17/63 87/41/87 
f 88/42/88 60/14/60 59/13/59 89/43/89 
f 79/33/79 91/45/91 51/5/51 
f 52/6/52 92/46/92 71/25/71 
f 73/27/73 72/26/72 76/53/76 75/29/75 
f 53/7/53 73/27/73 75/29/75 54/8/54 
f 82/36/82 81/35/81 85/39/85 84/38/84 
f 47/1/47 82/36/82 84/38/84 48/48/48 
# 82 polygons - 12 triangles

