# 3ds Max Wavefront OBJ Exporter v0.99 - (c)2007 guruware
# File Created: 02.07.2021 20:04:31

mtllib ceiling_round.mtl

#
# object ceiling_round
#

v  -115.0162 229.7261 115.0242
v  -43.4065 218.8632 115.0242
v  -46.8753 218.9696 92.8460
v  -57.0473 218.9696 72.8825
v  -72.8905 218.9696 57.0393
v  -92.8541 218.9696 46.8674
v  -115.0162 218.8632 43.3987
v  20.6111 186.0049 115.0242
v  14.1583 186.2641 73.0149
v  -5.1290 186.2641 35.1615
v  -35.1697 186.2641 5.1209
v  -73.0232 186.2641 -14.1663
v  -115.0162 186.0049 -20.6189
v  71.3084 135.0251 115.0242
v  62.6190 135.3465 57.2690
v  36.0941 135.3465 5.2111
v  -5.2194 135.3465 -36.1023
v  -57.2774 135.3465 -62.6270
v  -115.0162 135.0251 -71.3162
v  103.8060 70.9460 115.0242
v  93.7465 71.1643 47.1550
v  62.5727 71.1643 -14.0268
v  14.0184 71.1643 -62.5809
v  -47.1636 71.1643 -93.7546
v  -115.0162 70.9460 -103.8138
v  115.0163 0.0001 114.9760
v  104.1150 0.0000 43.7864
v  71.3930 0.0000 -20.4344
v  20.4267 -0.0001 -71.4006
v  -43.7942 0.0000 -104.1228
v  -114.9838 -0.0000 -115.0242
v  -114.9837 190.2114 53.1725
v  -114.9837 200.0001 114.9759
v  -53.1803 190.2114 114.9758
v  2.5733 161.8035 114.9758
v  46.8197 117.5571 114.9757
v  75.2057 61.8035 114.9999
v  85.0163 0.0000 114.9756
v  75.2275 0.0000 53.1722
v  46.8195 0.0000 -2.5814
v  2.5730 0.0000 -46.8277
v  -53.1807 0.0000 -75.2355
v  -114.9837 0.0000 -85.0241
v  -115.0000 61.8035 -75.2354
v  -114.9837 117.5571 -46.8275
v  -114.9837 161.8035 -2.5811
v  -56.2052 190.2114 95.8775
v  -64.9838 190.2114 78.6487
v  -78.6567 190.2114 64.9759
v  -95.8856 190.2114 56.1974
v  -3.1804 161.8035 78.6486
v  -19.8782 161.8035 45.8774
v  -45.8856 161.8035 19.8701
v  -78.6568 161.8035 3.1724
v  38.9004 117.5571 64.9757
v  15.9178 117.5571 19.8700
v  -19.8783 117.5571 -15.9260
v  -64.9841 117.5571 -38.9084
v  65.9179 61.8035 56.1971
v  38.9003 61.8035 3.1722
v  -3.1806 61.8035 -38.9085
v  -56.2056 61.8035 -65.9259
# 62 vertices

vn -0.5381 0.6486 0.5383
vn 0.2428 0.7145 0.6562
vn 0.3048 0.9475 -0.0963
vn 0.2586 0.9476 -0.1879
vn 0.1879 0.9476 -0.2586
vn 0.0963 0.9475 -0.3048
vn -0.6560 0.7147 -0.2429
vn 0.4603 0.6135 0.6417
vn 0.5696 0.8017 -0.1811
vn 0.4836 0.8017 -0.3513
vn 0.3513 0.8017 -0.4836
vn 0.1811 0.8017 -0.5696
vn -0.6415 0.6137 -0.4604
vn 0.6337 0.4495 0.6296
vn 0.7757 0.5808 -0.2471
vn 0.6586 0.5808 -0.4785
vn 0.4785 0.5808 -0.6586
vn 0.2471 0.5808 -0.7757
vn -0.6294 0.4496 -0.6338
vn 0.7464 0.2375 0.6217
vn 0.9082 0.3022 -0.2897
vn 0.7712 0.3022 -0.5603
vn 0.5603 0.3022 -0.7712
vn 0.2897 0.3022 -0.9081
vn -0.6215 0.2376 -0.7465
vn 0.6708 -0.5240 0.5248
vn 0.7500 -0.6157 -0.2416
vn 0.6371 -0.6163 -0.4629
vn 0.4629 -0.6163 -0.6371
vn 0.2416 -0.6157 -0.7500
vn -0.5249 -0.5240 -0.6708
vn -0.7603 -0.6147 0.2098
vn -0.6129 -0.4990 0.6127
vn -0.2099 -0.6149 0.7601
vn -0.3787 -0.5078 0.7738
vn -0.5054 -0.3600 0.7842
vn -0.5830 -0.1864 0.7908
vn -0.4767 -0.6217 0.6214
vn -0.5789 -0.7934 0.1881
vn -0.4924 -0.7934 0.3578
vn -0.3578 -0.7934 0.4924
vn -0.1881 -0.7934 0.5789
vn -0.6215 -0.6216 0.4768
vn -0.7911 -0.1863 0.5827
vn -0.7844 -0.3600 0.5052
vn -0.7740 -0.5076 0.3785
vn -0.3072 -0.9464 0.0998
vn -0.2613 -0.9464 0.1899
vn -0.1899 -0.9464 0.2613
vn -0.0998 -0.9464 0.3072
vn -0.5686 -0.8016 0.1847
vn -0.4837 -0.8016 0.3514
vn -0.3514 -0.8016 0.4837
vn -0.1847 -0.8016 0.5686
vn -0.7744 -0.5805 0.2516
vn -0.6588 -0.5805 0.4786
vn -0.4786 -0.5805 0.6588
vn -0.2516 -0.5805 0.7744
vn -0.9059 -0.3045 0.2942
vn -0.7706 -0.3045 0.5599
vn -0.5599 -0.3045 0.7706
vn -0.2943 -0.3045 0.9059
# 62 vertex normals

vt 1.0000 -0.0000 0.0000
vt 0.6887 0.0473 0.0000
vt 0.7038 0.0468 0.0000
vt 0.7480 0.0468 0.0000
vt 0.8169 0.0468 0.0000
vt 0.9037 0.0468 0.0000
vt 1.0000 0.0473 0.0000
vt 0.4104 0.1903 0.0000
vt 0.4385 0.1892 0.0000
vt 0.5223 0.1892 0.0000
vt 0.6529 0.1892 0.0000
vt 0.8174 0.1892 0.0000
vt 1.0000 0.1903 0.0000
vt 0.1900 0.4122 0.0000
vt 0.2278 0.4108 0.0000
vt 0.3431 0.4108 0.0000
vt 0.5227 0.4108 0.0000
vt 0.7490 0.4108 0.0000
vt 1.0000 0.4122 0.0000
vt 0.0487 0.6912 0.0000
vt 0.0925 0.6902 0.0000
vt 0.2280 0.6902 0.0000
vt 0.4391 0.6902 0.0000
vt 0.7050 0.6902 0.0000
vt 1.0000 0.6912 0.0000
vt -0.0000 1.0000 0.0000
vt 0.0474 1.0000 0.0000
vt 0.1896 1.0000 0.0000
vt 0.4112 1.0000 0.0000
vt 0.6904 1.0000 0.0000
vt 0.9999 1.0000 0.0000
vt 0.9999 0.1720 0.0000
vt 0.9999 0.1294 0.0000
vt 0.7312 0.1720 0.0000
vt 0.4888 0.2957 0.0000
vt 0.2965 0.4883 0.0000
vt 0.1731 0.7310 0.0000
vt 0.1304 1.0000 0.0000
vt 0.1730 1.0000 0.0000
vt 0.2965 1.0000 0.0000
vt 0.4888 1.0000 0.0000
vt 0.7312 1.0000 0.0000
vt 0.9999 0.7310 0.0000
vt 0.9999 0.4883 0.0000
vt 0.9999 0.2957 0.0000
vt 0.7443 0.1720 0.0000
vt 0.7825 0.1720 0.0000
vt 0.8419 0.1720 0.0000
vt 0.9168 0.1720 0.0000
vt 0.5138 0.2957 0.0000
vt 0.5864 0.2957 0.0000
vt 0.6995 0.2957 0.0000
vt 0.8419 0.2957 0.0000
vt 0.3309 0.4883 0.0000
vt 0.4308 0.4883 0.0000
vt 0.5864 0.4883 0.0000
vt 0.7825 0.4883 0.0000
vt 0.2134 0.7310 0.0000
vt 0.3309 0.7310 0.0000
vt 0.5138 0.7310 0.0000
vt 0.7443 0.7310 0.0000
# 61 texture coords

o ceiling_round
g ceiling_round
usemtl Material__25
s 1
f 1/1/1 2/2/2 3/3/3 
f 1/1/1 3/3/3 4/4/4 
f 1/1/1 4/4/4 5/5/5 
f 1/1/1 5/5/5 6/6/6 
f 1/1/1 6/6/6 7/7/7 
f 2/2/2 8/8/8 9/9/9 3/3/3 
f 3/3/3 9/9/9 10/10/10 4/4/4 
f 4/4/4 10/10/10 11/11/11 5/5/5 
f 5/5/5 11/11/11 12/12/12 6/6/6 
f 6/6/6 12/12/12 13/13/13 7/7/7 
f 8/8/8 14/14/14 15/15/15 9/9/9 
f 9/9/9 15/15/15 16/16/16 10/10/10 
f 10/10/10 16/16/16 17/17/17 11/11/11 
f 11/11/11 17/17/17 18/18/18 12/12/12 
f 12/12/12 18/18/18 19/19/19 13/13/13 
f 14/14/14 20/20/20 21/21/21 15/15/15 
f 15/15/15 21/21/21 22/22/22 16/16/16 
f 16/16/16 22/22/22 23/23/23 17/17/17 
f 17/17/17 23/23/23 24/24/24 18/18/18 
f 18/18/18 24/24/24 25/25/25 19/19/19 
f 20/20/20 26/26/26 27/27/27 21/21/21 
f 21/21/21 27/27/27 28/28/28 22/22/22 
f 22/22/22 28/28/28 29/29/29 23/23/23 
f 23/23/23 29/29/29 30/30/30 24/24/24 
f 24/24/24 30/30/30 31/31/31 25/25/25 
s off
f 32/32/32 33/33/33 1/1/1 7/7/7 
f 33/33/33 34/34/34 2/2/2 1/1/1 
f 34/34/34 35/35/35 8/8/8 2/2/2 
f 35/35/35 36/36/36 14/14/14 8/8/8 
f 36/36/36 37/37/37 20/20/20 14/14/14 
f 37/37/37 38/38/38 26/26/26 20/20/20 
f 38/38/38 39/39/39 27/27/27 26/26/26 
f 39/39/39 40/40/40 28/28/28 27/27/27 
f 40/40/40 41/41/41 29/29/29 28/28/28 
f 41/41/41 42/42/42 30/30/30 29/29/29 
f 42/42/42 43/31/43 31/31/31 30/30/30 
f 43/31/43 44/43/44 25/25/25 31/31/31 
f 44/43/44 45/44/45 19/19/19 25/25/25 
f 45/44/45 46/45/46 13/13/13 19/19/19 
f 46/45/46 32/32/32 7/7/7 13/13/13 
s 1
f 33/33/33 47/46/47 34/34/34 
f 33/33/33 48/47/48 47/46/47 
f 33/33/33 49/48/49 48/47/48 
f 33/33/33 50/49/50 49/48/49 
f 33/33/33 32/32/32 50/49/50 
f 34/34/34 47/46/47 51/50/51 35/35/35 
f 47/46/47 48/47/48 52/51/52 51/50/51 
f 48/47/48 49/48/49 53/52/53 52/51/52 
f 49/48/49 50/49/50 54/53/54 53/52/53 
f 50/49/50 32/32/32 46/45/46 54/53/54 
f 35/35/35 51/50/51 55/54/55 36/36/36 
f 51/50/51 52/51/52 56/55/56 55/54/55 
f 52/51/52 53/52/53 57/56/57 56/55/56 
f 53/52/53 54/53/54 58/57/58 57/56/57 
f 54/53/54 46/45/46 45/44/45 58/57/58 
f 36/36/36 55/54/55 59/58/59 37/37/37 
f 55/54/55 56/55/56 60/59/60 59/58/59 
f 56/55/56 57/56/57 61/60/61 60/59/60 
f 57/56/57 58/57/58 62/61/62 61/60/61 
f 58/57/58 45/44/45 44/43/44 62/61/62 
f 37/37/37 59/58/59 39/39/39 38/38/38 
f 59/58/59 60/59/60 40/40/40 39/39/39 
f 60/59/60 61/60/61 41/41/41 40/40/40 
f 61/60/61 62/61/62 42/42/42 41/41/41 
f 62/61/62 44/43/44 43/31/43 42/42/42 
# 55 polygons - 10 triangles

