# 3ds Max Wavefront OBJ Exporter v0.99 - (c)2007 guruware
# File Created: 02.07.2021 20:04:19

mtllib ceiling.mtl

#
# object ceiling
#

v  -2.7129 162.0632 100.0000
v  53.0854 190.3425 100.0001
v  43.3115 218.9974 99.9518
v  -20.7512 186.2643 99.9515
v  114.8921 199.9768 100.0000
v  114.8596 229.7030 100.0482
v  -75.3072 61.9026 99.9760
v  -47.0032 117.7122 100.0001
v  -71.4920 135.1794 99.9516
v  -103.9070 71.0453 99.9517
v  -115.0330 0.1196 99.9999
v  -85.0330 0.1196 100.0003
v  -2.5241 161.8035 -99.9997
v  53.2296 190.2114 -99.9998
v  115.0330 200.0000 -100.0000
v  115.0005 229.7262 -99.9517
v  43.4558 218.8632 -100.0482
v  -20.5618 186.0049 -100.0482
v  -71.2591 135.0251 -100.0482
v  -103.7567 70.9460 -100.0482
v  -114.9670 0.0000 -100.0001
v  -84.9670 0.0000 -99.9996
v  -75.1564 61.8035 -100.0239
v  -46.7704 117.5571 -99.9997
# 24 vertices

vn 0.3913 -0.5394 0.7456
vn 0.2047 -0.6349 0.7450
vn -0.2267 0.7054 0.6716
vn -0.4365 0.5980 0.6722
vn 0.6158 -0.5273 0.5855
vn 0.5353 0.6223 0.5711
vn 0.6353 -0.2054 0.7444
vn 0.5398 -0.3913 0.7453
vn -0.6002 0.4331 0.6724
vn -0.7039 0.2271 0.6731
vn -0.6247 -0.5338 0.5698
vn 0.5264 -0.6156 0.5864
vn 0.3935 -0.5416 -0.7429
vn 0.2067 -0.6363 -0.7432
vn 0.6165 -0.5254 -0.5864
vn 0.5359 0.6239 -0.5688
vn -0.2268 0.7034 -0.6736
vn -0.4356 0.5959 -0.6746
vn -0.5981 0.4324 -0.6747
vn -0.7026 0.2272 -0.6743
vn -0.6248 -0.5343 -0.5693
vn 0.5262 -0.6165 -0.5857
vn 0.6360 -0.2066 -0.7435
vn 0.5416 -0.3932 -0.7430
# 24 vertex normals

vt 0.5118 0.2945 0.0000
vt 0.2693 0.1714 0.0000
vt 0.3117 0.0467 0.0000
vt 0.5902 0.1892 0.0000
vt 0.0006 0.1295 0.0000
vt 0.0008 0.0001 0.0000
vt 0.8273 0.7305 0.0000
vt 0.7043 0.4876 0.0000
vt 0.8107 0.4116 0.0000
vt 0.9516 0.6907 0.0000
vt 1.0000 0.9995 0.0000
vt 0.8696 0.9995 0.0000
vt 0.5110 0.2957 0.0000
vt 0.2686 0.1720 0.0000
vt 0.0000 0.1294 0.0000
vt 0.0001 -0.0000 0.0000
vt 0.3111 0.0473 0.0000
vt 0.5894 0.1903 0.0000
vt 0.8097 0.4122 0.0000
vt 0.9510 0.6912 0.0000
vt 0.9997 1.0000 0.0000
vt 0.8693 1.0000 0.0000
vt 0.8267 0.7310 0.0000
vt 0.7033 0.4883 0.0000
# 24 texture coords

o ceiling
g ceiling
usemtl Material__25
s off
f 1/1/1 2/2/2 3/3/3 4/4/4 
f 2/2/2 5/5/5 6/6/6 3/3/3 
f 7/7/7 8/8/8 9/9/9 10/10/10 
f 8/8/8 1/1/1 4/4/4 9/9/9 
f 11/11/11 12/12/12 7/7/7 10/10/10 
f 13/13/13 14/14/14 2/2/2 1/1/1 
f 14/14/14 15/15/15 5/5/5 2/2/2 
f 15/15/15 16/16/16 6/6/6 5/5/5 
f 16/16/16 17/17/17 3/3/3 6/6/6 
f 17/17/17 18/18/18 4/4/4 3/3/3 
f 18/18/18 19/19/19 9/9/9 4/4/4 
f 19/19/19 20/20/20 10/10/10 9/9/9 
f 20/20/20 21/21/21 11/11/11 10/10/10 
f 21/21/21 22/22/22 12/12/12 11/11/11 
f 22/22/22 23/23/23 7/7/7 12/12/12 
f 23/23/23 24/24/24 8/8/8 7/7/7 
f 24/24/24 13/13/13 1/1/1 8/8/8 
f 21/21/21 20/20/20 23/23/23 22/22/22 
f 20/20/20 19/19/19 24/24/24 23/23/23 
f 19/19/19 18/18/18 13/13/13 24/24/24 
f 18/18/18 17/17/17 14/14/14 13/13/13 
f 17/17/17 16/16/16 15/15/15 14/14/14 
# 22 polygons

