# 3ds Max Wavefront OBJ Exporter v0.99 - (c)2007 guruware
# File Created: 12.07.2021 15:11:13

mtllib ceiling_round_01.mtl

#
# object ceiling_round_01
#

v  97.3817 162.0864 214.9385
v  153.1799 190.3657 214.9386
v  143.4061 219.0206 214.8902
v  79.3434 186.2874 214.8900
v  214.9866 200.0000 214.9384
v  214.9542 229.7261 214.9867
v  24.7874 61.9258 214.9145
v  53.0913 117.7353 214.9386
v  28.6026 135.2026 214.8900
v  -3.8125 71.0685 214.8902
v  -14.9384 0.1427 214.9384
v  15.0616 0.1427 214.9388
v  -0.2799 190.3587 -84.6167
v  84.6036 190.3611 0.2886
v  38.9110 162.0303 32.2829
v  -32.2691 162.0023 -38.9313
v  35.1697 200.0857 -135.2442
v  135.2315 200.0571 -35.1616
v  35.1906 229.8118 -135.1899
v  135.2326 229.7832 -35.1035
v  -6.5712 219.0118 -76.6393
v  76.5712 219.0147 6.5013
v  -43.3006 186.2036 -24.1845
v  24.1089 186.2314 43.2357
v  -72.3893 135.1818 17.3586
v  -17.4413 135.1886 72.3295
v  -91.0102 71.0807 43.9521
v  -44.0211 71.0766 90.9410
v  -97.3814 0.1428 53.1350
v  -53.1350 0.1427 97.3814
v  -79.5281 0.1427 28.5619
v  -28.5618 0.1428 79.5282
v  -73.9403 61.9380 20.5394
v  -20.5811 61.9340 73.9103
v  -57.6578 117.7140 -2.6723
v  2.6449 117.7212 57.6768
v  -214.9385 0.0000 15.0133
v  -214.9866 70.9460 3.8030
v  -214.9623 61.8035 -24.7973
v  -214.9380 0.0000 -14.9867
v  -214.9866 135.0251 -28.6946
v  -214.9381 117.5571 -53.1833
v  -214.9866 186.0049 -79.3919
v  -214.9382 161.8035 -97.4296
v  -214.9866 218.8632 -143.4095
v  -214.9383 190.2114 -153.1833
v  -214.8902 229.7262 -214.9542
v  -214.9384 200.0000 -214.9867
v  133.9636 190.3633 96.5040
v  81.5388 162.0583 115.5849
v  -122.4177 161.9742 -83.7704
v  -107.9853 190.3564 -137.6329
v  192.0423 200.0285 75.3649
v  -91.9894 200.1141 -197.3311
v  192.0282 229.7547 75.4214
v  -91.9512 229.8403 -197.2872
v  124.0662 219.0176 98.9275
v  -112.1828 219.0089 -128.2950
v  63.8754 186.2594 120.8350
v  -128.7542 186.1756 -66.4500
v  16.2029 135.1956 138.1865
v  -141.8778 135.1749 -17.4717
v  -14.2728 71.0725 149.2788
v  -150.2845 71.0848 13.9026
v  -24.7272 0.1427 153.1350
v  -153.1351 0.1428 24.7271
v  4.1602 0.1427 143.7489
v  -143.7489 0.1427 -4.1603
v  13.3071 61.9298 140.3938
v  -141.2376 61.9420 -13.6265
v  39.9277 117.7282 130.7303
v  -133.8717 117.7069 -41.0232
# 72 vertices

vn 0.4038 -0.5722 0.7138
vn 0.2001 -0.6549 0.7288
vn -0.2104 0.6931 0.6895
vn -0.4093 0.5768 0.7069
vn 0.6627 -0.5220 0.5370
vn 0.5883 0.6118 0.5288
vn 0.6843 -0.2249 0.6937
vn 0.5729 -0.4234 0.7018
vn -0.5594 0.4117 0.7194
vn -0.6524 0.2140 0.7270
vn -0.5728 -0.5457 0.6116
vn 0.5721 -0.6112 0.5470
vn 0.1707 -0.9560 -0.2384
vn 0.2374 -0.9559 -0.1728
vn 0.4667 -0.8167 -0.3394
vn 0.3371 -0.8169 -0.4681
vn 0.4567 -0.6175 -0.6404
vn 0.6342 -0.6195 -0.4625
vn 0.4032 0.7204 -0.5643
vn 0.5587 0.7226 -0.4071
vn -0.1689 0.9568 0.2367
vn -0.2355 0.9566 0.1715
vn -0.3379 0.8152 0.4704
vn -0.4686 0.8149 0.3410
vn -0.4713 0.5932 0.6527
vn -0.6512 0.5928 0.4738
vn -0.5578 0.3121 0.7691
vn -0.7684 0.3118 0.5589
vn -0.4258 -0.6897 0.5857
vn -0.5857 -0.6897 0.4257
vn 0.4023 -0.7294 -0.5533
vn 0.5534 -0.7293 -0.4023
vn 0.5579 -0.3131 -0.7686
vn 0.7682 -0.3128 -0.5586
vn 0.4711 -0.5949 -0.6512
vn 0.6503 -0.5946 -0.4728
vn -0.6103 -0.5465 0.5735
vn -0.7268 0.2143 0.6526
vn -0.6940 -0.2256 -0.6837
vn -0.5465 -0.6123 -0.5713
vn -0.7187 0.4124 0.5599
vn -0.7017 -0.4236 -0.5729
vn -0.7060 0.5767 0.4110
vn -0.7139 -0.5713 -0.4049
vn -0.6895 0.6925 0.2124
vn -0.7286 -0.6543 -0.2027
vn -0.5326 0.6143 -0.5823
vn -0.5444 -0.5212 -0.6573
vn 0.2784 -0.9561 -0.0917
vn 0.5486 -0.8167 -0.1787
vn 0.1739 -0.8164 -0.5507
vn 0.0877 -0.9556 -0.2812
vn 0.7452 -0.6196 -0.2465
vn 0.2307 -0.6190 -0.7508
vn 0.6569 0.7223 -0.2164
vn 0.2033 0.7228 -0.6604
vn -0.2762 0.9567 0.0918
vn -0.0867 0.9563 0.2791
vn -0.5506 0.8149 0.1810
vn -0.1748 0.8146 0.5531
vn -0.7657 0.5925 0.2501
vn -0.2456 0.5928 0.7670
vn -0.9037 0.3114 0.2938
vn -0.2927 0.3121 0.9039
vn -0.6887 -0.6899 0.2233
vn -0.2232 -0.6895 0.6890
vn 0.6520 -0.7287 -0.2095
vn 0.2108 -0.7287 -0.6516
vn 0.9042 -0.3125 -0.2912
vn 0.2907 -0.3132 -0.9041
vn 0.7652 -0.5943 -0.2475
vn 0.2445 -0.5947 -0.7659
# 72 vertex normals

vt 0.2737 0.2950 0.0000
vt 0.1441 0.1721 0.0000
vt 0.1668 0.0475 0.0000
vt 0.3157 0.1898 0.0000
vt 0.0005 0.1302 0.0000
vt 0.0006 0.0010 0.0000
vt 0.4424 0.7303 0.0000
vt 0.3766 0.4878 0.0000
vt 0.4335 0.4118 0.0000
vt 0.5089 0.6906 0.0000
vt 0.5347 0.9989 0.0000
vt 0.4650 0.9989 0.0000
vt 0.5007 0.1721 0.0000
vt 0.3034 0.1721 0.0000
vt 0.4096 0.2952 0.0000
vt 0.5750 0.2954 0.0000
vt 0.4183 0.1298 0.0000
vt 0.1858 0.1300 0.0000
vt 0.4182 0.0006 0.0000
vt 0.1858 0.0007 0.0000
vt 0.5153 0.0476 0.0000
vt 0.3221 0.0476 0.0000
vt 0.6006 0.1902 0.0000
vt 0.4440 0.1900 0.0000
vt 0.6682 0.4119 0.0000
vt 0.5405 0.4119 0.0000
vt 0.7115 0.6905 0.0000
vt 0.6023 0.6906 0.0000
vt 0.7263 0.9989 0.0000
vt 0.6235 0.9989 0.0000
vt 0.6848 0.9989 0.0000
vt 0.5664 0.9989 0.0000
vt 0.6718 0.7303 0.0000
vt 0.5478 0.7303 0.0000
vt 0.6340 0.4879 0.0000
vt 0.4939 0.4878 0.0000
vt 0.9994 0.9995 0.0000
vt 0.9995 0.6911 0.0000
vt 0.9994 0.7309 0.0000
vt 0.9995 0.4126 0.0000
vt 0.9994 0.4885 0.0000
vt 0.9995 0.1910 0.0000
vt 0.9994 0.2962 0.0000
vt 0.9995 0.0482 0.0000
vt 0.9994 0.1727 0.0000
vt 0.9993 0.0010 0.0000
vt 0.9994 0.1302 0.0000
vt 0.1887 0.1721 0.0000
vt 0.3106 0.2951 0.0000
vt 0.7844 0.2955 0.0000
vt 0.7509 0.1721 0.0000
vt 0.0538 0.1301 0.0000
vt 0.7137 0.1297 0.0000
vt 0.0538 0.0009 0.0000
vt 0.7136 0.0005 0.0000
vt 0.2117 0.0475 0.0000
vt 0.7606 0.0476 0.0000
vt 0.3516 0.1899 0.0000
vt 0.7991 0.1903 0.0000
vt 0.4624 0.4119 0.0000
vt 0.8296 0.4120 0.0000
vt 0.5332 0.6906 0.0000
vt 0.8492 0.6905 0.0000
vt 0.5575 0.9989 0.0000
vt 0.8558 0.9989 0.0000
vt 0.4903 0.9989 0.0000
vt 0.8340 0.9989 0.0000
vt 0.4691 0.7303 0.0000
vt 0.8282 0.7303 0.0000
vt 0.4072 0.4878 0.0000
vt 0.8110 0.4879 0.0000
# 71 texture coords

o ceiling_round_01
g ceiling_round_01
usemtl Material__25
s off
f 1/1/1 2/2/2 3/3/3 4/4/4 
f 2/2/2 5/5/5 6/6/6 3/3/3 
f 7/7/7 8/8/8 9/9/9 10/10/10 
f 8/8/8 1/1/1 4/4/4 9/9/9 
f 11/11/11 12/12/12 7/7/7 10/10/10 
f 13/13/13 14/14/14 15/15/15 16/16/16 
f 17/17/17 18/18/18 14/14/14 13/13/13 
f 19/19/19 20/20/20 18/18/18 17/17/17 
f 21/21/21 22/22/22 20/20/20 19/19/19 
f 23/23/23 24/24/24 22/22/22 21/21/21 
f 25/25/25 26/26/26 24/24/24 23/23/23 
f 27/27/27 28/28/28 26/26/26 25/25/25 
f 29/29/29 30/30/30 28/28/28 27/27/27 
f 31/31/31 32/32/32 30/30/30 29/29/29 
f 33/33/33 34/34/34 32/32/32 31/31/31 
f 35/35/35 36/36/36 34/34/34 33/33/33 
f 16/16/16 15/15/15 36/36/36 35/35/35 
f 37/37/37 38/38/38 39/39/39 40/37/40 
f 38/38/38 41/40/41 42/41/42 39/39/39 
f 41/40/41 43/42/43 44/43/44 42/41/42 
f 43/42/43 45/44/45 46/45/46 44/43/44 
f 45/44/45 47/46/47 48/47/48 46/45/46 
f 49/48/49 2/2/2 1/1/1 50/49/50 
f 14/14/14 49/48/49 50/49/50 15/15/15 
f 51/50/51 44/43/44 46/45/46 52/51/52 
f 16/16/16 51/50/51 52/51/52 13/13/13 
f 53/52/53 5/5/5 2/2/2 49/48/49 
f 18/18/18 53/52/53 49/48/49 14/14/14 
f 52/51/52 46/45/46 48/47/48 54/53/54 
f 13/13/13 52/51/52 54/53/54 17/17/17 
f 55/54/55 6/6/6 5/5/5 53/52/53 
f 20/20/20 55/54/55 53/52/53 18/18/18 
f 54/53/54 48/47/48 47/46/47 56/55/56 
f 17/17/17 54/53/54 56/55/56 19/19/19 
f 57/56/57 3/3/3 6/6/6 55/54/55 
f 22/22/22 57/56/57 55/54/55 20/20/20 
f 56/55/56 47/46/47 45/44/45 58/57/58 
f 19/19/19 56/55/56 58/57/58 21/21/21 
f 59/58/59 4/4/4 3/3/3 57/56/57 
f 24/24/24 59/58/59 57/56/57 22/22/22 
f 58/57/58 45/44/45 43/42/43 60/59/60 
f 21/21/21 58/57/58 60/59/60 23/23/23 
f 61/60/61 9/9/9 4/4/4 59/58/59 
f 26/26/26 61/60/61 59/58/59 24/24/24 
f 60/59/60 43/42/43 41/40/41 62/61/62 
f 23/23/23 60/59/60 62/61/62 25/25/25 
f 63/62/63 10/10/10 9/9/9 61/60/61 
f 28/28/28 63/62/63 61/60/61 26/26/26 
f 62/61/62 41/40/41 38/38/38 64/63/64 
f 25/25/25 62/61/62 64/63/64 27/27/27 
f 65/64/65 11/11/11 10/10/10 63/62/63 
f 30/30/30 65/64/65 63/62/63 28/28/28 
f 64/63/64 38/38/38 37/37/37 66/65/66 
f 27/27/27 64/63/64 66/65/66 29/29/29 
f 67/66/67 12/12/12 11/11/11 65/64/65 
f 32/32/32 67/66/67 65/64/65 30/30/30 
f 66/65/66 37/37/37 40/37/40 68/67/68 
f 29/29/29 66/65/66 68/67/68 31/31/31 
f 69/68/69 7/7/7 12/12/12 67/66/67 
f 34/34/34 69/68/69 67/66/67 32/32/32 
f 68/67/68 40/37/40 39/39/39 70/69/70 
f 31/31/31 68/67/68 70/69/70 33/33/33 
f 71/70/71 8/8/8 7/7/7 69/68/69 
f 36/36/36 71/70/71 69/68/69 34/34/34 
f 70/69/70 39/39/39 42/41/42 72/71/72 
f 33/33/33 70/69/70 72/71/72 35/35/35 
f 50/49/50 1/1/1 8/8/8 71/70/71 
f 15/15/15 50/49/50 71/70/71 36/36/36 
f 72/71/72 42/41/42 44/43/44 51/50/51 
f 35/35/35 72/71/72 51/50/51 16/16/16 
# 70 polygons

