# 3ds Max Wavefront OBJ Exporter v0.99 - (c)2007 guruware
# File Created: 02.07.2021 20:09:07

mtllib column_top.mtl

#
# object column_top
#

v  31.1095 59.2722 23.6711
v  -28.8577 59.2722 -32.5579
v  29.4639 59.2722 -27.1619
v  32.6815 59.2722 -20.4559
v  27.3312 80.6050 30.4690
v  31.5332 80.6050 23.6665
v  32.8332 80.6050 -20.8332
v  -28.6216 80.6050 28.0126
v  33.7414 61.9299 30.0797
v  35.7318 63.0059 -26.7570
v  35.7405 76.9652 -26.7360
v  33.6913 73.5991 30.0792
v  33.1035 63.0449 -32.3448
v  -30.4123 63.7709 -34.5715
v  -30.4074 77.5169 -34.6420
v  33.1214 77.0353 -32.5112
v  -33.3938 63.6865 -29.2052
v  -35.4241 62.4773 27.6081
v  -35.4383 77.4360 27.6120
v  -33.4348 77.4707 -29.2040
v  -32.8286 62.4378 33.2237
v  30.6977 61.8477 35.5579
v  30.6925 73.6923 35.4501
v  -32.8258 77.3783 33.1893
v  33.4283 76.8720 29.6081
v  -26.9291 80.6050 -28.9749
v  29.8349 80.6050 -26.9527
v  -29.7534 79.0733 -33.2307
v  -32.3823 80.6050 20.7303
v  -30.8455 80.6050 -22.4105
v  -32.6480 79.4972 -27.5975
v  -34.7938 79.4986 26.6903
v  30.4025 76.9578 34.9566
v  -32.2885 79.0808 32.2561
v  -29.0126 59.2722 27.8400
v  27.6590 59.2722 29.8589
v  -32.2803 60.5590 32.2537
v  -31.8244 59.2722 -26.7554
v  -32.5143 59.2722 19.8278
v  -34.9815 60.9507 26.6223
v  -33.7047 62.3213 -31.1101
v  -30.7494 62.3380 -35.5598
v  32.5514 61.6246 -31.5137
v  35.2067 61.2897 -25.6866
v  31.3838 78.1184 34.1298
v  32.8853 78.1293 31.4674
v  21.0321 30.0109 -3.5549
v  -19.5340 30.0109 -26.0269
v  19.4300 30.0109 -23.3489
v  21.6432 30.0109 -20.7079
v  18.5788 59.9588 -0.9475
v  21.3147 59.9588 -3.5525
v  21.7406 59.9588 -20.8531
v  -18.7757 59.9588 -2.4583
v  22.8516 33.7419 -1.0354
v  23.6157 35.2525 -23.1292
v  23.6217 54.8491 -23.1209
v  22.8182 50.1236 -1.0361
v  21.8068 35.3072 -25.3293
v  -20.5911 36.3264 -26.8257
v  -20.5886 55.6236 -26.8531
v  21.8171 54.9476 -25.3939
v  -22.5271 36.2079 -24.7674
v  -23.3181 34.5104 -2.6831
v  -23.3275 55.5100 -2.6817
v  -22.5544 55.5588 -24.7673
v  -21.5308 34.4549 -0.4725
v  20.8752 33.6265 1.0658
v  20.8707 50.2545 1.0238
v  -21.5292 55.4291 -0.4858
v  22.6380 54.7182 -1.2220
v  -18.2118 59.9588 -24.6137
v  19.6795 59.9588 -23.2638
v  -20.1382 57.8085 -26.2975
v  -21.3569 59.9588 -5.3289
v  -20.7595 59.9588 -22.0985
v  -22.0136 58.4037 -24.1345
v  -22.9067 58.4056 -3.0340
v  20.6724 54.8387 0.8290
v  -21.1800 57.8190 -0.8436
v  -19.0382 30.0109 -2.5293
v  18.7914 30.0109 -1.1816
v  -21.1745 31.8175 -0.8445
v  -21.4557 30.0109 -23.7987
v  -21.4539 30.0109 -5.6813
v  -23.0326 32.3672 -3.0623
v  -22.7534 34.2913 -25.5116
v  -20.8259 34.3148 -27.2136
v  21.4466 33.3133 -25.0114
v  23.2760 32.8431 -22.7179
v  21.3189 56.4680 0.5170
v  22.2942 56.4833 -0.5040
v  21.3617 30.0109 21.7714
v  -20.1696 30.0109 1.4980
v  18.7132 30.0109 2.0913
v  21.0545 30.0109 4.6103
v  19.0615 59.9588 24.5061
v  21.6428 59.9588 21.7587
v  21.1437 59.9588 4.4601
v  -18.1588 59.9588 24.9924
v  23.3051 33.7419 24.1902
v  22.8866 35.2525 2.0871
v  22.8930 54.8491 2.0950
v  23.2718 50.1236 24.1913
v  20.9707 35.3072 -0.0132
v  -21.2633 36.3264 0.7568
v  -21.2622 55.6236 0.7293
v  20.9775 54.9476 -0.0783
v  -23.0784 36.2079 2.9155
v  -22.6871 34.5104 25.0105
v  -22.6964 55.5100 25.0124
v  -23.1055 55.5588 2.9171
v  -20.7921 34.4549 27.1225
v  21.4522 33.6265 26.3939
v  21.4454 50.2545 26.3522
v  -20.7913 55.4291 27.1091
v  23.0828 54.7182 24.0152
v  -18.7796 59.9588 2.8386
v  18.9658 59.9588 2.1629
v  -20.7848 57.8085 1.2600
v  -20.8783 59.9588 22.2638
v  -21.1786 59.9588 5.4862
v  -22.5340 58.4037 3.5201
v  -22.2968 58.4056 24.6382
v  21.2378 54.8387 26.1682
v  -20.4631 57.8190 26.7332
v  -18.4236 30.0109 24.9356
v  19.2604 30.0109 24.2610
v  -20.4578 31.8175 26.7320
v  -21.9615 30.0109 3.8256
v  -20.9935 30.0109 21.9170
v  -22.4234 32.3672 24.6166
v  -23.3431 34.2913 2.1845
v  -21.5173 34.3148 0.3820
v  20.6296 33.3133 0.3234
v  22.5708 32.8431 2.5159
v  21.8640 56.4680 25.8222
v  22.7792 56.4833 24.7506
v  6.2855 0.2221 18.4168
v  26.3780 0.2221 -16.7143
v  25.9521 0.2221 15.9673
v  23.4434 0.2221 17.9634
v  3.5413 30.1700 16.5150
v  6.2994 30.1700 18.6529
v  23.5940 30.1700 18.0366
v  2.8949 30.1700 -14.7571
v  3.8754 3.9531 20.0775
v  25.9742 5.4637 19.4743
v  25.9663 25.0603 19.4798
v  3.8742 20.3348 20.0495
v  28.0661 5.5184 17.8404
v  27.1145 6.5376 -17.6417
v  27.1420 25.8348 -17.6412
v  28.1311 25.1588 17.8454
v  24.9481 6.4191 -19.1425
v  2.8573 4.7217 -18.5623
v  2.8554 25.7212 -18.5701
v  24.9465 25.7700 -19.1653
v  0.7537 4.6661 -16.9458
v  1.6639 3.8377 18.5454
v  1.7056 20.4657 18.5393
v  0.7671 25.6403 -16.9453
v  4.0494 24.9294 19.8887
v  25.0436 30.1700 -15.5309
v  25.8816 30.1700 16.1804
v  26.6133 28.0197 -17.2339
v  5.6115 30.1700 -17.0735
v  22.3859 30.1700 -17.5168
v  24.3460 28.6149 -18.6782
v  3.2313 28.6168 -18.2385
v  1.8887 25.0499 18.3627
v  1.1444 28.0303 -16.6738
v  2.9506 0.2221 -14.9803
v  3.7872 0.2221 16.6794
v  1.1456 2.0287 -16.6693
v  24.0430 0.2221 -18.1935
v  5.9578 0.2221 -17.1743
v  3.2523 2.5784 -18.3452
v  25.6780 4.5025 -19.3732
v  27.4881 4.5260 -17.8595
v  27.7280 3.5245 17.5576
v  25.5441 3.0544 19.2138
v  2.2374 26.6792 18.8850
v  3.3128 26.6945 19.6419
v  -3.4472 0.2221 -23.2914
v  -24.6197 0.2221 22.4247
v  -23.1804 0.2221 -20.8060
v  -20.6110 0.2221 -23.3511
v  -0.7633 30.1700 -20.6693
v  -3.4538 30.1700 -23.6044
v  -20.7593 30.1700 -23.4538
v  -1.0871 30.1700 20.7377
v  -0.9868 3.9531 -25.3963
v  -23.0937 5.4637 -25.4477
v  -23.0856 25.0603 -25.4546
v  -0.9864 20.3348 -25.3593
v  -25.2353 5.5184 -23.3660
v  -25.3846 6.5376 23.6238
v  -25.4121 25.8348 23.6219
v  -25.3001 25.1588 -23.3751
v  -23.2658 6.4191 25.6929
v  -1.1676 4.7217 25.7744
v  -1.1659 25.7212 25.7848
v  -23.2649 25.7700 25.7231
v  0.9852 4.6661 23.7163
v  1.1762 3.8377 -23.2839
v  1.1343 20.4657 -23.2774
v  0.9718 25.6403 23.7150
v  -1.1665 24.9294 -25.1531
v  -23.2492 30.1700 20.9102
v  -23.1033 30.1700 -21.0854
v  -24.8711 28.0197 23.1034
v  -3.8743 30.1700 23.6985
v  -20.6544 30.1700 23.6402
v  -22.6496 28.6149 25.1017
v  -1.5313 28.6168 25.3316
v  0.9459 25.0499 -23.0508
v  0.6031 28.0303 23.3413
v  -1.1497 0.2221 21.0309
v  -1.0040 0.2221 -20.8962
v  0.6021 2.0287 23.3353
v  -22.3317 0.2221 24.4720
v  -4.2235 0.2221 23.8185
v  -1.5556 2.5784 25.4720
v  -24.0025 4.5025 25.9702
v  -25.7648 4.5260 23.8975
v  -24.9061 3.5245 -22.9788
v  -22.6719 3.0544 -25.0865
v  0.6135 26.6792 -23.7553
v  -0.4379 26.6945 -24.7983
# 230 vertices

vn 0.4715 -0.8670 0.1612
vn -0.1861 -0.7653 -0.6162
vn 0.1671 -0.8600 -0.4822
vn 0.4646 -0.8773 -0.1206
vn 0.0867 0.8175 0.5694
vn 0.5697 0.8080 0.1505
vn 0.5492 0.8181 -0.1705
vn -0.0991 0.9110 0.4004
vn 0.8511 -0.3309 0.4075
vn 0.9242 -0.1143 -0.3643
vn 0.9015 0.2602 -0.3457
vn 0.9067 0.0318 0.4205
vn 0.4209 -0.1265 -0.8982
vn -0.3400 0.1271 -0.9318
vn -0.3583 0.1705 -0.9179
vn 0.4282 0.2764 -0.8604
vn -0.9192 0.1460 -0.3658
vn -0.9282 -0.1127 0.3547
vn -0.9280 0.1082 0.3565
vn -0.8945 0.1528 -0.4202
vn -0.4251 -0.1052 0.8990
vn 0.3561 -0.3468 0.8677
vn 0.3539 0.0337 0.9347
vn -0.4164 0.1134 0.9021
vn 0.9284 0.1099 0.3549
vn -0.0824 0.9026 -0.4225
vn 0.1883 0.8282 -0.5279
vn -0.2638 0.5375 -0.8010
vn -0.3347 0.9398 0.0682
vn -0.3536 0.9296 -0.1036
vn -0.7013 0.6110 -0.3672
vn -0.7343 0.5925 0.3312
vn 0.2686 0.1104 0.9569
vn -0.3305 0.4956 0.8032
vn -0.1010 -0.9300 0.3535
vn 0.1230 -0.8710 0.4757
vn -0.3824 -0.5695 0.7276
vn -0.5718 -0.7987 -0.1876
vn -0.4151 -0.9052 0.0911
vn -0.8278 -0.4848 0.2824
vn -0.8628 -0.0741 -0.5000
vn -0.3283 -0.0708 -0.9419
vn 0.3592 -0.4309 -0.8278
vn 0.8084 -0.4806 -0.3399
vn 0.3909 0.3071 0.8677
vn 0.8318 0.3057 0.4632
vn 0.5720 -0.7414 0.3510
vn -0.1494 -0.6941 -0.7042
vn 0.1686 -0.7398 -0.6514
vn 0.5855 -0.7505 -0.3066
vn 0.0907 0.7255 0.6823
vn 0.6175 0.7064 0.3459
vn 0.6220 0.7041 -0.3426
vn -0.1231 0.7760 0.6186
vn 0.8388 -0.1630 0.5194
vn 0.8792 -0.0464 -0.4743
vn 0.8839 0.1223 -0.4515
vn 0.8465 0.0114 0.5323
vn 0.2981 -0.0395 -0.9537
vn -0.2225 0.0366 -0.9743
vn -0.2351 0.0562 -0.9704
vn 0.3195 0.1027 -0.9420
vn -0.8566 0.0635 -0.5120
vn -0.8860 -0.0500 0.4611
vn -0.8824 0.0474 0.4682
vn -0.8479 0.0666 -0.5260
vn -0.3026 -0.0331 0.9526
vn 0.2536 -0.1440 0.9565
vn 0.2281 0.0103 0.9736
vn -0.2954 0.0355 0.9547
vn 0.8575 0.0505 0.5121
vn -0.0886 0.7683 -0.6340
vn 0.1743 0.7227 -0.6689
vn -0.1992 0.2040 -0.9585
vn -0.4964 0.8312 0.2505
vn -0.4972 0.8137 -0.3013
vn -0.7547 0.3600 -0.5485
vn -0.7881 0.3678 0.4937
vn 0.1958 0.0230 0.9804
vn -0.2647 0.1924 0.9449
vn -0.1315 -0.7913 0.5971
vn 0.1171 -0.7446 0.6571
vn -0.3791 -0.3262 0.8660
vn -0.6355 -0.6915 -0.3434
vn -0.5491 -0.7868 0.2819
vn -0.8702 -0.2526 0.4230
vn -0.8313 -0.0339 -0.5548
vn -0.1998 -0.0238 -0.9796
vn 0.2803 -0.1493 -0.9482
vn 0.8382 -0.2512 -0.4841
vn 0.2383 0.1215 0.9636
vn 0.8574 0.1570 0.4901
vn 0.5993 -0.7411 0.3026
vn -0.1765 -0.6930 -0.6990
vn 0.1479 -0.7397 -0.6564
vn 0.5606 -0.7500 -0.3511
vn 0.1139 0.7251 0.6791
vn 0.6440 0.7057 0.2953
vn 0.5936 0.7052 -0.3878
vn -0.1048 0.7758 0.6222
vn 0.8755 -0.1666 0.4536
vn 0.8420 -0.0447 -0.5377
vn 0.8485 0.1184 -0.5158
vn 0.8851 0.0118 0.4652
vn 0.2638 -0.0386 -0.9638
vn -0.2599 0.0374 -0.9649
vn -0.2734 0.0577 -0.9602
vn 0.2843 0.0999 -0.9535
vn -0.8942 0.0660 -0.4428
vn -0.8495 -0.0482 0.5254
vn -0.8455 0.0457 0.5319
vn -0.8857 0.0684 -0.4593
vn -0.2681 -0.0322 0.9629
vn 0.2924 -0.1481 0.9448
vn 0.2659 0.0106 0.9639
vn -0.2610 0.0347 0.9647
vn 0.8946 0.0503 0.4440
vn -0.1096 0.7683 -0.6306
vn 0.1526 0.7228 -0.6740
vn -0.2348 0.2074 -0.9496
vn -0.4777 0.8290 0.2909
vn -0.5198 0.8147 -0.2569
vn -0.7899 0.3692 -0.4897
vn -0.7543 0.3578 0.5505
vn 0.2330 0.0226 0.9722
vn -0.2322 0.1897 0.9540
vn -0.1135 -0.7909 0.6013
vn 0.1402 -0.7444 0.6528
vn -0.3435 -0.3160 0.8844
vn -0.6627 -0.6902 -0.2907
vn -0.5266 -0.7855 0.3252
vn -0.8376 -0.2462 0.4877
vn -0.8694 -0.0348 -0.4929
vn -0.2362 -0.0244 -0.9714
vn 0.2474 -0.1465 -0.9578
vn 0.8031 -0.2429 -0.5441
vn 0.2768 0.1243 0.9529
vn 0.8905 0.1606 0.4257
vn -0.0941 -0.7356 0.6709
vn 0.6031 -0.6609 -0.4467
vn 0.5594 -0.7276 0.3969
vn 0.0917 -0.7400 0.6664
vn -0.5828 0.7070 0.4006
vn -0.0920 0.7171 0.6909
vn 0.1111 0.7164 0.6888
vn -0.5223 0.7886 -0.3246
vn -0.1883 -0.0985 0.9772
vn 0.1892 -0.0283 0.9815
vn 0.1845 0.0717 0.9802
vn -0.1793 0.0068 0.9838
vn 0.8501 -0.0579 0.5234
vn 0.7891 0.0518 -0.6120
vn 0.7966 0.0755 -0.5998
vn 0.8377 0.1304 0.5303
vn 0.1616 0.0345 -0.9863
vn -0.1828 -0.0275 -0.9828
vn -0.1862 0.0266 -0.9822
vn 0.1821 0.0364 -0.9826
vn -0.8462 -0.0465 -0.5308
vn -0.7841 -0.1664 0.5979
vn -0.7938 0.0122 0.6080
vn -0.8557 0.0580 -0.5142
vn -0.1632 0.0184 0.9864
vn 0.4993 0.7719 -0.3936
vn 0.5993 0.7003 0.3877
vn 0.7866 0.2841 -0.5482
vn -0.0656 0.7813 -0.6207
vn 0.0738 0.7720 -0.6313
vn 0.2627 0.2839 -0.9222
vn -0.3010 0.3455 -0.8888
vn -0.8127 0.0542 0.5802
vn -0.8416 0.2809 -0.4613
vn -0.4834 -0.8081 -0.3366
vn -0.5241 -0.7350 0.4303
vn -0.7801 -0.3491 -0.5192
vn 0.0938 -0.7118 -0.6961
vn -0.0751 -0.7571 -0.6489
vn -0.1647 -0.1476 -0.9752
vn 0.2304 -0.0223 -0.9729
vn 0.8287 -0.0243 -0.5591
vn 0.8338 -0.2158 0.5081
vn 0.2300 -0.1722 0.9578
vn -0.8555 0.1655 0.4907
vn -0.2013 0.0943 0.9750
vn 0.1301 -0.7455 -0.6537
vn -0.6316 -0.6720 0.3866
vn -0.5627 -0.7439 -0.3605
vn -0.1065 -0.7513 -0.6513
vn 0.6119 0.7221 -0.3227
vn 0.1279 0.7218 -0.6802
vn -0.1311 0.7212 -0.6802
vn 0.5205 0.8057 0.2829
vn 0.2544 -0.1259 -0.9589
vn -0.2244 -0.0362 -0.9738
vn -0.2181 0.0912 -0.9716
vn 0.2451 0.0088 -0.9695
vn -0.8550 -0.0607 -0.5151
vn -0.8410 0.0571 0.5380
vn -0.8435 0.0817 0.5308
vn -0.8400 0.1402 -0.5242
vn -0.2228 0.0452 0.9738
vn 0.2167 -0.0353 0.9756
vn 0.2206 0.0341 0.9748
vn -0.2481 0.0473 0.9676
vn 0.8517 -0.0496 0.5218
vn 0.8268 -0.1832 -0.5317
vn 0.8441 0.0141 -0.5360
vn 0.8593 0.0585 0.5082
vn 0.2245 0.0247 -0.9742
vn -0.5259 0.7903 0.3144
vn -0.5985 0.7155 -0.3602
vn -0.8253 0.3002 0.4783
vn 0.0734 0.8027 0.5919
vn -0.1020 0.7913 0.6028
vn -0.3249 0.3370 0.8837
vn 0.3251 0.3835 0.8644
vn 0.8635 0.0539 -0.5015
vn 0.8421 0.2883 0.4558
vn 0.4810 -0.8259 0.2941
vn 0.5547 -0.7514 -0.3574
vn 0.7720 -0.3658 0.5198
vn -0.1315 -0.7146 0.6870
vn 0.0860 -0.7726 0.6290
vn 0.1937 -0.1875 0.9630
vn -0.3054 -0.0283 0.9518
vn -0.8719 -0.0290 0.4888
vn -0.8395 -0.2259 -0.4941
vn -0.2658 -0.2108 -0.9407
vn 0.8711 0.1731 -0.4595
vn 0.2699 0.1200 -0.9554
# 230 vertex normals

vt 0.5186 0.0614 0.5637
vt 0.9636 0.0614 0.6420
vt 0.7336 0.0614 0.5883
vt 0.7056 0.0614 0.5630
vt 0.4895 0.9210 0.5921
vt 0.5196 0.9210 0.5686
vt 0.7065 0.9210 0.5679
vt 0.2587 0.9210 0.5823
vt 0.5065 0.1685 0.6534
vt 0.7180 0.2118 0.6531
vt 0.7179 0.7743 0.6530
vt 0.5064 0.6387 0.6528
vt 0.7378 0.2134 0.6796
vt 0.9631 0.2427 0.6792
vt 0.9630 0.7965 0.6800
vt 0.7381 0.7771 0.6815
vt 0.0300 0.2393 0.6526
vt 0.2417 0.1905 0.6526
vt 0.2416 0.7933 0.6528
vt 0.0301 0.7947 0.6530
vt 0.2614 0.1889 0.6797
vt 0.4865 0.1652 0.6806
vt 0.4867 0.6424 0.6793
vt 0.2614 0.7910 0.6793
vt 0.5070 0.7706 0.6454
vt 0.9671 0.9210 0.5840
vt 0.7321 0.9210 0.5901
vt 0.9644 0.8593 0.6580
vt 0.2272 0.9210 0.5580
vt 0.0435 0.9210 0.5604
vt 0.0325 0.8763 0.6288
vt 0.2404 0.8764 0.6371
vt 0.4871 0.7740 0.6711
vt 0.2604 0.8596 0.6641
vt 0.2572 0.0614 0.5846
vt 0.4920 0.0614 0.5886
vt 0.2604 0.1132 0.6640
vt 0.0329 0.0614 0.6117
vt 0.2239 0.0614 0.5526
vt 0.2399 0.1290 0.6387
vt 0.0260 0.1842 0.6750
vt 0.9619 0.1849 0.6935
vt 0.7371 0.1562 0.6652
vt 0.7162 0.1427 0.6374
vt 0.4913 0.8208 0.6714
vt 0.5011 0.8212 0.6583
vt 0.0091 0.1849 0.6935
vt 0.0109 0.0614 0.6420
vt 0.0104 0.2427 0.6792
vt 0.0102 0.7965 0.6800
vt 0.0144 0.9210 0.5840
vt 0.0117 0.8593 0.6580
vt 0.9963 0.9210 0.5604
# 53 texture coords

o column_top
g column_top
usemtl Material__25
s 1
f 1/1/1 2/2/2 3/3/3 4/4/4 
f 5/5/5 6/6/6 7/7/7 8/8/8 
f 9/9/9 10/10/10 11/11/11 12/12/12 
f 13/13/13 14/14/14 15/15/15 16/16/16 
f 17/17/17 18/18/18 19/19/19 20/20/20 
f 21/21/21 22/22/22 23/23/23 24/24/24 
f 7/7/7 6/6/6 25/25/25 11/11/11 
f 26/26/26 27/27/27 16/16/16 28/28/28 
f 29/29/29 30/30/30 31/31/31 32/32/32 
f 33/33/33 5/5/5 8/8/8 34/34/34 
f 12/12/12 11/11/11 25/25/25 
f 16/16/16 15/15/15 28/28/28 
f 20/20/20 19/19/19 32/32/32 31/31/31 
f 24/24/24 23/23/23 33/33/33 34/34/34 
f 35/35/35 36/36/36 22/22/22 37/37/37 
f 38/38/38 39/39/39 40/40/40 41/41/41 
f 3/3/3 2/2/2 42/42/42 43/43/43 
f 1/1/1 4/4/4 44/44/44 9/9/9 
f 10/10/10 9/9/9 44/44/44 
f 22/22/22 21/21/21 37/37/37 
f 45/45/45 46/46/46 6/6/6 5/5/5 
f 41/41/41 42/47/42 2/48/2 38/38/38 
f 19/19/19 18/18/18 21/21/21 24/24/24 
f 29/29/29 32/32/32 34/34/34 8/8/8 
f 32/32/32 19/19/19 24/24/24 34/34/34 
f 35/35/35 37/37/37 40/40/40 39/39/39 
f 18/18/18 40/40/40 37/37/37 21/21/21 
f 11/11/11 10/10/10 13/13/13 16/16/16 
f 7/7/7 11/11/11 16/16/16 27/27/27 
f 3/3/3 43/43/43 44/44/44 4/4/4 
f 10/10/10 44/44/44 43/43/43 13/13/13 
f 25/25/25 46/46/46 45/45/45 33/33/33 
f 9/9/9 12/12/12 23/23/23 22/22/22 
f 12/12/12 25/25/25 33/33/33 23/23/23 
f 22/22/22 36/36/36 1/1/1 9/9/9 
f 14/49/14 42/47/42 41/41/41 17/17/17 
f 15/50/15 14/49/14 17/17/17 20/20/20 
f 26/51/26 28/52/28 31/31/31 30/30/30 
f 28/52/28 15/50/15 20/20/20 31/31/31 
f 40/40/40 18/18/18 17/17/17 41/41/41 
f 42/42/42 14/14/14 13/13/13 43/43/43 
f 33/33/33 45/45/45 5/5/5 
f 6/6/6 46/46/46 25/25/25 
f 27/27/27 26/26/26 30/53/30 29/29/29 
f 7/7/7 27/27/27 29/29/29 8/8/8 
f 36/36/36 35/35/35 39/39/39 38/38/38 
f 1/1/1 36/36/36 38/38/38 2/48/2 
f 47/1/47 48/2/48 49/3/49 50/4/50 
f 51/5/51 52/6/52 53/7/53 54/8/54 
f 55/9/55 56/10/56 57/11/57 58/12/58 
f 59/13/59 60/14/60 61/15/61 62/16/62 
f 63/17/63 64/18/64 65/19/65 66/20/66 
f 67/21/67 68/22/68 69/23/69 70/24/70 
f 53/7/53 52/6/52 71/25/71 57/11/57 
f 72/26/72 73/27/73 62/16/62 74/28/74 
f 75/29/75 76/30/76 77/31/77 78/32/78 
f 79/33/79 51/5/51 54/8/54 80/34/80 
f 58/12/58 57/11/57 71/25/71 
f 62/16/62 61/15/61 74/28/74 
f 66/20/66 65/19/65 78/32/78 77/31/77 
f 70/24/70 69/23/69 79/33/79 80/34/80 
f 81/35/81 82/36/82 68/22/68 83/37/83 
f 84/38/84 85/39/85 86/40/86 87/41/87 
f 49/3/49 48/2/48 88/42/88 89/43/89 
f 47/1/47 50/4/50 90/44/90 55/9/55 
f 56/10/56 55/9/55 90/44/90 
f 68/22/68 67/21/67 83/37/83 
f 91/45/91 92/46/92 52/6/52 51/5/51 
f 87/41/87 88/47/88 48/48/48 84/38/84 
f 65/19/65 64/18/64 67/21/67 70/24/70 
f 75/29/75 78/32/78 80/34/80 54/8/54 
f 78/32/78 65/19/65 70/24/70 80/34/80 
f 81/35/81 83/37/83 86/40/86 85/39/85 
f 64/18/64 86/40/86 83/37/83 67/21/67 
f 57/11/57 56/10/56 59/13/59 62/16/62 
f 53/7/53 57/11/57 62/16/62 73/27/73 
f 49/3/49 89/43/89 90/44/90 50/4/50 
f 56/10/56 90/44/90 89/43/89 59/13/59 
f 71/25/71 92/46/92 91/45/91 79/33/79 
f 55/9/55 58/12/58 69/23/69 68/22/68 
f 58/12/58 71/25/71 79/33/79 69/23/69 
f 68/22/68 82/36/82 47/1/47 55/9/55 
f 60/49/60 88/47/88 87/41/87 63/17/63 
f 61/50/61 60/49/60 63/17/63 66/20/66 
f 72/51/72 74/52/74 77/31/77 76/30/76 
f 74/52/74 61/50/61 66/20/66 77/31/77 
f 86/40/86 64/18/64 63/17/63 87/41/87 
f 88/42/88 60/14/60 59/13/59 89/43/89 
f 79/33/79 91/45/91 51/5/51 
f 52/6/52 92/46/92 71/25/71 
f 73/27/73 72/26/72 76/53/76 75/29/75 
f 53/7/53 73/27/73 75/29/75 54/8/54 
f 82/36/82 81/35/81 85/39/85 84/38/84 
f 47/1/47 82/36/82 84/38/84 48/48/48 
f 93/1/93 94/2/94 95/3/95 96/4/96 
f 97/5/97 98/6/98 99/7/99 100/8/100 
f 101/9/101 102/10/102 103/11/103 104/12/104 
f 105/13/105 106/14/106 107/15/107 108/16/108 
f 109/17/109 110/18/110 111/19/111 112/20/112 
f 113/21/113 114/22/114 115/23/115 116/24/116 
f 99/7/99 98/6/98 117/25/117 103/11/103 
f 118/26/118 119/27/119 108/16/108 120/28/120 
f 121/29/121 122/30/122 123/31/123 124/32/124 
f 125/33/125 97/5/97 100/8/100 126/34/126 
f 104/12/104 103/11/103 117/25/117 
f 108/16/108 107/15/107 120/28/120 
f 112/20/112 111/19/111 124/32/124 123/31/123 
f 116/24/116 115/23/115 125/33/125 126/34/126 
f 127/35/127 128/36/128 114/22/114 129/37/129 
f 130/38/130 131/39/131 132/40/132 133/41/133 
f 95/3/95 94/2/94 134/42/134 135/43/135 
f 93/1/93 96/4/96 136/44/136 101/9/101 
f 102/10/102 101/9/101 136/44/136 
f 114/22/114 113/21/113 129/37/129 
f 137/45/137 138/46/138 98/6/98 97/5/97 
f 133/41/133 134/47/134 94/48/94 130/38/130 
f 111/19/111 110/18/110 113/21/113 116/24/116 
f 121/29/121 124/32/124 126/34/126 100/8/100 
f 124/32/124 111/19/111 116/24/116 126/34/126 
f 127/35/127 129/37/129 132/40/132 131/39/131 
f 110/18/110 132/40/132 129/37/129 113/21/113 
f 103/11/103 102/10/102 105/13/105 108/16/108 
f 99/7/99 103/11/103 108/16/108 119/27/119 
f 95/3/95 135/43/135 136/44/136 96/4/96 
f 102/10/102 136/44/136 135/43/135 105/13/105 
f 117/25/117 138/46/138 137/45/137 125/33/125 
f 101/9/101 104/12/104 115/23/115 114/22/114 
f 104/12/104 117/25/117 125/33/125 115/23/115 
f 114/22/114 128/36/128 93/1/93 101/9/101 
f 106/49/106 134/47/134 133/41/133 109/17/109 
f 107/50/107 106/49/106 109/17/109 112/20/112 
f 118/51/118 120/52/120 123/31/123 122/30/122 
f 120/52/120 107/50/107 112/20/112 123/31/123 
f 132/40/132 110/18/110 109/17/109 133/41/133 
f 134/42/134 106/14/106 105/13/105 135/43/135 
f 125/33/125 137/45/137 97/5/97 
f 98/6/98 138/46/138 117/25/117 
f 119/27/119 118/26/118 122/53/122 121/29/121 
f 99/7/99 119/27/119 121/29/121 100/8/100 
f 128/36/128 127/35/127 131/39/131 130/38/130 
f 93/1/93 128/36/128 130/38/130 94/48/94 
f 139/1/139 140/2/140 141/3/141 142/4/142 
f 143/5/143 144/6/144 145/7/145 146/8/146 
f 147/9/147 148/10/148 149/11/149 150/12/150 
f 151/13/151 152/14/152 153/15/153 154/16/154 
f 155/17/155 156/18/156 157/19/157 158/20/158 
f 159/21/159 160/22/160 161/23/161 162/24/162 
f 145/7/145 144/6/144 163/25/163 149/11/149 
f 164/26/164 165/27/165 154/16/154 166/28/166 
f 167/29/167 168/30/168 169/31/169 170/32/170 
f 171/33/171 143/5/143 146/8/146 172/34/172 
f 150/12/150 149/11/149 163/25/163 
f 154/16/154 153/15/153 166/28/166 
f 158/20/158 157/19/157 170/32/170 169/31/169 
f 162/24/162 161/23/161 171/33/171 172/34/172 
f 173/35/173 174/36/174 160/22/160 175/37/175 
f 176/38/176 177/39/177 178/40/178 179/41/179 
f 141/3/141 140/2/140 180/42/180 181/43/181 
f 139/1/139 142/4/142 182/44/182 147/9/147 
f 148/10/148 147/9/147 182/44/182 
f 160/22/160 159/21/159 175/37/175 
f 183/45/183 184/46/184 144/6/144 143/5/143 
f 179/41/179 180/47/180 140/48/140 176/38/176 
f 157/19/157 156/18/156 159/21/159 162/24/162 
f 167/29/167 170/32/170 172/34/172 146/8/146 
f 170/32/170 157/19/157 162/24/162 172/34/172 
f 173/35/173 175/37/175 178/40/178 177/39/177 
f 156/18/156 178/40/178 175/37/175 159/21/159 
f 149/11/149 148/10/148 151/13/151 154/16/154 
f 145/7/145 149/11/149 154/16/154 165/27/165 
f 141/3/141 181/43/181 182/44/182 142/4/142 
f 148/10/148 182/44/182 181/43/181 151/13/151 
f 163/25/163 184/46/184 183/45/183 171/33/171 
f 147/9/147 150/12/150 161/23/161 160/22/160 
f 150/12/150 163/25/163 171/33/171 161/23/161 
f 160/22/160 174/36/174 139/1/139 147/9/147 
f 152/49/152 180/47/180 179/41/179 155/17/155 
f 153/50/153 152/49/152 155/17/155 158/20/158 
f 164/51/164 166/52/166 169/31/169 168/30/168 
f 166/52/166 153/50/153 158/20/158 169/31/169 
f 178/40/178 156/18/156 155/17/155 179/41/179 
f 180/42/180 152/14/152 151/13/151 181/43/181 
f 171/33/171 183/45/183 143/5/143 
f 144/6/144 184/46/184 163/25/163 
f 165/27/165 164/26/164 168/53/168 167/29/167 
f 145/7/145 165/27/165 167/29/167 146/8/146 
f 174/36/174 173/35/173 177/39/177 176/38/176 
f 139/1/139 174/36/174 176/38/176 140/48/140 
f 185/1/185 186/2/186 187/3/187 188/4/188 
f 189/5/189 190/6/190 191/7/191 192/8/192 
f 193/9/193 194/10/194 195/11/195 196/12/196 
f 197/13/197 198/14/198 199/15/199 200/16/200 
f 201/17/201 202/18/202 203/19/203 204/20/204 
f 205/21/205 206/22/206 207/23/207 208/24/208 
f 191/7/191 190/6/190 209/25/209 195/11/195 
f 210/26/210 211/27/211 200/16/200 212/28/212 
f 213/29/213 214/30/214 215/31/215 216/32/216 
f 217/33/217 189/5/189 192/8/192 218/34/218 
f 196/12/196 195/11/195 209/25/209 
f 200/16/200 199/15/199 212/28/212 
f 204/20/204 203/19/203 216/32/216 215/31/215 
f 208/24/208 207/23/207 217/33/217 218/34/218 
f 219/35/219 220/36/220 206/22/206 221/37/221 
f 222/38/222 223/39/223 224/40/224 225/41/225 
f 187/3/187 186/2/186 226/42/226 227/43/227 
f 185/1/185 188/4/188 228/44/228 193/9/193 
f 194/10/194 193/9/193 228/44/228 
f 206/22/206 205/21/205 221/37/221 
f 229/45/229 230/46/230 190/6/190 189/5/189 
f 225/41/225 226/47/226 186/48/186 222/38/222 
f 203/19/203 202/18/202 205/21/205 208/24/208 
f 213/29/213 216/32/216 218/34/218 192/8/192 
f 216/32/216 203/19/203 208/24/208 218/34/218 
f 219/35/219 221/37/221 224/40/224 223/39/223 
f 202/18/202 224/40/224 221/37/221 205/21/205 
f 195/11/195 194/10/194 197/13/197 200/16/200 
f 191/7/191 195/11/195 200/16/200 211/27/211 
f 187/3/187 227/43/227 228/44/228 188/4/188 
f 194/10/194 228/44/228 227/43/227 197/13/197 
f 209/25/209 230/46/230 229/45/229 217/33/217 
f 193/9/193 196/12/196 207/23/207 206/22/206 
f 196/12/196 209/25/209 217/33/217 207/23/207 
f 206/22/206 220/36/220 185/1/185 193/9/193 
f 198/49/198 226/47/226 225/41/225 201/17/201 
f 199/50/199 198/49/198 201/17/201 204/20/204 
f 210/51/210 212/52/212 215/31/215 214/30/214 
f 212/52/212 199/50/199 204/20/204 215/31/215 
f 224/40/224 202/18/202 201/17/201 225/41/225 
f 226/42/226 198/14/198 197/13/197 227/43/227 
f 217/33/217 229/45/229 189/5/189 
f 190/6/190 230/46/230 209/25/209 
f 211/27/211 210/26/210 214/53/214 213/29/213 
f 191/7/191 211/27/211 213/29/213 192/8/192 
f 220/36/220 219/35/219 223/39/223 222/38/222 
f 185/1/185 220/36/220 222/38/222 186/48/186 
# 205 polygons - 30 triangles

