# 3ds Max Wavefront OBJ Exporter v0.99 - (c)2007 guruware
# File Created: 02.07.2021 20:10:48

mtllib stone_00.mtl

#
# object stone_00
#

v  -22.8048 5.8013 23.1734
v  23.4455 5.8013 23.1512
v  21.8885 5.8013 -21.3416
v  -22.7132 5.8013 -22.3264
v  -23.1409 0.0987 27.1684
v  23.2228 0.0987 27.1684
v  23.2228 3.6171 27.1684
v  -23.1409 3.6171 27.1684
v  27.2707 0.0987 21.9975
v  26.0927 0.0987 -21.3416
v  26.0927 3.6171 -21.3416
v  27.2707 3.6171 21.9975
v  23.1657 0.0987 -27.1684
v  -21.7125 0.0987 -27.0495
v  -21.7125 3.6171 -27.0495
v  23.1657 3.6171 -27.1684
v  -27.2707 0.0987 -21.8713
v  -26.7136 0.0987 23.1310
v  -26.7136 3.6171 23.1310
v  -27.2707 3.6171 -21.8713
v  -26.1675 5.2552 23.1310
v  -25.8945 4.9822 26.3493
v  -23.1409 5.2552 26.6224
v  23.2228 5.2552 26.6224
v  26.5064 4.9822 25.8369
v  26.7247 5.2552 21.9975
v  25.5466 5.2552 -21.3416
v  25.2736 4.9822 -26.3493
v  23.1657 5.2552 -26.6224
v  -21.7125 5.2552 -26.5034
v  -25.6250 4.9822 -25.4298
v  -26.7247 5.2552 -21.8713
v  26.7795 3.6171 26.1099
v  -26.1675 3.6171 26.6224
v  25.5466 3.6171 -26.6224
v  -25.8980 3.6171 -25.7028
v  26.7795 0.0987 26.1099
v  -26.1675 0.0987 26.6224
v  25.5466 0.0987 -26.6224
v  -25.8980 0.0987 -25.7028
# 40 vertices

vn -0.0779 0.9942 0.0745
vn 0.1015 0.9909 0.0883
vn 0.0681 0.9967 -0.0446
vn -0.0770 0.9940 -0.0780
vn -0.0891 0.0000 0.9960
vn 0.1441 0.0000 0.9896
vn 0.1405 0.1565 0.9776
vn -0.0873 0.1582 0.9835
vn 0.9989 0.0000 0.0459
vn 0.9979 0.0000 -0.0651
vn 0.9852 0.1593 -0.0640
vn 0.9863 0.1589 0.0450
vn 0.1112 0.0000 -0.9938
vn -0.1563 0.0000 -0.9877
vn -0.1522 0.1561 -0.9759
vn 0.1086 0.1575 -0.9815
vn -0.9863 0.0000 -0.1651
vn -0.9965 0.0000 0.0837
vn -0.9839 0.1586 0.0821
vn -0.9747 0.1556 -0.1604
vn -0.6469 0.7600 0.0621
vn -0.5516 0.6370 0.5385
vn -0.0698 0.7616 0.6442
vn 0.1045 0.7464 0.6573
vn 0.5898 0.6495 0.4798
vn 0.6551 0.7549 0.0307
vn 0.6405 0.7665 -0.0465
vn 0.5784 0.6367 -0.5100
vn 0.0923 0.7801 -0.6189
vn -0.1088 0.7493 -0.6533
vn -0.5188 0.6632 -0.5394
vn -0.6562 0.7452 -0.1187
vn 0.7560 0.1309 0.6414
vn -0.7088 0.1309 0.6931
vn 0.7409 0.1308 -0.6587
vn -0.6897 0.1324 -0.7119
vn 0.7647 0.0000 0.6444
vn -0.7153 0.0000 0.6988
vn 0.7490 0.0000 -0.6626
vn -0.6954 0.0000 -0.7186
# 40 vertex normals

vt 0.5082 0.9402 0.5972
vt 0.7318 0.9402 0.6052
vt 0.9540 0.9402 0.5615
vt 0.2833 0.9402 0.5850
vt 0.5184 0.0426 0.6558
vt 0.7197 0.0426 0.6567
vt 0.7197 0.5964 0.6567
vt 0.5184 0.5964 0.6558
vt 0.7461 0.0426 0.6433
vt 0.9415 0.0426 0.6190
vt 0.9415 0.5964 0.6190
vt 0.7461 0.5964 0.6433
vt 0.0696 0.0426 0.6560
vt 0.2665 0.0426 0.6374
vt 0.2665 0.5964 0.6374
vt 0.0696 0.5964 0.6560
vt 0.2977 0.0426 0.6419
vt 0.4968 0.0426 0.6489
vt 0.4968 0.5964 0.6489
vt 0.2977 0.5964 0.6419
vt 0.4982 0.8542 0.6414
vt 0.5083 0.8113 0.6786
vt 0.5170 0.8542 0.6481
vt 0.7211 0.8542 0.6491
vt 0.7327 0.8113 0.6799
vt 0.7447 0.8542 0.6356
vt 0.0564 0.9402 0.5615
vt 0.0455 0.8542 0.6113
vt 0.0612 0.8113 0.6707
vt 0.0681 0.8542 0.6484
vt 0.2680 0.8542 0.6296
vt 0.2826 0.8113 0.6631
vt 0.2963 0.8542 0.6341
vt 0.7327 0.5964 0.6870
vt 0.5082 0.5964 0.6857
vt 0.0440 0.5964 0.6190
vt 0.0612 0.5964 0.6778
vt 0.2826 0.5964 0.6702
vt 0.9430 0.8542 0.6113
vt 0.7327 0.0426 0.6870
vt 0.5082 0.0426 0.6857
vt 0.0440 0.0426 0.6190
vt 0.0612 0.0426 0.6778
vt 0.2826 0.0426 0.6702
# 44 texture coords

o stone_00
g stone_00
usemtl Material__25
s 1
f 1/1/1 2/2/2 3/3/3 4/4/4 
s 2
f 5/5/5 6/6/6 7/7/7 8/8/8 
s 4
f 9/9/9 10/10/10 11/11/11 12/12/12 
s 2
f 13/13/13 14/14/14 15/15/15 16/16/16 
s 4
f 17/17/17 18/18/18 19/19/19 20/20/20 
s 1
f 1/1/1 21/21/21 22/22/22 23/23/23 
f 2/2/2 24/24/24 25/25/25 26/26/26 
f 3/27/3 27/28/27 28/29/28 29/30/29 
f 4/4/4 30/31/30 31/32/31 32/33/32 
s 2
f 7/7/7 33/34/33 25/25/25 24/24/24 
f 8/8/8 23/23/23 22/22/22 34/35/34 
s 4
f 11/36/11 35/37/35 28/29/28 27/28/27 
f 12/12/12 26/26/26 25/25/25 33/34/33 
s 2
f 15/15/15 36/38/36 31/32/31 30/31/30 
f 16/16/16 29/30/29 28/29/28 35/37/35 
s 4
f 19/19/19 34/35/34 22/22/22 21/21/21 
f 20/20/20 32/33/32 31/32/31 36/38/36 
s 1
f 2/2/2 1/1/1 23/23/23 24/24/24 
f 3/3/3 2/2/2 26/26/26 27/39/27 
f 4/4/4 3/27/3 29/30/29 30/31/30 
f 1/1/1 4/4/4 32/33/32 21/21/21 
s 2
f 7/7/7 6/6/6 37/40/37 33/34/33 
f 8/8/8 7/7/7 24/24/24 23/23/23 
f 5/5/5 8/8/8 34/35/34 38/41/38 
s 4
f 11/36/11 10/42/10 39/43/39 35/37/35 
f 12/12/12 11/11/11 27/39/27 26/26/26 
f 9/9/9 12/12/12 33/34/33 37/40/37 
s 2
f 15/15/15 14/14/14 40/44/40 36/38/36 
f 16/16/16 15/15/15 30/31/30 29/30/29 
f 13/13/13 16/16/16 35/37/35 39/43/39 
s 4
f 19/19/19 18/18/18 38/41/38 34/35/34 
f 20/20/20 19/19/19 21/21/21 32/33/32 
f 17/17/17 20/20/20 36/38/36 40/44/40 
# 33 polygons

