# 3ds Max Wavefront OBJ Exporter v0.99 - (c)2007 guruware
# File Created: 02.07.2021 20:10:34

mtllib stone_floor_00.mtl

#
# object stone_floor_00
#

v  -27.4938 3.9589 28.1402
v  4.2994 3.9589 28.1249
v  3.2291 3.9589 -2.4601
v  -27.4308 3.9589 -3.1371
v  -27.7248 0.0388 30.8864
v  4.1463 0.0388 30.8864
v  4.1463 2.4574 30.8864
v  -27.7248 2.4574 30.8864
v  6.9289 0.0388 27.3319
v  6.1191 0.0388 -2.4601
v  6.1191 2.4574 -2.4601
v  6.9289 2.4574 27.3319
v  4.1071 0.0388 -6.4655
v  -26.7429 0.0388 -6.3838
v  -26.7429 2.4574 -6.3838
v  4.1071 2.4574 -6.4655
v  -30.5637 0.0388 -2.8242
v  -30.1807 0.0388 28.1111
v  -30.1807 2.4574 28.1111
v  -30.5637 2.4574 -2.8242
v  -29.8053 3.5835 28.1111
v  -29.6176 3.3958 30.3234
v  -27.7248 3.5835 30.5111
v  4.1463 3.5835 30.5111
v  6.4036 3.3958 29.9711
v  6.5536 3.5835 27.3319
v  5.7438 3.5835 -2.4601
v  5.5561 3.3958 -5.9025
v  4.1071 3.5835 -6.0901
v  -26.7429 3.5835 -6.0084
v  -29.4324 3.3958 -5.2703
v  -30.1883 3.5835 -2.8242
v  6.5912 2.4574 30.1588
v  -29.8053 2.4574 30.5111
v  5.7438 2.4574 -6.0901
v  -29.6201 2.4574 -5.4580
v  6.5912 0.0388 30.1588
v  -29.8053 0.0388 30.5111
v  5.7438 0.0388 -6.0901
v  -29.6201 0.0388 -5.4580
v  -21.9035 2.7045 -27.0014
v  -20.2492 2.7045 -8.2273
v  3.0902 2.7045 -10.9061
v  2.0239 2.7045 -29.0573
v  -24.0160 0.0388 -26.9540
v  -22.3694 0.0388 -8.1329
v  -22.3694 1.6835 -8.1329
v  -24.0160 1.6835 -26.9540
v  -19.5067 0.0388 -6.7275
v  3.2395 0.0388 -9.1994
v  3.2395 1.6835 -9.1994
v  -19.5067 1.6835 -6.7275
v  6.1993 0.0388 -10.6557
v  4.5429 0.0388 -28.8683
v  4.5429 1.6835 -28.8683
v  6.1993 1.6835 -10.6557
v  1.6228 0.0388 -30.8864
v  -22.0200 0.0388 -28.5900
v  -22.0200 1.6835 -28.5900
v  1.6228 1.6835 -30.8864
v  -22.0006 2.4492 -28.3684
v  -23.6831 2.3216 -28.1095
v  -23.7289 2.4492 -26.9791
v  -22.0823 2.4492 -8.1580
v  -21.5527 2.3216 -6.8612
v  -19.5261 2.4492 -6.9492
v  3.2201 2.4492 -9.4211
v  5.8435 2.3216 -9.7623
v  5.9122 2.4492 -10.6306
v  4.2558 2.4492 -28.8432
v  3.5523 2.3216 -30.3820
v  1.6422 2.4492 -30.6648
v  -21.6865 1.6835 -6.7378
v  -23.8364 1.6835 -28.2078
v  5.9967 1.6835 -9.6640
v  3.6861 1.6835 -30.5054
v  -21.6865 0.0388 -6.7378
v  -23.8364 0.0388 -28.2078
v  5.9967 0.0388 -9.6640
v  3.6861 0.0388 -30.5054
v  27.3072 2.3626 14.9842
v  28.9408 2.3626 -3.7917
v  10.8239 2.3626 -4.7399
v  8.8400 2.3626 13.3310
v  28.9170 0.0388 15.2625
v  30.5637 0.0388 -3.5586
v  30.5637 1.4726 -3.5586
v  28.9170 1.4726 15.2625
v  28.6084 0.0388 -5.3855
v  10.9732 0.0388 -6.4465
v  10.9732 1.4726 -6.4465
v  28.6084 1.4726 -5.3855
v  8.5039 0.0388 -5.4653
v  6.9583 0.0388 12.7570
v  6.9583 1.4726 12.7570
v  8.5039 1.4726 -5.4653
v  8.8629 0.0388 15.1973
v  27.1512 0.0388 16.5694
v  27.1512 1.4726 16.5694
v  8.8629 1.4726 15.1973
v  27.1706 2.1401 16.3477
v  28.4867 2.0288 16.3512
v  28.6954 2.1401 15.2431
v  30.3420 2.1401 -3.5780
v  30.1398 2.0288 -4.9389
v  28.5890 2.1401 -5.1639
v  10.9538 2.1401 -6.2249
v  8.9112 2.0288 -6.2919
v  8.7255 2.1401 -5.4459
v  7.1799 2.1401 12.7764
v  7.4768 2.0288 14.4028
v  8.8823 2.1401 14.9756
v  30.2603 1.4726 -5.0400
v  28.5879 1.4726 16.4717
v  8.8101 1.4726 -6.4124
v  7.3563 1.4726 14.5040
v  30.2603 0.0388 -5.0400
v  28.5879 0.0388 16.4717
v  8.8101 0.0388 -6.4124
v  7.3563 0.0388 14.5040
# 120 vertices

vn -0.0779 0.9942 0.0745
vn 0.1015 0.9909 0.0883
vn 0.0681 0.9967 -0.0446
vn -0.0770 0.9940 -0.0780
vn -0.0891 0.0000 0.9960
vn 0.1441 0.0000 0.9896
vn 0.1405 0.1565 0.9776
vn -0.0873 0.1582 0.9835
vn 0.9989 0.0000 0.0459
vn 0.9979 0.0000 -0.0651
vn 0.9852 0.1593 -0.0640
vn 0.9863 0.1589 0.0450
vn 0.1112 0.0000 -0.9938
vn -0.1563 0.0000 -0.9877
vn -0.1522 0.1561 -0.9759
vn 0.1086 0.1575 -0.9815
vn -0.9863 0.0000 -0.1651
vn -0.9965 0.0000 0.0837
vn -0.9839 0.1586 0.0821
vn -0.9747 0.1556 -0.1604
vn -0.6469 0.7600 0.0621
vn -0.5516 0.6370 0.5385
vn -0.0698 0.7616 0.6442
vn 0.1045 0.7464 0.6573
vn 0.5898 0.6495 0.4798
vn 0.6551 0.7549 0.0307
vn 0.6405 0.7665 -0.0465
vn 0.5784 0.6367 -0.5100
vn 0.0923 0.7801 -0.6189
vn -0.1088 0.7493 -0.6533
vn -0.5188 0.6632 -0.5394
vn -0.6562 0.7452 -0.1187
vn 0.7560 0.1309 0.6414
vn -0.7088 0.1309 0.6931
vn 0.7409 0.1308 -0.6587
vn -0.6897 0.1324 -0.7119
vn 0.7647 0.0000 0.6444
vn -0.7153 0.0000 0.6988
vn 0.7490 0.0000 -0.6626
vn -0.6954 0.0000 -0.7186
vn -0.0737 0.9938 -0.0837
vn -0.0698 0.9900 0.1227
vn 0.0459 0.9961 0.0758
vn 0.0619 0.9938 -0.0926
vn -0.9996 0.0000 -0.0275
vn -0.9634 0.0000 0.2679
vn -0.9498 0.1730 0.2607
vn -0.9841 0.1758 -0.0258
vn 0.0518 0.0000 0.9987
vn 0.1372 0.0000 0.9905
vn 0.1357 0.1404 0.9808
vn 0.0514 0.1401 0.9888
vn 0.9985 0.0000 0.0554
vn 0.9593 0.0000 -0.2825
vn 0.9460 0.1724 -0.2747
vn 0.9832 0.1747 0.0524
vn 0.0429 0.0000 -0.9991
vn -0.1515 0.0000 -0.9885
vn -0.1498 0.1400 -0.9788
vn 0.0410 0.1382 -0.9896
vn -0.1100 0.7409 -0.6626
vn -0.5598 0.6350 -0.5324
vn -0.6291 0.7768 -0.0285
vn -0.6250 0.7587 0.1835
vn -0.3869 0.6477 0.6564
vn 0.0344 0.7353 0.6769
vn 0.0963 0.7473 0.6575
vn 0.5332 0.6323 0.5621
vn 0.6091 0.7911 0.0555
vn 0.6214 0.7601 -0.1902
vn 0.4387 0.6619 -0.6078
vn 0.0370 0.7317 -0.6806
vn -0.5353 0.1290 0.8347
vn -0.7285 0.1304 -0.6725
vn 0.6955 0.1295 0.7067
vn 0.5934 0.1316 -0.7941
vn -0.5313 0.0000 0.8472
vn -0.7298 0.0000 -0.6837
vn 0.6947 0.0000 0.7193
vn 0.5937 0.0000 -0.8047
vn 0.0675 0.9942 0.0841
vn 0.0968 0.9909 -0.0934
vn -0.0384 0.9967 -0.0717
vn -0.0844 0.9940 0.0699
vn 0.9845 0.0000 0.1756
vn 0.9984 0.0000 -0.0573
vn 0.9862 0.1565 -0.0547
vn 0.9722 0.1582 0.1727
vn 0.1327 0.0000 -0.9912
vn 0.0222 0.0000 -0.9998
vn 0.0221 0.1593 -0.9870
vn 0.1307 0.1589 -0.9786
vn -0.9803 0.0000 -0.1974
vn -0.9976 0.0000 0.0696
vn -0.9855 0.1561 0.0666
vn -0.9683 0.1575 -0.1937
vn -0.2504 0.0000 0.9681
vn -0.0035 0.0000 1.0000
vn -0.0040 0.1585 0.9873
vn -0.2448 0.1556 0.9570
vn 0.0055 0.7600 0.6499
vn 0.4884 0.6370 0.5964
vn 0.6357 0.7616 0.1256
vn 0.6639 0.7464 -0.0468
vn 0.5294 0.6495 -0.5458
vn 0.0877 0.7549 -0.6499
vn 0.0095 0.7665 -0.6422
vn -0.4576 0.6367 -0.6206
vn -0.6085 0.7801 -0.1459
vn -0.6603 0.7493 0.0515
vn -0.5826 0.6632 0.4698
vn -0.1754 0.7452 0.6433
vn 0.7048 0.1309 -0.6972
vn 0.6287 0.1309 0.7666
vn -0.5916 0.1307 -0.7955
vn -0.7693 0.1324 0.6250
vn 0.7086 0.0000 -0.7056
vn 0.6337 0.0000 0.7735
vn -0.5947 0.0000 -0.8039
vn -0.7764 0.0000 0.6302
# 120 vertex normals

vt 0.5082 0.9402 0.5972
vt 0.7318 0.9402 0.6052
vt 0.9540 0.9402 0.5615
vt 0.2833 0.9402 0.5850
vt 0.5184 0.0426 0.6558
vt 0.7197 0.0426 0.6567
vt 0.7197 0.5964 0.6567
vt 0.5184 0.5964 0.6558
vt 0.7461 0.0426 0.6433
vt 0.9415 0.0426 0.6190
vt 0.9415 0.5964 0.6190
vt 0.7461 0.5964 0.6433
vt 0.0696 0.0426 0.6560
vt 0.2665 0.0426 0.6374
vt 0.2665 0.5964 0.6374
vt 0.0696 0.5964 0.6560
vt 0.2977 0.0426 0.6419
vt 0.4968 0.0426 0.6489
vt 0.4968 0.5964 0.6489
vt 0.2977 0.5964 0.6419
vt 0.4982 0.8542 0.6414
vt 0.5083 0.8113 0.6786
vt 0.5170 0.8542 0.6481
vt 0.7211 0.8542 0.6491
vt 0.7327 0.8113 0.6799
vt 0.7447 0.8542 0.6356
vt 0.0564 0.9402 0.5615
vt 0.0455 0.8542 0.6113
vt 0.0612 0.8113 0.6707
vt 0.0681 0.8542 0.6484
vt 0.2680 0.8542 0.6296
vt 0.2826 0.8113 0.6631
vt 0.2963 0.8542 0.6341
vt 0.7327 0.5964 0.6870
vt 0.5082 0.5964 0.6857
vt 0.0440 0.5964 0.6190
vt 0.0612 0.5964 0.6778
vt 0.2826 0.5964 0.6702
vt 0.9430 0.8542 0.6113
vt 0.7327 0.0426 0.6870
vt 0.5082 0.0426 0.6857
vt 0.0440 0.0426 0.6190
vt 0.0612 0.0426 0.6778
vt 0.2826 0.0426 0.6702
# 44 texture coords

o stone_floor_00
g stone_floor_00
usemtl Material__25
s 1
f 1/1/1 2/2/2 3/3/3 4/4/4 
s 2
f 5/5/5 6/6/6 7/7/7 8/8/8 
s 4
f 9/9/9 10/10/10 11/11/11 12/12/12 
s 2
f 13/13/13 14/14/14 15/15/15 16/16/16 
s 4
f 17/17/17 18/18/18 19/19/19 20/20/20 
s 1
f 1/1/1 21/21/21 22/22/22 23/23/23 
f 2/2/2 24/24/24 25/25/25 26/26/26 
f 3/27/3 27/28/27 28/29/28 29/30/29 
f 4/4/4 30/31/30 31/32/31 32/33/32 
s 2
f 7/7/7 33/34/33 25/25/25 24/24/24 
f 8/8/8 23/23/23 22/22/22 34/35/34 
s 4
f 11/36/11 35/37/35 28/29/28 27/28/27 
f 12/12/12 26/26/26 25/25/25 33/34/33 
s 2
f 15/15/15 36/38/36 31/32/31 30/31/30 
f 16/16/16 29/30/29 28/29/28 35/37/35 
s 4
f 19/19/19 34/35/34 22/22/22 21/21/21 
f 20/20/20 32/33/32 31/32/31 36/38/36 
s 1
f 2/2/2 1/1/1 23/23/23 24/24/24 
f 3/3/3 2/2/2 26/26/26 27/39/27 
f 4/4/4 3/27/3 29/30/29 30/31/30 
f 1/1/1 4/4/4 32/33/32 21/21/21 
s 2
f 7/7/7 6/6/6 37/40/37 33/34/33 
f 8/8/8 7/7/7 24/24/24 23/23/23 
f 5/5/5 8/8/8 34/35/34 38/41/38 
s 4
f 11/36/11 10/42/10 39/43/39 35/37/35 
f 12/12/12 11/11/11 27/39/27 26/26/26 
f 9/9/9 12/12/12 33/34/33 37/40/37 
s 2
f 15/15/15 14/14/14 40/44/40 36/38/36 
f 16/16/16 15/15/15 30/31/30 29/30/29 
f 13/13/13 16/16/16 35/37/35 39/43/39 
s 4
f 19/19/19 18/18/18 38/41/38 34/35/34 
f 20/20/20 19/19/19 21/21/21 32/33/32 
f 17/17/17 20/20/20 36/38/36 40/44/40 
s 1
f 41/1/41 42/2/42 43/3/43 44/4/44 
s 2
f 45/5/45 46/6/46 47/7/47 48/8/48 
s 4
f 49/9/49 50/10/50 51/11/51 52/12/52 
s 2
f 53/13/53 54/14/54 55/15/55 56/16/56 
s 4
f 57/17/57 58/18/58 59/19/59 60/20/60 
s 1
f 41/1/41 61/21/61 62/22/62 63/23/63 
f 42/2/42 64/24/64 65/25/65 66/26/66 
f 43/27/43 67/28/67 68/29/68 69/30/69 
f 44/4/44 70/31/70 71/32/71 72/33/72 
s 2
f 47/7/47 73/34/73 65/25/65 64/24/64 
f 48/8/48 63/23/63 62/22/62 74/35/74 
s 4
f 51/36/51 75/37/75 68/29/68 67/28/67 
f 52/12/52 66/26/66 65/25/65 73/34/73 
s 2
f 55/15/55 76/38/76 71/32/71 70/31/70 
f 56/16/56 69/30/69 68/29/68 75/37/75 
s 4
f 59/19/59 74/35/74 62/22/62 61/21/61 
f 60/20/60 72/33/72 71/32/71 76/38/76 
s 1
f 42/2/42 41/1/41 63/23/63 64/24/64 
f 43/3/43 42/2/42 66/26/66 67/39/67 
f 44/4/44 43/27/43 69/30/69 70/31/70 
f 41/1/41 44/4/44 72/33/72 61/21/61 
s 2
f 47/7/47 46/6/46 77/40/77 73/34/73 
f 48/8/48 47/7/47 64/24/64 63/23/63 
f 45/5/45 48/8/48 74/35/74 78/41/78 
s 4
f 51/36/51 50/42/50 79/43/79 75/37/75 
f 52/12/52 51/11/51 67/39/67 66/26/66 
f 49/9/49 52/12/52 73/34/73 77/40/77 
s 2
f 55/15/55 54/14/54 80/44/80 76/38/76 
f 56/16/56 55/15/55 70/31/70 69/30/69 
f 53/13/53 56/16/56 75/37/75 79/43/79 
s 4
f 59/19/59 58/18/58 78/41/78 74/35/74 
f 60/20/60 59/19/59 61/21/61 72/33/72 
f 57/17/57 60/20/60 76/38/76 80/44/80 
s 1
f 81/1/81 82/2/82 83/3/83 84/4/84 
s 2
f 85/5/85 86/6/86 87/7/87 88/8/88 
s 4
f 89/9/89 90/10/90 91/11/91 92/12/92 
s 2
f 93/13/93 94/14/94 95/15/95 96/16/96 
s 4
f 97/17/97 98/18/98 99/19/99 100/20/100 
s 1
f 81/1/81 101/21/101 102/22/102 103/23/103 
f 82/2/82 104/24/104 105/25/105 106/26/106 
f 83/27/83 107/28/107 108/29/108 109/30/109 
f 84/4/84 110/31/110 111/32/111 112/33/112 
s 2
f 87/7/87 113/34/113 105/25/105 104/24/104 
f 88/8/88 103/23/103 102/22/102 114/35/114 
s 4
f 91/36/91 115/37/115 108/29/108 107/28/107 
f 92/12/92 106/26/106 105/25/105 113/34/113 
s 2
f 95/15/95 116/38/116 111/32/111 110/31/110 
f 96/16/96 109/30/109 108/29/108 115/37/115 
s 4
f 99/19/99 114/35/114 102/22/102 101/21/101 
f 100/20/100 112/33/112 111/32/111 116/38/116 
s 1
f 82/2/82 81/1/81 103/23/103 104/24/104 
f 83/3/83 82/2/82 106/26/106 107/39/107 
f 84/4/84 83/27/83 109/30/109 110/31/110 
f 81/1/81 84/4/84 112/33/112 101/21/101 
s 2
f 87/7/87 86/6/86 117/40/117 113/34/113 
f 88/8/88 87/7/87 104/24/104 103/23/103 
f 85/5/85 88/8/88 114/35/114 118/41/118 
s 4
f 91/36/91 90/42/90 119/43/119 115/37/115 
f 92/12/92 91/11/91 107/39/107 106/26/106 
f 89/9/89 92/12/92 113/34/113 117/40/117 
s 2
f 95/15/95 94/14/94 120/44/120 116/38/116 
f 96/16/96 95/15/95 110/31/110 109/30/109 
f 93/13/93 96/16/96 115/37/115 119/43/119 
s 4
f 99/19/99 98/18/98 118/41/118 114/35/114 
f 100/20/100 99/19/99 101/21/101 112/33/112 
f 97/17/97 100/20/100 116/38/116 120/44/120 
# 99 polygons

